<svg width="21" height="21" viewBox="0 0 21 21" fill="none" xmlns="http://www.w3.org/2000/svg">
<g opacity="0.7">
<mask id="mask0_554_1549" style="mask-type:alpha" maskUnits="userSpaceOnUse" x="0" y="0" width="21" height="21">
<path fill-rule="evenodd" clip-rule="evenodd" d="M0.445312 0.153717H20.4453V20.5534H0.445312V0.153717Z" fill="white"/>
</mask>
<g mask="url(#mask0_554_1549)">
<path fill-rule="evenodd" clip-rule="evenodd" d="M17.4378 0.153717H3.453C1.79175 0.153717 0.445251 1.52738 0.445251 3.22132V17.4858C0.445251 19.1798 1.79175 20.5534 3.453 20.5534H10.193V11.6235H8.42775V8.61833H10.193V6.16092C10.193 5.71162 10.1035 2.70368 13.9085 2.70368H16.5945V5.83249H14.619C14.2283 5.83249 13.833 6.24533 13.833 6.55234V8.60685H16.5905C16.4803 10.1827 16.2523 11.6235 16.2523 11.6235H13.819V20.5534H17.4378C19.0988 20.5534 20.4453 19.1798 20.4453 17.4858V3.22132C20.4453 1.52738 19.0988 0.153717 17.4378 0.153717Z" fill="#C4AA79"/>
</g>
</g>
</svg>
