<svg width="391" height="123" viewBox="0 0 391 123" fill="none" xmlns="http://www.w3.org/2000/svg">
<path d="M205.782 0H390.218V122.235H205.782H184L205.782 106.5V0Z" fill="#C4AA79"/>
<path d="M246.164 62.4683V64.6643H249.98C249.53 66.1583 248.234 67.0583 246.308 67.0583C245.012 67.0583 243.968 66.6803 243.176 65.9063C242.402 65.1323 242.006 64.1423 242.006 62.9543C242.006 61.7483 242.384 60.7583 243.158 59.9843C243.932 59.1923 244.922 58.7963 246.128 58.7963C247.622 58.7963 248.918 59.5163 249.512 60.5423L251.636 59.3183C250.556 57.5363 248.504 56.3843 246.146 56.3843C244.274 56.3843 242.708 57.0143 241.43 58.2923C240.17 59.5703 239.54 61.1183 239.54 62.9543C239.54 64.7723 240.17 66.3203 241.448 67.5983C242.726 68.8583 244.346 69.4883 246.29 69.4883C248.108 69.4883 249.602 68.9303 250.754 67.8143C251.906 66.6983 252.482 65.2403 252.482 63.4403V62.4683H246.164ZM257.777 59.0123C258.263 58.5263 258.263 57.7703 257.777 57.2843C257.327 56.7983 256.553 56.7983 256.067 57.2843C255.581 57.7703 255.581 58.5263 256.067 59.0123C256.553 59.4623 257.327 59.4623 257.777 59.0123ZM261.197 59.0123C261.683 58.5263 261.683 57.7703 261.197 57.2843C260.747 56.7983 259.973 56.7983 259.487 57.2843C259.001 57.7703 259.001 58.5263 259.487 59.0123C259.973 59.4623 260.747 59.4623 261.197 59.0123ZM260.981 61.2983C260.279 60.4163 259.307 59.9843 258.047 59.9843C256.841 59.9843 255.815 60.4523 254.951 61.3703C254.105 62.2883 253.673 63.4043 253.673 64.7363C253.673 66.0683 254.105 67.2023 254.951 68.1203C255.815 69.0383 256.841 69.4883 258.047 69.4883C259.307 69.4883 260.279 69.0563 260.981 68.1743V69.2363H263.303V60.2363H260.981V61.2983ZM256.697 66.5723C256.229 66.0863 255.995 65.4743 255.995 64.7363C255.995 63.9983 256.229 63.3863 256.697 62.9183C257.165 62.4323 257.759 62.1983 258.479 62.1983C259.199 62.1983 259.793 62.4323 260.261 62.9183C260.747 63.3863 260.981 63.9983 260.981 64.7363C260.981 65.4743 260.747 66.0863 260.261 66.5723C259.793 67.0403 259.199 67.2743 258.479 67.2743C257.759 67.2743 257.165 67.0403 256.697 66.5723ZM267.48 62.7923C267.48 62.3423 267.93 62.0543 268.524 62.0543C269.19 62.0543 269.676 62.3603 269.964 62.9723L271.944 61.8923C271.242 60.6683 269.982 59.9843 268.524 59.9843C267.552 59.9843 266.742 60.2363 266.076 60.7583C265.428 61.2623 265.104 61.9643 265.104 62.8463C265.104 64.7183 266.778 65.2763 268.11 65.6183C269.028 65.8523 269.748 66.1223 269.748 66.6083C269.748 67.1303 269.334 67.3823 268.506 67.3823C267.588 67.3823 267.012 66.9863 266.742 66.2123L264.726 67.3463C265.392 68.7683 266.652 69.4883 268.506 69.4883C269.532 69.4883 270.396 69.2363 271.08 68.7503C271.782 68.2463 272.124 67.5263 272.124 66.6083C272.142 64.6823 270.432 64.0523 269.118 63.7823C268.2 63.5483 267.48 63.2783 267.48 62.7923ZM275.285 62.7923C275.285 62.3423 275.735 62.0543 276.329 62.0543C276.995 62.0543 277.481 62.3603 277.769 62.9723L279.749 61.8923C279.047 60.6683 277.787 59.9843 276.329 59.9843C275.357 59.9843 274.547 60.2363 273.881 60.7583C273.233 61.2623 272.909 61.9643 272.909 62.8463C272.909 64.7183 274.583 65.2763 275.915 65.6183C276.833 65.8523 277.553 66.1223 277.553 66.6083C277.553 67.1303 277.139 67.3823 276.311 67.3823C275.393 67.3823 274.817 66.9863 274.547 66.2123L272.531 67.3463C273.197 68.7683 274.457 69.4883 276.311 69.4883C277.337 69.4883 278.201 69.2363 278.885 68.7503C279.587 68.2463 279.929 67.5263 279.929 66.6083C279.947 64.6823 278.237 64.0523 276.923 63.7823C276.005 63.5483 275.285 63.2783 275.285 62.7923ZM283.744 69.2363V56.0963H281.422V69.2363H283.744ZM287.022 59.1563C287.814 59.1563 288.462 58.5083 288.462 57.7343C288.462 56.9603 287.814 56.2943 287.022 56.2943C286.248 56.2943 285.6 56.9603 285.6 57.7343C285.6 58.5083 286.248 59.1563 287.022 59.1563ZM288.192 69.2363V60.2363H285.87V69.2363H288.192ZM297.157 61.2983C296.455 60.4163 295.483 59.9843 294.223 59.9843C293.017 59.9843 291.991 60.4523 291.127 61.3703C290.281 62.2883 289.849 63.4043 289.849 64.7363C289.849 66.0683 290.281 67.2023 291.127 68.1203C291.991 69.0383 293.017 69.4883 294.223 69.4883C295.483 69.4883 296.455 69.0563 297.157 68.1743V69.2363H299.479V60.2363H297.157V61.2983ZM292.873 66.5723C292.405 66.0863 292.171 65.4743 292.171 64.7363C292.171 63.9983 292.405 63.3863 292.873 62.9183C293.341 62.4323 293.935 62.1983 294.655 62.1983C295.375 62.1983 295.969 62.4323 296.437 62.9183C296.923 63.3863 297.157 63.9983 297.157 64.7363C297.157 65.4743 296.923 66.0863 296.437 66.5723C295.969 67.0403 295.375 67.2743 294.655 67.2743C293.935 67.2743 293.341 67.0403 292.873 66.5723ZM305.868 69.4883C307.614 69.4883 309.144 68.5703 309.936 67.1483L307.92 65.9963C307.56 66.7343 306.786 67.1843 305.85 67.1843C305.148 67.1843 304.572 66.9503 304.122 66.5003C303.672 66.0323 303.438 65.4383 303.438 64.7363C303.438 63.2963 304.464 62.2703 305.85 62.2703C306.768 62.2703 307.542 62.7383 307.902 63.4763L309.9 62.3063C309.162 60.8843 307.614 59.9843 305.868 59.9843C304.518 59.9843 303.384 60.4343 302.466 61.3523C301.566 62.2703 301.116 63.3863 301.116 64.7363C301.116 66.0863 301.566 67.2023 302.466 68.1203C303.384 69.0383 304.518 69.4883 305.868 69.4883ZM315.737 64.6823L319.355 60.2363H316.583L313.487 64.1963V56.6363H311.165V69.2363H313.487V65.1503L316.763 69.2363H319.463L315.737 64.6823ZM328.719 65.6903C328.773 65.3483 328.809 65.0423 328.809 64.7363C328.809 63.3863 328.377 62.2703 327.513 61.3523C326.667 60.4343 325.569 59.9843 324.255 59.9843C322.869 59.9843 321.717 60.4343 320.835 61.3523C319.953 62.2523 319.503 63.3863 319.503 64.7363C319.503 66.1043 319.953 67.2383 320.853 68.1383C321.753 69.0383 322.941 69.4883 324.435 69.4883C326.163 69.4883 327.477 68.8403 328.359 67.5623L326.487 66.4823C326.037 67.0763 325.353 67.3823 324.471 67.3823C323.085 67.3823 322.239 66.8243 321.933 65.6903H328.719ZM321.897 63.8903C322.167 62.7383 323.013 62.0723 324.255 62.0723C325.317 62.0723 326.217 62.6663 326.487 63.8903H321.897ZM332.752 60.2363H330.43V69.2363H332.752V64.9343C332.752 64.0703 333.022 63.4583 333.58 63.0803C334.138 62.7023 334.786 62.5583 335.488 62.6483V60.0563C334.264 60.0563 333.184 60.6323 332.752 61.7843V60.2363ZM340.482 57.8063L341.094 59.9303L343.47 59.2643V69.2363H345.954V56.6363H343.794L340.482 57.8063ZM355.957 58.6883V56.6363H348.037V58.9583H352.969L350.485 62.1983L351.439 63.6383H351.979C353.257 63.6383 353.995 64.3223 353.995 65.3483C353.995 66.4103 353.257 67.0583 351.979 67.0583C350.827 67.0583 350.089 66.5723 349.783 65.6003L347.659 66.8243C348.361 68.5703 350.017 69.4883 351.979 69.4883C353.239 69.4883 354.301 69.1283 355.165 68.3903C356.047 67.6523 356.479 66.6443 356.479 65.3483C356.479 63.5663 355.309 62.2523 353.599 61.7483L355.957 58.6883ZM249.841 86.7903V83.8023H247.339V86.7903H244.063L248.239 78.6363H245.575L241.381 86.7903V89.0943H247.339V91.2363H249.841V89.0943H251.191V86.7903H249.841ZM260.458 86.7903V83.8023H257.956V86.7903H254.68L258.856 78.6363H256.192L251.998 86.7903V89.0943H257.956V91.2363H260.458V89.0943H261.808V86.7903H260.458ZM271.25 82.7583C271.25 81.4623 270.818 80.4183 269.972 79.6083C269.126 78.7983 268.028 78.3843 266.678 78.3843C265.328 78.3843 264.23 78.7983 263.384 79.6083C262.538 80.4183 262.124 81.4803 262.124 82.7583C262.124 84.0363 262.538 85.0803 263.348 85.8903C264.176 86.7003 265.238 87.1143 266.552 87.1323L263.744 91.2363H266.588L270.512 85.3143H270.494C270.998 84.5763 271.25 83.7303 271.25 82.7583ZM264.59 82.7583C264.59 81.5343 265.508 80.7243 266.678 80.7243C267.902 80.7243 268.784 81.5163 268.784 82.7583C268.784 84.0003 267.902 84.8103 266.678 84.8103C265.508 84.8103 264.59 84.0003 264.59 82.7583ZM280.288 91.2363V88.8423H275.554L278.02 86.3763C279.406 84.9903 280.09 83.6583 280.09 82.3443C280.09 81.1383 279.676 80.1663 278.866 79.4643C278.056 78.7443 277.066 78.3843 275.932 78.3843C274.15 78.3843 272.566 79.3203 271.774 81.0483L273.862 82.2723C274.312 81.2823 275.014 80.7963 275.968 80.7963C276.922 80.7963 277.606 81.4443 277.606 82.4343C277.606 83.1003 277.12 83.9463 276.166 84.9543L271.864 89.3823V91.2363H280.288ZM285.674 78.6363V81.0123H289.058V91.2363H291.542V81.0123H294.944V78.6363H285.674ZM303.336 87.6903C303.39 87.3483 303.426 87.0423 303.426 86.7363C303.426 85.3863 302.994 84.2703 302.13 83.3523C301.284 82.4343 300.186 81.9843 298.872 81.9843C297.486 81.9843 296.334 82.4343 295.452 83.3523C294.57 84.2523 294.12 85.3863 294.12 86.7363C294.12 88.1043 294.57 89.2383 295.47 90.1383C296.37 91.0383 297.558 91.4883 299.052 91.4883C300.78 91.4883 302.094 90.8403 302.976 89.5623L301.104 88.4823C300.654 89.0763 299.97 89.3823 299.088 89.3823C297.702 89.3823 296.856 88.8243 296.55 87.6903H303.336ZM296.514 85.8903C296.784 84.7383 297.63 84.0723 298.872 84.0723C299.934 84.0723 300.834 84.6663 301.104 85.8903H296.514ZM309.261 91.4883C311.007 91.4883 312.537 90.5703 313.329 89.1483L311.313 87.9963C310.953 88.7343 310.179 89.1843 309.243 89.1843C308.541 89.1843 307.965 88.9503 307.515 88.5003C307.065 88.0323 306.831 87.4383 306.831 86.7363C306.831 85.2963 307.857 84.2703 309.243 84.2703C310.161 84.2703 310.935 84.7383 311.295 85.4763L313.293 84.3063C312.555 82.8843 311.007 81.9843 309.261 81.9843C307.911 81.9843 306.777 82.4343 305.859 83.3523C304.959 84.2703 304.509 85.3863 304.509 86.7363C304.509 88.0863 304.959 89.2023 305.859 90.1203C306.777 91.0383 307.911 91.4883 309.261 91.4883ZM319.129 86.6823L322.747 82.2363H319.975L316.879 86.1963V78.6363H314.557V91.2363H316.879V87.1503L320.155 91.2363H322.855L319.129 86.6823ZM329.018 81.9843C327.794 81.9843 326.894 82.3983 326.336 83.2443V82.2363H324.014V91.2363H326.336V86.3763C326.336 84.8823 327.11 84.1443 328.316 84.1443C329.396 84.1443 330.098 84.7923 330.098 85.9983V91.2363H332.42V85.7103C332.42 84.5403 332.096 83.6403 331.448 82.9743C330.818 82.3083 330.008 81.9843 329.018 81.9843ZM341.243 83.2983C340.541 82.4163 339.569 81.9843 338.309 81.9843C337.103 81.9843 336.077 82.4523 335.213 83.3703C334.367 84.2883 333.935 85.4043 333.935 86.7363C333.935 88.0683 334.367 89.2023 335.213 90.1203C336.077 91.0383 337.103 91.4883 338.309 91.4883C339.569 91.4883 340.541 91.0563 341.243 90.1743V91.2363H343.565V82.2363H341.243V83.2983ZM336.959 88.5723C336.491 88.0863 336.257 87.4743 336.257 86.7363C336.257 85.9983 336.491 85.3863 336.959 84.9183C337.427 84.4323 338.021 84.1983 338.741 84.1983C339.461 84.1983 340.055 84.4323 340.523 84.9183C341.009 85.3863 341.243 85.9983 341.243 86.7363C341.243 87.4743 341.009 88.0863 340.523 88.5723C340.055 89.0403 339.461 89.2743 338.741 89.2743C338.021 89.2743 337.427 89.0403 336.959 88.5723ZM351.61 87.0963C351.61 88.5903 350.836 89.3283 349.63 89.3283C348.55 89.3283 347.848 88.6803 347.848 87.4743V82.2363H345.526V87.7623C345.526 88.9323 345.85 89.8323 346.48 90.4983C347.128 91.1643 347.938 91.4883 348.928 91.4883C350.152 91.4883 351.052 91.0743 351.61 90.2283V91.2363H353.932V82.2363H351.61V87.0963Z" fill="white"/>
<g clip-path="url(#clip0_1494_1134)">
<path d="M307 26.0903C307 33.0903 298 39.0903 298 39.0903C298 39.0903 289 33.0903 289 26.0903C289 23.7034 289.948 21.4142 291.636 19.7264C293.324 18.0385 295.613 17.0903 298 17.0903C300.387 17.0903 302.676 18.0385 304.364 19.7264C306.052 21.4142 307 23.7034 307 26.0903Z" stroke="white" stroke-width="2" stroke-linecap="round" stroke-linejoin="round"/>
<path d="M298 29.0903C299.657 29.0903 301 27.7472 301 26.0903C301 24.4335 299.657 23.0903 298 23.0903C296.343 23.0903 295 24.4335 295 26.0903C295 27.7472 296.343 29.0903 298 29.0903Z" stroke="white" stroke-width="2" stroke-linecap="round" stroke-linejoin="round"/>
</g>
<defs>
<clipPath id="clip0_1494_1134">
<rect width="24" height="24" fill="white" transform="translate(286 16.0903)"/>
</clipPath>
</defs>
</svg>
