<svg width="94" height="101" viewBox="0 0 94 101" fill="none" xmlns="http://www.w3.org/2000/svg">
<path d="M17.3387 71.4685C15.2297 70.4235 12.9541 69.4886 11.8996 67.6187C10.2345 64.7589 11.9551 60.3592 11.0671 57.0594C10.179 53.9246 6.46045 51.0098 6.46045 47.545C6.46045 44.0803 10.179 41.1655 11.0671 37.9757C11.9551 34.6759 10.2345 30.3312 11.8996 27.4164C13.6201 24.5016 18.2822 23.7866 20.7243 21.4218C23.1109 19.0569 23.8324 14.3822 26.774 12.6774C29.66 11.0275 34.1001 12.7324 37.4302 11.8524C40.5938 11.0825 43.5354 7.39771 46.9765 7.39771C50.473 7.39771 53.4146 11.0825 56.6337 11.9624C59.9638 12.8423 64.3484 11.1375 67.29 12.7873C70.2315 14.4922 70.9531 19.1119 73.3396 21.5318C75.7262 23.8966 80.4438 24.6116 82.1643 27.5264C83.8294 30.3862 82.1088 34.7859 82.9969 38.0857C83.8294 41.2755 87.6035 44.1903 87.6035 47.655C87.6035 51.1198 83.8849 54.0346 82.9969 57.2244C82.1088 60.5242 83.8294 64.8689 82.1643 67.7837C81.1098 69.5986 78.8898 70.5335 76.7807 71.5785" stroke="#C4AA79" stroke-width="2" stroke-miterlimit="10" stroke-linecap="round" stroke-linejoin="round"/>
<path d="M65.1254 83.0175C62.4613 83.3475 59.2422 82.4675 56.6337 83.1825C53.4146 84.0074 50.473 87.7472 46.9764 87.7472C43.4798 87.7472 40.5383 84.0624 37.3192 83.1825C34.7661 82.5225 31.6025 83.3475 28.9385 83.0175" stroke="#C4AA79" stroke-width="2" stroke-miterlimit="10" stroke-linecap="round" stroke-linejoin="round"/>
<path d="M46.9764 77.1331C63.4675 77.1331 76.8362 63.8861 76.8362 47.5451C76.8362 31.204 63.4675 17.957 46.9764 17.957C30.4854 17.957 17.1167 31.204 17.1167 47.5451C17.1167 63.8861 30.4854 77.1331 46.9764 77.1331Z" stroke="#C4AA79" stroke-width="2" stroke-miterlimit="10" stroke-linecap="round" stroke-linejoin="round"/>
<path d="M72.0073 63.9336L84.9392 86.0421L75.5039 85.2172L71.5633 93.7416L60.1855 74.1629" stroke="#C4AA79" stroke-width="2" stroke-miterlimit="10" stroke-linecap="round" stroke-linejoin="round"/>
<path d="M22.0563 63.8789L9.12451 86.0424L18.5597 85.2175L22.5003 93.7419L33.8781 74.1632" stroke="#C4AA79" stroke-width="2" stroke-miterlimit="10" stroke-linecap="round" stroke-linejoin="round"/>
</svg>
