<svg width="18" height="18" viewBox="0 0 18 18" fill="none" xmlns="http://www.w3.org/2000/svg">
<path d="M16.8648 12.4477V15.5908C16.865 16.0577 16.5039 16.4452 16.0381 16.4779C15.6497 16.5046 15.3324 16.5188 15.087 16.5188C7.23192 16.5188 0.864807 10.1517 0.864807 2.29658C0.864807 2.05124 0.87814 1.73391 0.905696 1.34547C0.938381 0.879683 1.32588 0.518588 1.79281 0.518799H4.93592C5.16434 0.518568 5.35574 0.691523 5.37859 0.918799C5.39903 1.12324 5.4177 1.28591 5.43547 1.40947C5.61213 2.64229 5.97414 3.84132 6.50925 4.96591C6.5937 5.14369 6.53859 5.35613 6.37859 5.46991L4.46036 6.84058C5.63321 9.57342 7.81107 11.7513 10.5439 12.9241L11.9128 11.0095C12.0283 10.848 12.2427 10.7923 12.4221 10.877C13.5466 11.4111 14.7453 11.7722 15.9777 11.9481C16.1013 11.9659 16.2639 11.9855 16.4666 12.005C16.6935 12.0283 16.866 12.2196 16.8657 12.4477H16.8648Z" stroke="#C4AA79"/>
</svg>
