<svg width="74" height="38" viewBox="0 0 74 38" fill="none" xmlns="http://www.w3.org/2000/svg">
<path d="M1.0716 16.4828V21.0408H72.9285V16.4828H1.0716Z" fill="white"/>
<path d="M1.0716 1.0755V18.402H72.9285V1.0755H1.0716Z" fill="#003366"/>
<path d="M1.0716 36.9245H64.4592C69.1722 36.9245 72.9285 32.9291 72.9285 28.2477V19.598H1.0716V36.9245Z" fill="#FF7300"/>
<path d="M7.62579 33.2518H7.50151C6.04282 33.2518 4.7869 32.2043 4.7869 30.4609C4.7869 29.3881 6.35352 29.3881 6.35352 30.4609C6.35352 31.2144 6.82776 31.6468 7.50151 31.6468H7.62579C8.29953 31.6468 8.81302 31.2853 8.81302 30.5876C8.81302 28.8424 4.88175 28.6735 4.88175 26.1225C4.88175 25.94 4.88175 26.0093 4.88175 25.8269C4.88175 24.3368 6.32736 23.4431 7.50151 23.4431H7.62579C9.0158 23.4431 10.2586 24.3368 10.2586 25.6748C10.2586 26.707 8.70509 26.7374 8.70509 25.7171C8.70509 25.3538 8.27337 25.048 7.62579 25.048H7.50151C6.90789 25.048 6.45001 25.3842 6.45001 25.913C6.45001 26.0955 6.45001 25.9569 6.45001 26.1225C6.45001 27.224 10.378 27.7139 10.378 30.5876C10.378 32.1773 9.17606 33.2518 7.62579 33.2518Z" fill="#003366"/>
<path d="M14.4173 33.2518H14.2947C12.8098 33.2518 11.5948 32.0658 11.5948 30.5183V26.1631C11.5948 24.6156 12.8098 23.4431 14.2947 23.4431H14.4173C15.7812 23.4431 16.9161 24.4061 17.091 25.7728C17.1058 25.8167 17.1058 25.8573 17.1058 25.913C17.1058 26.4148 16.6986 26.6952 16.3094 26.6952C15.9561 26.6952 15.6193 26.4705 15.5522 25.9958C15.4705 25.4231 14.9979 25.048 14.4173 25.048H14.2947C13.6618 25.048 13.1483 25.5211 13.1483 26.1631V30.5183C13.1483 31.1721 13.6733 31.6468 14.2947 31.6468H14.4173C14.9979 31.6468 15.4705 31.2684 15.5522 30.6974C15.6193 30.2244 15.9692 30.0014 16.3094 30.0014C16.7133 30.0014 17.1058 30.2818 17.1058 30.7836C17.1058 30.8393 17.1058 30.8799 17.1058 30.9356C16.9013 32.2753 15.7812 33.2518 14.4173 33.2518Z" fill="#003366"/>
<path d="M22.1833 26.1783C22.1833 25.5211 21.6829 25.048 21.0484 25.048H20.9258C20.2929 25.048 19.7925 25.5363 19.7925 26.1783V30.5031C19.7925 31.1603 20.3044 31.6468 20.9258 31.6468H21.0484C21.6829 31.6468 22.1833 31.1603 22.1833 30.5183V26.1783ZM21.0484 33.2518H20.9258C19.4393 33.2518 18.2259 32.0523 18.2259 30.5183V26.1783C18.2259 24.6291 19.4393 23.4431 20.9258 23.4431H21.0484C22.5464 23.4431 23.75 24.6291 23.75 26.1783V30.5031C23.75 32.0523 22.5464 33.2518 21.0484 33.2518Z" fill="#003366"/>
<path d="M28.1783 33.2518H28.0573C26.5725 33.2518 25.3558 31.9982 25.3558 30.4609V24.2523C25.3558 23.7067 25.7483 23.4431 26.1407 23.4431C26.5316 23.4431 26.924 23.7067 26.924 24.2523V30.4609C26.924 31.1029 27.4359 31.6468 28.0573 31.6468H28.1783C28.8145 31.6468 29.3279 31.1164 29.3279 30.4609V24.2523C29.3279 23.7067 29.7188 23.4431 30.1113 23.4431C30.5037 23.4431 30.8929 23.7067 30.8929 24.2523V30.4609C30.8929 31.9982 29.6795 33.2518 28.1783 33.2518Z" fill="#003366"/>
<path d="M36.4301 25.1308H35.3508V32.4443C35.3508 32.9882 34.9583 33.2518 34.5658 33.2518C34.1766 33.2518 33.7842 32.9882 33.7842 32.4443V25.1308H32.7049C32.1914 25.1308 31.9216 24.7271 31.9216 24.3216C31.9216 23.9314 32.1914 23.5276 32.7049 23.5276H36.4301C36.9583 23.5276 37.215 23.9314 37.215 24.3216C37.215 24.7271 36.9583 25.1308 36.4301 25.1308Z" fill="#003366"/>
<path d="M43.7269 33.1673H40.2126C39.7139 33.1673 39.4179 32.6808 39.4179 32.2043C39.4179 32.0253 39.444 31.8563 39.5372 31.7043L42.6051 26.5989C42.7653 26.3168 42.7653 26.1631 42.7653 25.9569V25.8421C42.7653 25.4231 42.4154 25.048 41.9559 25.048H41.915C41.4702 25.048 41.1333 25.4113 41.1333 25.8421V25.9958C41.1333 26.5263 40.7408 26.7915 40.3484 26.7915C39.9575 26.7915 39.565 26.5263 39.565 25.9958V25.788C39.565 24.4331 40.6313 23.4431 41.915 23.4431H41.9559C43.2232 23.4431 44.332 24.4196 44.332 25.788L44.3189 25.94C44.3189 26.4705 44.1308 26.9047 43.8446 27.3896L41.3753 31.5624H43.7269C44.2518 31.5624 44.5086 31.9678 44.5086 32.3598C44.5086 32.7618 44.2518 33.1673 43.7269 33.1673Z" fill="#003366"/>
<path d="M49.8952 31.2566H49.5992V32.4442C49.5992 32.9882 49.2067 33.2518 48.8159 33.2518C48.4234 33.2518 48.0342 32.9882 48.0342 32.4442V31.2566H45.9116C45.3719 31.2566 45.0351 30.9508 45.0351 30.4051C45.0351 30.2666 45.0612 30.0841 45.1136 29.9574L47.6417 23.9314C47.7905 23.5816 48.0604 23.4431 48.3302 23.4431C48.7341 23.4431 49.1397 23.7641 49.1397 24.2236C49.1397 24.3368 49.1266 24.4466 49.0742 24.5733L46.8437 29.6517H48.0342V28.8424C48.0342 28.312 48.4234 28.0315 48.8159 28.0315C49.2067 28.0315 49.5992 28.2985 49.5992 28.8424V29.6517H49.8952C50.4234 29.6517 50.6785 30.0419 50.6785 30.4474C50.6785 30.8528 50.4234 31.2566 49.8952 31.2566Z" fill="#003366"/>
<path d="M8.42225 7.97663L7.57189 10.9213H9.27261L8.42225 7.97663ZM10.975 14.7866C10.6773 14.7866 10.3666 14.6177 10.2587 14.2122L9.7583 12.5262H7.0862L6.58417 14.2122C6.46479 14.6177 6.15408 14.7866 5.85482 14.7866C5.4509 14.7866 5.04534 14.4791 5.04534 14.0027C5.04534 13.9216 5.04534 13.8372 5.08622 13.7392L7.55717 5.66046C7.74687 5.032 8.08538 4.97626 8.42225 4.97626C8.74441 4.97626 9.08455 5.032 9.28733 5.66046L11.7436 13.7392C11.773 13.8372 11.7844 13.9216 11.7844 14.0027C11.7844 14.4791 11.3805 14.7866 10.975 14.7866Z" fill="white"/>
<path d="M15.7173 14.7866H15.5963C14.1115 14.7866 12.8948 13.528 12.8948 11.9957V5.78717C12.8948 5.24149 13.2873 4.97626 13.6781 4.97626C14.0706 4.97626 14.4614 5.24149 14.4614 5.78717V11.9957C14.4614 12.6377 14.9749 13.1817 15.5963 13.1817H15.7173C16.3535 13.1817 16.8653 12.6495 16.8653 11.9957V5.78717C16.8653 5.24149 17.2578 4.97626 17.6503 4.97626C18.0395 4.97626 18.432 5.24149 18.432 5.78717V11.9957C18.432 13.528 17.2153 14.7866 15.7173 14.7866Z" fill="white"/>
<path d="M24.0933 6.66572H23.0108V13.9757C23.0108 14.5214 22.6183 14.7867 22.2291 14.7867C21.8366 14.7867 21.4441 14.5214 21.4441 13.9757V6.66572H20.3648C19.8514 6.66572 19.5815 6.26027 19.5815 5.8565C19.5815 5.46625 19.8514 5.06079 20.3648 5.06079H24.0933C24.6183 5.06079 24.875 5.46625 24.875 5.8565C24.875 6.26027 24.6183 6.66572 24.0933 6.66572Z" fill="white"/>
<path d="M29.7695 7.71308C29.7695 7.05591 29.2708 6.58118 28.6346 6.58118H28.5136C27.8775 6.58118 27.3804 7.07111 27.3804 7.71308V12.0379C27.3804 12.6917 27.8922 13.1817 28.5136 13.1817H28.6346C29.2708 13.1817 29.7695 12.6917 29.7695 12.0498V7.71308ZM28.6346 14.7866H28.5136C27.0271 14.7866 25.8121 13.5854 25.8121 12.0498V7.71308C25.8121 6.16221 27.0271 4.97626 28.5136 4.97626H28.6346C30.1342 4.97626 31.3378 6.16221 31.3378 7.71308V12.0379C31.3378 13.5854 30.1342 14.7866 28.6346 14.7866Z" fill="white"/>
</svg>
