<svg width="25" height="25" viewBox="0 0 25 25" fill="none" xmlns="http://www.w3.org/2000/svg">
<path fill-rule="evenodd" clip-rule="evenodd" d="M16.3068 14.6998C16.4843 14.4198 16.4013 14.0493 16.1213 13.8718L13.4683 12.1888V7.7968C13.4683 7.4653 13.1998 7.1968 12.8683 7.1968C12.5368 7.1968 12.2683 7.4653 12.2683 7.7968V12.5188C12.2683 12.7243 12.3733 12.9153 12.5468 13.0253L15.4788 14.8853C15.5783 14.9483 15.6898 14.9788 15.7993 14.9788C15.9983 14.9788 16.1923 14.8798 16.3068 14.6998ZM12.8683 5.7188C9.11879 5.7188 6.06829 8.7693 6.06829 12.5188C6.06829 16.2683 9.11879 19.3183 12.8683 19.3183C16.6178 19.3183 19.6683 16.2683 19.6683 12.5188C19.6683 8.7693 16.6178 5.7188 12.8683 5.7188ZM12.8683 20.5188C8.45679 20.5188 4.86829 16.9298 4.86829 12.5188C4.86829 8.1073 8.45679 4.5188 12.8683 4.5188C17.2793 4.5188 20.8683 8.1073 20.8683 12.5188C20.8683 16.9298 17.2793 20.5188 12.8683 20.5188Z" fill="#C4AA79"/>
</svg>
