<svg width="42" height="42" viewBox="0 0 42 42" fill="none" xmlns="http://www.w3.org/2000/svg">
<mask id="path-1-inside-1_548_272" fill="white">
<path fill-rule="evenodd" clip-rule="evenodd" d="M33.6759 41.5201C32.898 41.5201 32.1136 41.3492 31.3835 40.9907C24.9865 37.8478 19.0374 33.5503 13.7044 28.2199C8.36487 22.8856 4.06222 16.9339 0.916787 10.533C-0.223596 8.21467 0.528461 5.34624 2.66555 3.86154L6.95525 0.881791C8.83475 -0.424277 11.4547 0.022297 12.797 1.87461L15.8233 6.05558C16.7035 7.27234 16.9935 8.80234 16.6194 10.2547L15.6201 14.1315C15.479 14.679 15.6136 15.2524 15.9786 15.6653C17.4284 17.3041 19.3856 19.3829 20.9647 20.9621C22.5413 22.5374 24.6215 24.492 26.2641 25.9443C26.6783 26.3094 27.253 26.4414 27.8006 26.3029L31.6799 25.3049C33.1349 24.9308 34.6649 25.2207 35.8803 26.0997L40.0497 29.1131C41.9046 30.4541 42.3498 33.074 41.0438 34.9522L38.0588 39.2432C37.0401 40.7072 35.3716 41.5201 33.6759 41.5201Z"/>
</mask>
<path d="M31.3835 40.9907L30.9426 41.8882L30.9427 41.8882L31.3835 40.9907ZM13.7044 28.2199L14.4113 27.5126L14.4111 27.5125L13.7044 28.2199ZM0.916787 10.533L1.81428 10.0919L1.8141 10.0916L0.916787 10.533ZM2.66555 3.86154L2.09505 3.04024L2.09499 3.04028L2.66555 3.86154ZM6.95525 0.881791L7.52575 1.70309L7.5259 1.70298L6.95525 0.881791ZM12.797 1.87461L13.607 1.28826L13.6067 1.28782L12.797 1.87461ZM15.8233 6.05558L16.6335 5.46946L16.6334 5.46923L15.8233 6.05558ZM16.6194 10.2547L17.5877 10.5043L17.5878 10.5041L16.6194 10.2547ZM15.6201 14.1315L14.6517 13.8819L14.6517 13.8819L15.6201 14.1315ZM15.9786 15.6653L15.2294 16.3277L15.2297 16.3279L15.9786 15.6653ZM20.9647 20.9621L20.2576 21.6692L20.2579 21.6695L20.9647 20.9621ZM26.2641 25.9443L25.6017 26.6935L25.6029 26.6946L26.2641 25.9443ZM27.8006 26.3029L28.0458 27.2724L28.0497 27.2714L27.8006 26.3029ZM31.6799 25.3049L31.4309 24.3364L31.4308 24.3364L31.6799 25.3049ZM35.8803 26.0997L35.2944 26.91L35.2946 26.9101L35.8803 26.0997ZM40.0497 29.1131L40.6355 28.3027L40.6354 28.3026L40.0497 29.1131ZM41.0438 34.9522L41.8647 35.5232L41.8648 35.5231L41.0438 34.9522ZM38.0588 39.2432L38.8797 39.8144L38.8798 39.8142L38.0588 39.2432ZM33.6759 40.5201C33.0446 40.5201 32.4118 40.3816 31.8244 40.0931L30.9427 41.8882C31.8154 42.3169 32.7513 42.5201 33.6759 42.5201V40.5201ZM31.8245 40.0931C25.5315 37.0014 19.6712 32.77 14.4113 27.5126L12.9974 28.9272C18.4035 34.3307 24.4415 38.6942 30.9426 41.8882L31.8245 40.0931ZM14.4111 27.5125C9.1449 22.2514 4.90848 16.3886 1.81428 10.0919L0.0192956 10.974C3.21597 17.4792 7.58484 23.5199 12.9976 28.9274L14.4111 27.5125ZM1.8141 10.0916C0.89445 8.22201 1.50063 5.88848 3.2361 4.6828L2.09499 3.04028C-0.443711 4.804 -1.34164 8.20734 0.0194728 10.9744L1.8141 10.0916ZM3.23604 4.68284L7.52575 1.70309L6.38475 0.0604922L2.09505 3.04024L3.23604 4.68284ZM7.5259 1.70298C8.95775 0.707986 10.9641 1.04961 11.9872 2.4614L13.6067 1.28782C11.9452 -1.00501 8.71174 -1.55654 6.3846 0.0605979L7.5259 1.70298ZM11.9869 2.46096L15.0133 6.64193L16.6334 5.46923L13.607 1.28826L11.9869 2.46096ZM15.0131 6.6417C15.7191 7.61765 15.9508 8.84145 15.651 10.0052L17.5878 10.5041C18.0362 8.76323 17.6879 6.92702 16.6335 5.46946L15.0131 6.6417ZM15.651 10.0051L14.6517 13.8819L16.5884 14.3811L17.5877 10.5043L15.651 10.0051ZM14.6517 13.8819C14.43 14.7422 14.6386 15.6593 15.2294 16.3277L16.7279 15.003C16.5886 14.8455 16.5279 14.6158 16.5885 14.381L14.6517 13.8819ZM15.2297 16.3279C16.6932 17.9823 18.6644 20.076 20.2576 21.6692L21.6719 20.255C20.1067 18.6899 18.1635 16.6259 16.7276 15.0028L15.2297 16.3279ZM20.2579 21.6695C21.8489 23.2592 23.9439 25.2277 25.6017 26.6935L26.9265 25.1952C25.2991 23.7563 23.2338 21.8156 21.6716 20.2547L20.2579 21.6695ZM25.6029 26.6946C26.2747 27.2866 27.1917 27.4884 28.0458 27.2723L27.5553 25.3334C27.3144 25.3944 27.0819 25.3321 26.9253 25.1941L25.6029 26.6946ZM28.0497 27.2714L31.9291 26.2734L31.4308 24.3364L27.5514 25.3344L28.0497 27.2714ZM31.929 26.2734C33.0961 25.9733 34.32 26.2054 35.2944 26.91L36.4663 25.2893C35.0097 24.2361 33.1737 23.8883 31.4309 24.3364L31.929 26.2734ZM35.2946 26.9101L39.4639 29.9235L40.6354 28.3026L36.4661 25.2892L35.2946 26.9101ZM39.4638 29.9235C40.8768 30.945 41.2177 32.9505 40.2228 34.3813L41.8648 35.5231C43.482 33.1974 42.9323 29.9631 40.6355 28.3027L39.4638 29.9235ZM40.2229 34.3811L37.2379 38.6721L38.8798 39.8142L41.8647 35.5232L40.2229 34.3811ZM37.238 38.672C36.4142 39.8559 35.0585 40.5201 33.6759 40.5201V42.5201C35.6847 42.5201 37.6661 41.5584 38.8797 39.8144L37.238 38.672Z" fill="#C4AA79" mask="url(#path-1-inside-1_548_272)"/>
</svg>
