<svg width="51" height="46" viewBox="0 0 51 46" fill="none" xmlns="http://www.w3.org/2000/svg">
<path d="M19.5518 37.8737L19.7019 38.07L24.4504 44.2816L19.5518 37.8737ZM19.5518 37.8737H19.3047M19.5518 37.8737H19.3047M19.3047 37.8737H18.6285C8.72174 37.8737 0.637695 29.5941 0.637695 19.3904C0.637695 9.18678 8.72174 0.907227 18.6285 0.907227H32.1529C42.0596 0.907227 50.1436 9.18678 50.1436 19.3904C50.1436 29.5941 42.0596 37.8737 32.1529 37.8737H31.4766H31.2295M19.3047 37.8737H31.2295M31.2295 37.8737L31.0794 38.07M31.2295 37.8737L31.0794 38.07M31.0794 38.07L26.3309 44.2816L31.0794 38.07ZM25.3907 44.7467C25.0227 44.7467 24.6754 44.5746 24.4509 44.2822H26.3304C26.106 44.5746 25.7586 44.7467 25.3907 44.7467Z" stroke="#C4AA79"/>
<path d="M13.0426 18.6213C13.0426 17.3096 14.0725 16.2705 15.312 16.2705C16.5515 16.2705 17.5814 17.3096 17.5814 18.6213C17.5814 19.9327 16.5518 20.9707 15.312 20.9707C14.0722 20.9707 13.0426 19.9327 13.0426 18.6213Z" stroke="#C4AA79"/>
<path d="M33.2063 18.6213C33.2063 17.3096 34.2362 16.2705 35.4757 16.2705C36.7152 16.2705 37.7451 17.3096 37.7451 18.6213C37.7451 19.9327 36.7155 20.9707 35.4757 20.9707C34.2359 20.9707 33.2063 19.9327 33.2063 18.6213Z" stroke="#C4AA79"/>
<path d="M23.126 18.6213C23.126 17.3096 24.1559 16.2705 25.3954 16.2705C26.6349 16.2705 27.6648 17.3096 27.6648 18.6213C27.6648 19.9327 26.6352 20.9707 25.3954 20.9707C24.1556 20.9707 23.126 19.9327 23.126 18.6213Z" stroke="#C4AA79"/>
</svg>
