<svg width="207" height="116" viewBox="0 0 207 116" fill="none" xmlns="http://www.w3.org/2000/svg">
<path d="M0.782471 0H185.218V43L207 53.5L185.218 64.5V106.5H0.782471V0Z" fill="#C4AA79"/>
<path d="M41.3818 59.232V61.428H45.1978C44.7478 62.922 43.4518 63.822 41.5258 63.822C40.2298 63.822 39.1858 63.444 38.3938 62.67C37.6198 61.896 37.2238 60.906 37.2238 59.718C37.2238 58.512 37.6018 57.522 38.3758 56.748C39.1498 55.956 40.1398 55.56 41.3458 55.56C42.8398 55.56 44.1358 56.28 44.7298 57.306L46.8538 56.082C45.7738 54.3 43.7218 53.148 41.3638 53.148C39.4918 53.148 37.9258 53.778 36.6478 55.056C35.3878 56.334 34.7578 57.882 34.7578 59.718C34.7578 61.536 35.3878 63.084 36.6658 64.362C37.9438 65.622 39.5638 66.252 41.5078 66.252C43.3258 66.252 44.8198 65.694 45.9718 64.578C47.1238 63.462 47.6998 62.004 47.6998 60.204V59.232H41.3818ZM52.9946 55.776C53.4806 55.29 53.4806 54.534 52.9946 54.048C52.5446 53.562 51.7706 53.562 51.2846 54.048C50.7986 54.534 50.7986 55.29 51.2846 55.776C51.7706 56.226 52.5446 56.226 52.9946 55.776ZM56.4146 55.776C56.9006 55.29 56.9006 54.534 56.4146 54.048C55.9646 53.562 55.1906 53.562 54.7046 54.048C54.2186 54.534 54.2186 55.29 54.7046 55.776C55.1906 56.226 55.9646 56.226 56.4146 55.776ZM56.1986 58.062C55.4966 57.18 54.5246 56.748 53.2646 56.748C52.0586 56.748 51.0326 57.216 50.1686 58.134C49.3226 59.052 48.8906 60.168 48.8906 61.5C48.8906 62.832 49.3226 63.966 50.1686 64.884C51.0326 65.802 52.0586 66.252 53.2646 66.252C54.5246 66.252 55.4966 65.82 56.1986 64.938V66H58.5206V57H56.1986V58.062ZM51.9146 63.336C51.4466 62.85 51.2126 62.238 51.2126 61.5C51.2126 60.762 51.4466 60.15 51.9146 59.682C52.3826 59.196 52.9766 58.962 53.6966 58.962C54.4166 58.962 55.0106 59.196 55.4786 59.682C55.9646 60.15 56.1986 60.762 56.1986 61.5C56.1986 62.238 55.9646 62.85 55.4786 63.336C55.0106 63.804 54.4166 64.038 53.6966 64.038C52.9766 64.038 52.3826 63.804 51.9146 63.336ZM62.6979 59.556C62.6979 59.106 63.1479 58.818 63.7419 58.818C64.4079 58.818 64.8939 59.124 65.1819 59.736L67.1619 58.656C66.4599 57.432 65.1999 56.748 63.7419 56.748C62.7699 56.748 61.9599 57 61.2939 57.522C60.6459 58.026 60.3219 58.728 60.3219 59.61C60.3219 61.482 61.9959 62.04 63.3279 62.382C64.2459 62.616 64.9659 62.886 64.9659 63.372C64.9659 63.894 64.5519 64.146 63.7239 64.146C62.8059 64.146 62.2299 63.75 61.9599 62.976L59.9439 64.11C60.6099 65.532 61.8699 66.252 63.7239 66.252C64.7499 66.252 65.6139 66 66.2979 65.514C66.9999 65.01 67.3419 64.29 67.3419 63.372C67.3599 61.446 65.6499 60.816 64.3359 60.546C63.4179 60.312 62.6979 60.042 62.6979 59.556ZM70.5026 59.556C70.5026 59.106 70.9526 58.818 71.5466 58.818C72.2126 58.818 72.6986 59.124 72.9866 59.736L74.9666 58.656C74.2646 57.432 73.0046 56.748 71.5466 56.748C70.5746 56.748 69.7646 57 69.0986 57.522C68.4506 58.026 68.1266 58.728 68.1266 59.61C68.1266 61.482 69.8006 62.04 71.1326 62.382C72.0506 62.616 72.7706 62.886 72.7706 63.372C72.7706 63.894 72.3566 64.146 71.5286 64.146C70.6106 64.146 70.0346 63.75 69.7646 62.976L67.7486 64.11C68.4146 65.532 69.6746 66.252 71.5286 66.252C72.5546 66.252 73.4186 66 74.1026 65.514C74.8046 65.01 75.1466 64.29 75.1466 63.372C75.1646 61.446 73.4546 60.816 72.1406 60.546C71.2226 60.312 70.5026 60.042 70.5026 59.556ZM78.9619 66V52.86H76.6399V66H78.9619ZM82.2392 55.92C83.0312 55.92 83.6792 55.272 83.6792 54.498C83.6792 53.724 83.0312 53.058 82.2392 53.058C81.4652 53.058 80.8172 53.724 80.8172 54.498C80.8172 55.272 81.4652 55.92 82.2392 55.92ZM83.4092 66V57H81.0872V66H83.4092ZM92.3744 58.062C91.6724 57.18 90.7004 56.748 89.4404 56.748C88.2344 56.748 87.2084 57.216 86.3444 58.134C85.4984 59.052 85.0664 60.168 85.0664 61.5C85.0664 62.832 85.4984 63.966 86.3444 64.884C87.2084 65.802 88.2344 66.252 89.4404 66.252C90.7004 66.252 91.6724 65.82 92.3744 64.938V66H94.6964V57H92.3744V58.062ZM88.0904 63.336C87.6224 62.85 87.3884 62.238 87.3884 61.5C87.3884 60.762 87.6224 60.15 88.0904 59.682C88.5584 59.196 89.1524 58.962 89.8724 58.962C90.5924 58.962 91.1864 59.196 91.6544 59.682C92.1404 60.15 92.3744 60.762 92.3744 61.5C92.3744 62.238 92.1404 62.85 91.6544 63.336C91.1864 63.804 90.5924 64.038 89.8724 64.038C89.1524 64.038 88.5584 63.804 88.0904 63.336ZM101.086 66.252C102.832 66.252 104.362 65.334 105.154 63.912L103.138 62.76C102.778 63.498 102.004 63.948 101.068 63.948C100.366 63.948 99.79 63.714 99.34 63.264C98.89 62.796 98.656 62.202 98.656 61.5C98.656 60.06 99.682 59.034 101.068 59.034C101.986 59.034 102.76 59.502 103.12 60.24L105.118 59.07C104.38 57.648 102.832 56.748 101.086 56.748C99.736 56.748 98.602 57.198 97.684 58.116C96.784 59.034 96.334 60.15 96.334 61.5C96.334 62.85 96.784 63.966 97.684 64.884C98.602 65.802 99.736 66.252 101.086 66.252ZM110.954 61.446L114.572 57H111.8L108.704 60.96V53.4H106.382V66H108.704V61.914L111.98 66H114.68L110.954 61.446ZM123.937 62.454C123.991 62.112 124.027 61.806 124.027 61.5C124.027 60.15 123.595 59.034 122.731 58.116C121.885 57.198 120.787 56.748 119.473 56.748C118.087 56.748 116.935 57.198 116.053 58.116C115.171 59.016 114.721 60.15 114.721 61.5C114.721 62.868 115.171 64.002 116.071 64.902C116.971 65.802 118.159 66.252 119.653 66.252C121.381 66.252 122.695 65.604 123.577 64.326L121.705 63.246C121.255 63.84 120.571 64.146 119.689 64.146C118.303 64.146 117.457 63.588 117.151 62.454H123.937ZM117.115 60.654C117.385 59.502 118.231 58.836 119.473 58.836C120.535 58.836 121.435 59.43 121.705 60.654H117.115ZM127.97 57H125.648V66H127.97V61.698C127.97 60.834 128.24 60.222 128.798 59.844C129.356 59.466 130.004 59.322 130.706 59.412V56.82C129.482 56.82 128.402 57.396 127.97 58.548V57ZM135.7 54.57L136.312 56.694L138.688 56.028V66H141.172V53.4H139.012L135.7 54.57ZM151.175 55.452V53.4H143.255V55.722H148.187L145.703 58.962L146.657 60.402H147.197C148.475 60.402 149.213 61.086 149.213 62.112C149.213 63.174 148.475 63.822 147.197 63.822C146.045 63.822 145.307 63.336 145.001 62.364L142.877 63.588C143.579 65.334 145.235 66.252 147.197 66.252C148.457 66.252 149.519 65.892 150.383 65.154C151.265 64.416 151.697 63.408 151.697 62.112C151.697 60.33 150.527 59.016 148.817 58.512L151.175 55.452ZM45.0585 83.554V80.566H42.5565V83.554H39.2805L43.4565 75.4H40.7925L36.5985 83.554V85.858H42.5565V88H45.0585V85.858H46.4085V83.554H45.0585ZM55.6757 83.554V80.566H53.1737V83.554H49.8977L54.0737 75.4H51.4097L47.2157 83.554V85.858H53.1737V88H55.6757V85.858H57.0257V83.554H55.6757ZM66.4675 79.522C66.4675 78.226 66.0355 77.182 65.1895 76.372C64.3435 75.562 63.2455 75.148 61.8955 75.148C60.5455 75.148 59.4475 75.562 58.6015 76.372C57.7555 77.182 57.3415 78.244 57.3415 79.522C57.3415 80.8 57.7555 81.844 58.5655 82.654C59.3935 83.464 60.4555 83.878 61.7695 83.896L58.9615 88H61.8055L65.7295 82.078H65.7115C66.2155 81.34 66.4675 80.494 66.4675 79.522ZM59.8075 79.522C59.8075 78.298 60.7255 77.488 61.8955 77.488C63.1195 77.488 64.0015 78.28 64.0015 79.522C64.0015 80.764 63.1195 81.574 61.8955 81.574C60.7255 81.574 59.8075 80.764 59.8075 79.522ZM75.5055 88V85.606H70.7715L73.2375 83.14C74.6235 81.754 75.3075 80.422 75.3075 79.108C75.3075 77.902 74.8935 76.93 74.0835 76.228C73.2735 75.508 72.2835 75.148 71.1495 75.148C69.3675 75.148 67.7835 76.084 66.9915 77.812L69.0795 79.036C69.5295 78.046 70.2315 77.56 71.1855 77.56C72.1395 77.56 72.8235 78.208 72.8235 79.198C72.8235 79.864 72.3375 80.71 71.3835 81.718L67.0815 86.146V88H75.5055ZM80.892 75.4V77.776H84.276V88H86.76V77.776H90.162V75.4H80.892ZM98.5539 84.454C98.6079 84.112 98.6439 83.806 98.6439 83.5C98.6439 82.15 98.2119 81.034 97.3479 80.116C96.5019 79.198 95.4039 78.748 94.0899 78.748C92.7039 78.748 91.5519 79.198 90.6699 80.116C89.7879 81.016 89.3379 82.15 89.3379 83.5C89.3379 84.868 89.7879 86.002 90.6879 86.902C91.5879 87.802 92.7759 88.252 94.2699 88.252C95.9979 88.252 97.3119 87.604 98.1939 86.326L96.3219 85.246C95.8719 85.84 95.1879 86.146 94.3059 86.146C92.9199 86.146 92.0739 85.588 91.7679 84.454H98.5539ZM91.7319 82.654C92.0019 81.502 92.8479 80.836 94.0899 80.836C95.1519 80.836 96.0519 81.43 96.3219 82.654H91.7319ZM104.479 88.252C106.225 88.252 107.755 87.334 108.547 85.912L106.531 84.76C106.171 85.498 105.397 85.948 104.461 85.948C103.759 85.948 103.183 85.714 102.733 85.264C102.283 84.796 102.049 84.202 102.049 83.5C102.049 82.06 103.075 81.034 104.461 81.034C105.379 81.034 106.153 81.502 106.513 82.24L108.511 81.07C107.773 79.648 106.225 78.748 104.479 78.748C103.129 78.748 101.995 79.198 101.077 80.116C100.177 81.034 99.7266 82.15 99.7266 83.5C99.7266 84.85 100.177 85.966 101.077 86.884C101.995 87.802 103.129 88.252 104.479 88.252ZM114.347 83.446L117.965 79H115.193L112.097 82.96V75.4H109.775V88H112.097V83.914L115.373 88H118.073L114.347 83.446ZM124.236 78.748C123.012 78.748 122.112 79.162 121.554 80.008V79H119.232V88H121.554V83.14C121.554 81.646 122.328 80.908 123.534 80.908C124.614 80.908 125.316 81.556 125.316 82.762V88H127.638V82.474C127.638 81.304 127.314 80.404 126.666 79.738C126.036 79.072 125.226 78.748 124.236 78.748ZM136.46 80.062C135.758 79.18 134.786 78.748 133.526 78.748C132.32 78.748 131.294 79.216 130.43 80.134C129.584 81.052 129.152 82.168 129.152 83.5C129.152 84.832 129.584 85.966 130.43 86.884C131.294 87.802 132.32 88.252 133.526 88.252C134.786 88.252 135.758 87.82 136.46 86.938V88H138.782V79H136.46V80.062ZM132.176 85.336C131.708 84.85 131.474 84.238 131.474 83.5C131.474 82.762 131.708 82.15 132.176 81.682C132.644 81.196 133.238 80.962 133.958 80.962C134.678 80.962 135.272 81.196 135.74 81.682C136.226 82.15 136.46 82.762 136.46 83.5C136.46 84.238 136.226 84.85 135.74 85.336C135.272 85.804 134.678 86.038 133.958 86.038C133.238 86.038 132.644 85.804 132.176 85.336ZM146.828 83.86C146.828 85.354 146.054 86.092 144.848 86.092C143.768 86.092 143.066 85.444 143.066 84.238V79H140.744V84.526C140.744 85.696 141.068 86.596 141.698 87.262C142.346 87.928 143.156 88.252 144.146 88.252C145.37 88.252 146.27 87.838 146.828 86.992V88H149.15V79H146.828V83.86Z" fill="white"/>
<g clip-path="url(#clip0_962_1342)">
<path d="M102 26.0903C102 33.0903 93 39.0903 93 39.0903C93 39.0903 84 33.0903 84 26.0903C84 23.7034 84.9482 21.4142 86.636 19.7264C88.3239 18.0385 90.6131 17.0903 93 17.0903C95.3869 17.0903 97.6761 18.0385 99.364 19.7264C101.052 21.4142 102 23.7034 102 26.0903Z" stroke="white" stroke-width="2" stroke-linecap="round" stroke-linejoin="round"/>
<path d="M93 29.0903C94.6569 29.0903 96 27.7472 96 26.0903C96 24.4335 94.6569 23.0903 93 23.0903C91.3431 23.0903 90 24.4335 90 26.0903C90 27.7472 91.3431 29.0903 93 29.0903Z" stroke="white" stroke-width="2" stroke-linecap="round" stroke-linejoin="round"/>
</g>
<defs>
<clipPath id="clip0_962_1342">
<rect width="24" height="24" fill="white" transform="translate(81 16.0903)"/>
</clipPath>
</defs>
</svg>
