<svg width="342" height="123" viewBox="0 0 342 123" fill="none" xmlns="http://www.w3.org/2000/svg">
<path d="M156.782 0H341.218V122.235H156.782H135L156.782 106.5V0Z" fill="#C4AA79"/>
<path d="M197.164 62.4683V64.6643H200.98C200.53 66.1583 199.234 67.0583 197.308 67.0583C196.012 67.0583 194.968 66.6803 194.176 65.9063C193.402 65.1323 193.006 64.1423 193.006 62.9543C193.006 61.7483 193.384 60.7583 194.158 59.9843C194.932 59.1923 195.922 58.7963 197.128 58.7963C198.622 58.7963 199.918 59.5163 200.512 60.5423L202.636 59.3183C201.556 57.5363 199.504 56.3843 197.146 56.3843C195.274 56.3843 193.708 57.0143 192.43 58.2923C191.17 59.5703 190.54 61.1183 190.54 62.9543C190.54 64.7723 191.17 66.3203 192.448 67.5983C193.726 68.8583 195.346 69.4883 197.29 69.4883C199.108 69.4883 200.602 68.9303 201.754 67.8143C202.906 66.6983 203.482 65.2403 203.482 63.4403V62.4683H197.164ZM208.777 59.0123C209.263 58.5263 209.263 57.7703 208.777 57.2843C208.327 56.7983 207.553 56.7983 207.067 57.2843C206.581 57.7703 206.581 58.5263 207.067 59.0123C207.553 59.4623 208.327 59.4623 208.777 59.0123ZM212.197 59.0123C212.683 58.5263 212.683 57.7703 212.197 57.2843C211.747 56.7983 210.973 56.7983 210.487 57.2843C210.001 57.7703 210.001 58.5263 210.487 59.0123C210.973 59.4623 211.747 59.4623 212.197 59.0123ZM211.981 61.2983C211.279 60.4163 210.307 59.9843 209.047 59.9843C207.841 59.9843 206.815 60.4523 205.951 61.3703C205.105 62.2883 204.673 63.4043 204.673 64.7363C204.673 66.0683 205.105 67.2023 205.951 68.1203C206.815 69.0383 207.841 69.4883 209.047 69.4883C210.307 69.4883 211.279 69.0563 211.981 68.1743V69.2363H214.303V60.2363H211.981V61.2983ZM207.697 66.5723C207.229 66.0863 206.995 65.4743 206.995 64.7363C206.995 63.9983 207.229 63.3863 207.697 62.9183C208.165 62.4323 208.759 62.1983 209.479 62.1983C210.199 62.1983 210.793 62.4323 211.261 62.9183C211.747 63.3863 211.981 63.9983 211.981 64.7363C211.981 65.4743 211.747 66.0863 211.261 66.5723C210.793 67.0403 210.199 67.2743 209.479 67.2743C208.759 67.2743 208.165 67.0403 207.697 66.5723ZM218.48 62.7923C218.48 62.3423 218.93 62.0543 219.524 62.0543C220.19 62.0543 220.676 62.3603 220.964 62.9723L222.944 61.8923C222.242 60.6683 220.982 59.9843 219.524 59.9843C218.552 59.9843 217.742 60.2363 217.076 60.7583C216.428 61.2623 216.104 61.9643 216.104 62.8463C216.104 64.7183 217.778 65.2763 219.11 65.6183C220.028 65.8523 220.748 66.1223 220.748 66.6083C220.748 67.1303 220.334 67.3823 219.506 67.3823C218.588 67.3823 218.012 66.9863 217.742 66.2123L215.726 67.3463C216.392 68.7683 217.652 69.4883 219.506 69.4883C220.532 69.4883 221.396 69.2363 222.08 68.7503C222.782 68.2463 223.124 67.5263 223.124 66.6083C223.142 64.6823 221.432 64.0523 220.118 63.7823C219.2 63.5483 218.48 63.2783 218.48 62.7923ZM226.285 62.7923C226.285 62.3423 226.735 62.0543 227.329 62.0543C227.995 62.0543 228.481 62.3603 228.769 62.9723L230.749 61.8923C230.047 60.6683 228.787 59.9843 227.329 59.9843C226.357 59.9843 225.547 60.2363 224.881 60.7583C224.233 61.2623 223.909 61.9643 223.909 62.8463C223.909 64.7183 225.583 65.2763 226.915 65.6183C227.833 65.8523 228.553 66.1223 228.553 66.6083C228.553 67.1303 228.139 67.3823 227.311 67.3823C226.393 67.3823 225.817 66.9863 225.547 66.2123L223.531 67.3463C224.197 68.7683 225.457 69.4883 227.311 69.4883C228.337 69.4883 229.201 69.2363 229.885 68.7503C230.587 68.2463 230.929 67.5263 230.929 66.6083C230.947 64.6823 229.237 64.0523 227.923 63.7823C227.005 63.5483 226.285 63.2783 226.285 62.7923ZM234.744 69.2363V56.0963H232.422V69.2363H234.744ZM238.022 59.1563C238.814 59.1563 239.462 58.5083 239.462 57.7343C239.462 56.9603 238.814 56.2943 238.022 56.2943C237.248 56.2943 236.6 56.9603 236.6 57.7343C236.6 58.5083 237.248 59.1563 238.022 59.1563ZM239.192 69.2363V60.2363H236.87V69.2363H239.192ZM248.157 61.2983C247.455 60.4163 246.483 59.9843 245.223 59.9843C244.017 59.9843 242.991 60.4523 242.127 61.3703C241.281 62.2883 240.849 63.4043 240.849 64.7363C240.849 66.0683 241.281 67.2023 242.127 68.1203C242.991 69.0383 244.017 69.4883 245.223 69.4883C246.483 69.4883 247.455 69.0563 248.157 68.1743V69.2363H250.479V60.2363H248.157V61.2983ZM243.873 66.5723C243.405 66.0863 243.171 65.4743 243.171 64.7363C243.171 63.9983 243.405 63.3863 243.873 62.9183C244.341 62.4323 244.935 62.1983 245.655 62.1983C246.375 62.1983 246.969 62.4323 247.437 62.9183C247.923 63.3863 248.157 63.9983 248.157 64.7363C248.157 65.4743 247.923 66.0863 247.437 66.5723C246.969 67.0403 246.375 67.2743 245.655 67.2743C244.935 67.2743 244.341 67.0403 243.873 66.5723ZM256.868 69.4883C258.614 69.4883 260.144 68.5703 260.936 67.1483L258.92 65.9963C258.56 66.7343 257.786 67.1843 256.85 67.1843C256.148 67.1843 255.572 66.9503 255.122 66.5003C254.672 66.0323 254.438 65.4383 254.438 64.7363C254.438 63.2963 255.464 62.2703 256.85 62.2703C257.768 62.2703 258.542 62.7383 258.902 63.4763L260.9 62.3063C260.162 60.8843 258.614 59.9843 256.868 59.9843C255.518 59.9843 254.384 60.4343 253.466 61.3523C252.566 62.2703 252.116 63.3863 252.116 64.7363C252.116 66.0863 252.566 67.2023 253.466 68.1203C254.384 69.0383 255.518 69.4883 256.868 69.4883ZM266.737 64.6823L270.355 60.2363H267.583L264.487 64.1963V56.6363H262.165V69.2363H264.487V65.1503L267.763 69.2363H270.463L266.737 64.6823ZM279.719 65.6903C279.773 65.3483 279.809 65.0423 279.809 64.7363C279.809 63.3863 279.377 62.2703 278.513 61.3523C277.667 60.4343 276.569 59.9843 275.255 59.9843C273.869 59.9843 272.717 60.4343 271.835 61.3523C270.953 62.2523 270.503 63.3863 270.503 64.7363C270.503 66.1043 270.953 67.2383 271.853 68.1383C272.753 69.0383 273.941 69.4883 275.435 69.4883C277.163 69.4883 278.477 68.8403 279.359 67.5623L277.487 66.4823C277.037 67.0763 276.353 67.3823 275.471 67.3823C274.085 67.3823 273.239 66.8243 272.933 65.6903H279.719ZM272.897 63.8903C273.167 62.7383 274.013 62.0723 275.255 62.0723C276.317 62.0723 277.217 62.6663 277.487 63.8903H272.897ZM283.752 60.2363H281.43V69.2363H283.752V64.9343C283.752 64.0703 284.022 63.4583 284.58 63.0803C285.138 62.7023 285.786 62.5583 286.488 62.6483V60.0563C285.264 60.0563 284.184 60.6323 283.752 61.7843V60.2363ZM291.482 57.8063L292.094 59.9303L294.47 59.2643V69.2363H296.954V56.6363H294.794L291.482 57.8063ZM306.957 58.6883V56.6363H299.037V58.9583H303.969L301.485 62.1983L302.439 63.6383H302.979C304.257 63.6383 304.995 64.3223 304.995 65.3483C304.995 66.4103 304.257 67.0583 302.979 67.0583C301.827 67.0583 301.089 66.5723 300.783 65.6003L298.659 66.8243C299.361 68.5703 301.017 69.4883 302.979 69.4883C304.239 69.4883 305.301 69.1283 306.165 68.3903C307.047 67.6523 307.479 66.6443 307.479 65.3483C307.479 63.5663 306.309 62.2523 304.599 61.7483L306.957 58.6883ZM200.841 86.7903V83.8023H198.339V86.7903H195.063L199.239 78.6363H196.575L192.381 86.7903V89.0943H198.339V91.2363H200.841V89.0943H202.191V86.7903H200.841ZM211.458 86.7903V83.8023H208.956V86.7903H205.68L209.856 78.6363H207.192L202.998 86.7903V89.0943H208.956V91.2363H211.458V89.0943H212.808V86.7903H211.458ZM222.25 82.7583C222.25 81.4623 221.818 80.4183 220.972 79.6083C220.126 78.7983 219.028 78.3843 217.678 78.3843C216.328 78.3843 215.23 78.7983 214.384 79.6083C213.538 80.4183 213.124 81.4803 213.124 82.7583C213.124 84.0363 213.538 85.0803 214.348 85.8903C215.176 86.7003 216.238 87.1143 217.552 87.1323L214.744 91.2363H217.588L221.512 85.3143H221.494C221.998 84.5763 222.25 83.7303 222.25 82.7583ZM215.59 82.7583C215.59 81.5343 216.508 80.7243 217.678 80.7243C218.902 80.7243 219.784 81.5163 219.784 82.7583C219.784 84.0003 218.902 84.8103 217.678 84.8103C216.508 84.8103 215.59 84.0003 215.59 82.7583ZM231.288 91.2363V88.8423H226.554L229.02 86.3763C230.406 84.9903 231.09 83.6583 231.09 82.3443C231.09 81.1383 230.676 80.1663 229.866 79.4643C229.056 78.7443 228.066 78.3843 226.932 78.3843C225.15 78.3843 223.566 79.3203 222.774 81.0483L224.862 82.2723C225.312 81.2823 226.014 80.7963 226.968 80.7963C227.922 80.7963 228.606 81.4443 228.606 82.4343C228.606 83.1003 228.12 83.9463 227.166 84.9543L222.864 89.3823V91.2363H231.288ZM236.674 78.6363V81.0123H240.058V91.2363H242.542V81.0123H245.944V78.6363H236.674ZM254.336 87.6903C254.39 87.3483 254.426 87.0423 254.426 86.7363C254.426 85.3863 253.994 84.2703 253.13 83.3523C252.284 82.4343 251.186 81.9843 249.872 81.9843C248.486 81.9843 247.334 82.4343 246.452 83.3523C245.57 84.2523 245.12 85.3863 245.12 86.7363C245.12 88.1043 245.57 89.2383 246.47 90.1383C247.37 91.0383 248.558 91.4883 250.052 91.4883C251.78 91.4883 253.094 90.8403 253.976 89.5623L252.104 88.4823C251.654 89.0763 250.97 89.3823 250.088 89.3823C248.702 89.3823 247.856 88.8243 247.55 87.6903H254.336ZM247.514 85.8903C247.784 84.7383 248.63 84.0723 249.872 84.0723C250.934 84.0723 251.834 84.6663 252.104 85.8903H247.514ZM260.261 91.4883C262.007 91.4883 263.537 90.5703 264.329 89.1483L262.313 87.9963C261.953 88.7343 261.179 89.1843 260.243 89.1843C259.541 89.1843 258.965 88.9503 258.515 88.5003C258.065 88.0323 257.831 87.4383 257.831 86.7363C257.831 85.2963 258.857 84.2703 260.243 84.2703C261.161 84.2703 261.935 84.7383 262.295 85.4763L264.293 84.3063C263.555 82.8843 262.007 81.9843 260.261 81.9843C258.911 81.9843 257.777 82.4343 256.859 83.3523C255.959 84.2703 255.509 85.3863 255.509 86.7363C255.509 88.0863 255.959 89.2023 256.859 90.1203C257.777 91.0383 258.911 91.4883 260.261 91.4883ZM270.129 86.6823L273.747 82.2363H270.975L267.879 86.1963V78.6363H265.557V91.2363H267.879V87.1503L271.155 91.2363H273.855L270.129 86.6823ZM280.018 81.9843C278.794 81.9843 277.894 82.3983 277.336 83.2443V82.2363H275.014V91.2363H277.336V86.3763C277.336 84.8823 278.11 84.1443 279.316 84.1443C280.396 84.1443 281.098 84.7923 281.098 85.9983V91.2363H283.42V85.7103C283.42 84.5403 283.096 83.6403 282.448 82.9743C281.818 82.3083 281.008 81.9843 280.018 81.9843ZM292.243 83.2983C291.541 82.4163 290.569 81.9843 289.309 81.9843C288.103 81.9843 287.077 82.4523 286.213 83.3703C285.367 84.2883 284.935 85.4043 284.935 86.7363C284.935 88.0683 285.367 89.2023 286.213 90.1203C287.077 91.0383 288.103 91.4883 289.309 91.4883C290.569 91.4883 291.541 91.0563 292.243 90.1743V91.2363H294.565V82.2363H292.243V83.2983ZM287.959 88.5723C287.491 88.0863 287.257 87.4743 287.257 86.7363C287.257 85.9983 287.491 85.3863 287.959 84.9183C288.427 84.4323 289.021 84.1983 289.741 84.1983C290.461 84.1983 291.055 84.4323 291.523 84.9183C292.009 85.3863 292.243 85.9983 292.243 86.7363C292.243 87.4743 292.009 88.0863 291.523 88.5723C291.055 89.0403 290.461 89.2743 289.741 89.2743C289.021 89.2743 288.427 89.0403 287.959 88.5723ZM302.61 87.0963C302.61 88.5903 301.836 89.3283 300.63 89.3283C299.55 89.3283 298.848 88.6803 298.848 87.4743V82.2363H296.526V87.7623C296.526 88.9323 296.85 89.8323 297.48 90.4983C298.128 91.1643 298.938 91.4883 299.928 91.4883C301.152 91.4883 302.052 91.0743 302.61 90.2283V91.2363H304.932V82.2363H302.61V87.0963Z" fill="white"/>
<g clip-path="url(#clip0_1494_1134)">
<path d="M258 26.0903C258 33.0903 249 39.0903 249 39.0903C249 39.0903 240 33.0903 240 26.0903C240 23.7034 240.948 21.4142 242.636 19.7264C244.324 18.0385 246.613 17.0903 249 17.0903C251.387 17.0903 253.676 18.0385 255.364 19.7264C257.052 21.4142 258 23.7034 258 26.0903Z" stroke="white" stroke-width="2" stroke-linecap="round" stroke-linejoin="round"/>
<path d="M249 29.0903C250.657 29.0903 252 27.7472 252 26.0903C252 24.4335 250.657 23.0903 249 23.0903C247.343 23.0903 246 24.4335 246 26.0903C246 27.7472 247.343 29.0903 249 29.0903Z" stroke="white" stroke-width="2" stroke-linecap="round" stroke-linejoin="round"/>
</g>
<defs>
<clipPath id="clip0_1494_1134">
<rect width="24" height="24" fill="white" transform="translate(237 16.0903)"/>
</clipPath>
</defs>
</svg>
