<svg width="206" height="123" viewBox="0 0 206 123" fill="none" xmlns="http://www.w3.org/2000/svg">
<path d="M20.7825 0H205.218V122.235H20.7825V73.5L0.5 61L20.7825 47V0Z" fill="#C4AA79"/>
<path d="M61.1643 62.4683V64.6643H64.9803C64.5303 66.1583 63.2343 67.0583 61.3083 67.0583C60.0123 67.0583 58.9683 66.6803 58.1763 65.9063C57.4023 65.1323 57.0063 64.1423 57.0063 62.9543C57.0063 61.7483 57.3843 60.7583 58.1583 59.9843C58.9323 59.1923 59.9223 58.7963 61.1283 58.7963C62.6223 58.7963 63.9183 59.5163 64.5123 60.5423L66.6363 59.3183C65.5563 57.5363 63.5043 56.3843 61.1463 56.3843C59.2743 56.3843 57.7083 57.0143 56.4303 58.2923C55.1703 59.5703 54.5403 61.1183 54.5403 62.9543C54.5403 64.7723 55.1703 66.3203 56.4483 67.5983C57.7263 68.8583 59.3463 69.4883 61.2903 69.4883C63.1083 69.4883 64.6023 68.9303 65.7543 67.8143C66.9063 66.6983 67.4823 65.2403 67.4823 63.4403V62.4683H61.1643ZM72.7771 59.0123C73.2631 58.5263 73.2631 57.7703 72.7771 57.2843C72.3271 56.7983 71.5531 56.7983 71.0671 57.2843C70.5811 57.7703 70.5811 58.5263 71.0671 59.0123C71.5531 59.4623 72.3271 59.4623 72.7771 59.0123ZM76.1971 59.0123C76.6831 58.5263 76.6831 57.7703 76.1971 57.2843C75.7471 56.7983 74.9731 56.7983 74.4871 57.2843C74.0011 57.7703 74.0011 58.5263 74.4871 59.0123C74.9731 59.4623 75.7471 59.4623 76.1971 59.0123ZM75.9811 61.2983C75.2791 60.4163 74.3071 59.9843 73.0471 59.9843C71.8411 59.9843 70.8151 60.4523 69.9511 61.3703C69.1051 62.2883 68.6731 63.4043 68.6731 64.7363C68.6731 66.0683 69.1051 67.2023 69.9511 68.1203C70.8151 69.0383 71.8411 69.4883 73.0471 69.4883C74.3071 69.4883 75.2791 69.0563 75.9811 68.1743V69.2363H78.3031V60.2363H75.9811V61.2983ZM71.6971 66.5723C71.2291 66.0863 70.9951 65.4743 70.9951 64.7363C70.9951 63.9983 71.2291 63.3863 71.6971 62.9183C72.1651 62.4323 72.7591 62.1983 73.4791 62.1983C74.1991 62.1983 74.7931 62.4323 75.2611 62.9183C75.7471 63.3863 75.9811 63.9983 75.9811 64.7363C75.9811 65.4743 75.7471 66.0863 75.2611 66.5723C74.7931 67.0403 74.1991 67.2743 73.4791 67.2743C72.7591 67.2743 72.1651 67.0403 71.6971 66.5723ZM82.4804 62.7923C82.4804 62.3423 82.9304 62.0543 83.5244 62.0543C84.1904 62.0543 84.6764 62.3603 84.9644 62.9723L86.9444 61.8923C86.2424 60.6683 84.9824 59.9843 83.5244 59.9843C82.5524 59.9843 81.7424 60.2363 81.0764 60.7583C80.4284 61.2623 80.1044 61.9643 80.1044 62.8463C80.1044 64.7183 81.7784 65.2763 83.1104 65.6183C84.0284 65.8523 84.7484 66.1223 84.7484 66.6083C84.7484 67.1303 84.3344 67.3823 83.5064 67.3823C82.5884 67.3823 82.0124 66.9863 81.7424 66.2123L79.7264 67.3463C80.3924 68.7683 81.6524 69.4883 83.5064 69.4883C84.5324 69.4883 85.3964 69.2363 86.0804 68.7503C86.7824 68.2463 87.1244 67.5263 87.1244 66.6083C87.1424 64.6823 85.4324 64.0523 84.1184 63.7823C83.2004 63.5483 82.4804 63.2783 82.4804 62.7923ZM90.2851 62.7923C90.2851 62.3423 90.7351 62.0543 91.3291 62.0543C91.9951 62.0543 92.4811 62.3603 92.7691 62.9723L94.7491 61.8923C94.0471 60.6683 92.7871 59.9843 91.3291 59.9843C90.3571 59.9843 89.5471 60.2363 88.8811 60.7583C88.2331 61.2623 87.9091 61.9643 87.9091 62.8463C87.9091 64.7183 89.5831 65.2763 90.9151 65.6183C91.8331 65.8523 92.5531 66.1223 92.5531 66.6083C92.5531 67.1303 92.1391 67.3823 91.3111 67.3823C90.3931 67.3823 89.8171 66.9863 89.5471 66.2123L87.5311 67.3463C88.1971 68.7683 89.4571 69.4883 91.3111 69.4883C92.3371 69.4883 93.2011 69.2363 93.8851 68.7503C94.5871 68.2463 94.9291 67.5263 94.9291 66.6083C94.9471 64.6823 93.2371 64.0523 91.9231 63.7823C91.0051 63.5483 90.2851 63.2783 90.2851 62.7923ZM98.7444 69.2363V56.0963H96.4224V69.2363H98.7444ZM102.022 59.1563C102.814 59.1563 103.462 58.5083 103.462 57.7343C103.462 56.9603 102.814 56.2943 102.022 56.2943C101.248 56.2943 100.6 56.9603 100.6 57.7343C100.6 58.5083 101.248 59.1563 102.022 59.1563ZM103.192 69.2363V60.2363H100.87V69.2363H103.192ZM112.157 61.2983C111.455 60.4163 110.483 59.9843 109.223 59.9843C108.017 59.9843 106.991 60.4523 106.127 61.3703C105.281 62.2883 104.849 63.4043 104.849 64.7363C104.849 66.0683 105.281 67.2023 106.127 68.1203C106.991 69.0383 108.017 69.4883 109.223 69.4883C110.483 69.4883 111.455 69.0563 112.157 68.1743V69.2363H114.479V60.2363H112.157V61.2983ZM107.873 66.5723C107.405 66.0863 107.171 65.4743 107.171 64.7363C107.171 63.9983 107.405 63.3863 107.873 62.9183C108.341 62.4323 108.935 62.1983 109.655 62.1983C110.375 62.1983 110.969 62.4323 111.437 62.9183C111.923 63.3863 112.157 63.9983 112.157 64.7363C112.157 65.4743 111.923 66.0863 111.437 66.5723C110.969 67.0403 110.375 67.2743 109.655 67.2743C108.935 67.2743 108.341 67.0403 107.873 66.5723ZM120.868 69.4883C122.614 69.4883 124.144 68.5703 124.936 67.1483L122.92 65.9963C122.56 66.7343 121.786 67.1843 120.85 67.1843C120.148 67.1843 119.572 66.9503 119.122 66.5003C118.672 66.0323 118.438 65.4383 118.438 64.7363C118.438 63.2963 119.464 62.2703 120.85 62.2703C121.768 62.2703 122.542 62.7383 122.902 63.4763L124.9 62.3063C124.162 60.8843 122.614 59.9843 120.868 59.9843C119.518 59.9843 118.384 60.4343 117.466 61.3523C116.566 62.2703 116.116 63.3863 116.116 64.7363C116.116 66.0863 116.566 67.2023 117.466 68.1203C118.384 69.0383 119.518 69.4883 120.868 69.4883ZM130.737 64.6823L134.355 60.2363H131.583L128.487 64.1963V56.6363H126.165V69.2363H128.487V65.1503L131.763 69.2363H134.463L130.737 64.6823ZM143.719 65.6903C143.773 65.3483 143.809 65.0423 143.809 64.7363C143.809 63.3863 143.377 62.2703 142.513 61.3523C141.667 60.4343 140.569 59.9843 139.255 59.9843C137.869 59.9843 136.717 60.4343 135.835 61.3523C134.953 62.2523 134.503 63.3863 134.503 64.7363C134.503 66.1043 134.953 67.2383 135.853 68.1383C136.753 69.0383 137.941 69.4883 139.435 69.4883C141.163 69.4883 142.477 68.8403 143.359 67.5623L141.487 66.4823C141.037 67.0763 140.353 67.3823 139.471 67.3823C138.085 67.3823 137.239 66.8243 136.933 65.6903H143.719ZM136.897 63.8903C137.167 62.7383 138.013 62.0723 139.255 62.0723C140.317 62.0723 141.217 62.6663 141.487 63.8903H136.897ZM147.752 60.2363H145.43V69.2363H147.752V64.9343C147.752 64.0703 148.022 63.4583 148.58 63.0803C149.138 62.7023 149.786 62.5583 150.488 62.6483V60.0563C149.264 60.0563 148.184 60.6323 147.752 61.7843V60.2363ZM155.482 57.8063L156.094 59.9303L158.47 59.2643V69.2363H160.954V56.6363H158.794L155.482 57.8063ZM170.957 58.6883V56.6363H163.037V58.9583H167.969L165.485 62.1983L166.439 63.6383H166.979C168.257 63.6383 168.995 64.3223 168.995 65.3483C168.995 66.4103 168.257 67.0583 166.979 67.0583C165.827 67.0583 165.089 66.5723 164.783 65.6003L162.659 66.8243C163.361 68.5703 165.017 69.4883 166.979 69.4883C168.239 69.4883 169.301 69.1283 170.165 68.3903C171.047 67.6523 171.479 66.6443 171.479 65.3483C171.479 63.5663 170.309 62.2523 168.599 61.7483L170.957 58.6883ZM64.8409 86.7903V83.8023H62.3389V86.7903H59.0629L63.2389 78.6363H60.5749L56.3809 86.7903V89.0943H62.3389V91.2363H64.8409V89.0943H66.1909V86.7903H64.8409ZM75.4581 86.7903V83.8023H72.9561V86.7903H69.6801L73.8561 78.6363H71.1921L66.9981 86.7903V89.0943H72.9561V91.2363H75.4581V89.0943H76.8081V86.7903H75.4581ZM86.25 82.7583C86.25 81.4623 85.818 80.4183 84.972 79.6083C84.126 78.7983 83.028 78.3843 81.678 78.3843C80.328 78.3843 79.23 78.7983 78.384 79.6083C77.538 80.4183 77.124 81.4803 77.124 82.7583C77.124 84.0363 77.538 85.0803 78.348 85.8903C79.176 86.7003 80.238 87.1143 81.552 87.1323L78.744 91.2363H81.588L85.512 85.3143H85.494C85.998 84.5763 86.25 83.7303 86.25 82.7583ZM79.59 82.7583C79.59 81.5343 80.508 80.7243 81.678 80.7243C82.902 80.7243 83.784 81.5163 83.784 82.7583C83.784 84.0003 82.902 84.8103 81.678 84.8103C80.508 84.8103 79.59 84.0003 79.59 82.7583ZM95.2879 91.2363V88.8423H90.5539L93.0199 86.3763C94.4059 84.9903 95.0899 83.6583 95.0899 82.3443C95.0899 81.1383 94.6759 80.1663 93.8659 79.4643C93.0559 78.7443 92.0659 78.3843 90.9319 78.3843C89.1499 78.3843 87.5659 79.3203 86.7739 81.0483L88.8619 82.2723C89.3119 81.2823 90.0139 80.7963 90.9679 80.7963C91.9219 80.7963 92.6059 81.4443 92.6059 82.4343C92.6059 83.1003 92.1199 83.9463 91.1659 84.9543L86.8639 89.3823V91.2363H95.2879ZM100.674 78.6363V81.0123H104.058V91.2363H106.542V81.0123H109.944V78.6363H100.674ZM118.336 87.6903C118.39 87.3483 118.426 87.0423 118.426 86.7363C118.426 85.3863 117.994 84.2703 117.13 83.3523C116.284 82.4343 115.186 81.9843 113.872 81.9843C112.486 81.9843 111.334 82.4343 110.452 83.3523C109.57 84.2523 109.12 85.3863 109.12 86.7363C109.12 88.1043 109.57 89.2383 110.47 90.1383C111.37 91.0383 112.558 91.4883 114.052 91.4883C115.78 91.4883 117.094 90.8403 117.976 89.5623L116.104 88.4823C115.654 89.0763 114.97 89.3823 114.088 89.3823C112.702 89.3823 111.856 88.8243 111.55 87.6903H118.336ZM111.514 85.8903C111.784 84.7383 112.63 84.0723 113.872 84.0723C114.934 84.0723 115.834 84.6663 116.104 85.8903H111.514ZM124.261 91.4883C126.007 91.4883 127.537 90.5703 128.329 89.1483L126.313 87.9963C125.953 88.7343 125.179 89.1843 124.243 89.1843C123.541 89.1843 122.965 88.9503 122.515 88.5003C122.065 88.0323 121.831 87.4383 121.831 86.7363C121.831 85.2963 122.857 84.2703 124.243 84.2703C125.161 84.2703 125.935 84.7383 126.295 85.4763L128.293 84.3063C127.555 82.8843 126.007 81.9843 124.261 81.9843C122.911 81.9843 121.777 82.4343 120.859 83.3523C119.959 84.2703 119.509 85.3863 119.509 86.7363C119.509 88.0863 119.959 89.2023 120.859 90.1203C121.777 91.0383 122.911 91.4883 124.261 91.4883ZM134.129 86.6823L137.747 82.2363H134.975L131.879 86.1963V78.6363H129.557V91.2363H131.879V87.1503L135.155 91.2363H137.855L134.129 86.6823ZM144.018 81.9843C142.794 81.9843 141.894 82.3983 141.336 83.2443V82.2363H139.014V91.2363H141.336V86.3763C141.336 84.8823 142.11 84.1443 143.316 84.1443C144.396 84.1443 145.098 84.7923 145.098 85.9983V91.2363H147.42V85.7103C147.42 84.5403 147.096 83.6403 146.448 82.9743C145.818 82.3083 145.008 81.9843 144.018 81.9843ZM156.243 83.2983C155.541 82.4163 154.569 81.9843 153.309 81.9843C152.103 81.9843 151.077 82.4523 150.213 83.3703C149.367 84.2883 148.935 85.4043 148.935 86.7363C148.935 88.0683 149.367 89.2023 150.213 90.1203C151.077 91.0383 152.103 91.4883 153.309 91.4883C154.569 91.4883 155.541 91.0563 156.243 90.1743V91.2363H158.565V82.2363H156.243V83.2983ZM151.959 88.5723C151.491 88.0863 151.257 87.4743 151.257 86.7363C151.257 85.9983 151.491 85.3863 151.959 84.9183C152.427 84.4323 153.021 84.1983 153.741 84.1983C154.461 84.1983 155.055 84.4323 155.523 84.9183C156.009 85.3863 156.243 85.9983 156.243 86.7363C156.243 87.4743 156.009 88.0863 155.523 88.5723C155.055 89.0403 154.461 89.2743 153.741 89.2743C153.021 89.2743 152.427 89.0403 151.959 88.5723ZM166.61 87.0963C166.61 88.5903 165.836 89.3283 164.63 89.3283C163.55 89.3283 162.848 88.6803 162.848 87.4743V82.2363H160.526V87.7623C160.526 88.9323 160.85 89.8323 161.48 90.4983C162.128 91.1643 162.938 91.4883 163.928 91.4883C165.152 91.4883 166.052 91.0743 166.61 90.2283V91.2363H168.932V82.2363H166.61V87.0963Z" fill="white"/>
<g clip-path="url(#clip0_1493_1131)">
<path d="M122 26.0903C122 33.0903 113 39.0903 113 39.0903C113 39.0903 104 33.0903 104 26.0903C104 23.7034 104.948 21.4142 106.636 19.7264C108.324 18.0385 110.613 17.0903 113 17.0903C115.387 17.0903 117.676 18.0385 119.364 19.7264C121.052 21.4142 122 23.7034 122 26.0903Z" stroke="white" stroke-width="2" stroke-linecap="round" stroke-linejoin="round"/>
<path d="M113 29.0903C114.657 29.0903 116 27.7472 116 26.0903C116 24.4335 114.657 23.0903 113 23.0903C111.343 23.0903 110 24.4335 110 26.0903C110 27.7472 111.343 29.0903 113 29.0903Z" stroke="white" stroke-width="2" stroke-linecap="round" stroke-linejoin="round"/>
</g>
<defs>
<clipPath id="clip0_1493_1131">
<rect width="24" height="24" fill="white" transform="translate(101 16.0903)"/>
</clipPath>
</defs>
</svg>
