<svg width="186" height="139" viewBox="0 0 186 139" fill="none" xmlns="http://www.w3.org/2000/svg">
<path d="M0.782471 0H185.218V122.235H104.747L92.4924 138.473L80.2376 122.235H0.782471V0Z" fill="#C4AA79"/>
<path d="M41.1643 62.4683V64.6643H44.9803C44.5303 66.1583 43.2343 67.0583 41.3083 67.0583C40.0123 67.0583 38.9683 66.6803 38.1763 65.9063C37.4023 65.1323 37.0063 64.1423 37.0063 62.9543C37.0063 61.7483 37.3843 60.7583 38.1583 59.9843C38.9323 59.1923 39.9223 58.7963 41.1283 58.7963C42.6223 58.7963 43.9183 59.5163 44.5123 60.5423L46.6363 59.3183C45.5563 57.5363 43.5043 56.3843 41.1463 56.3843C39.2743 56.3843 37.7083 57.0143 36.4303 58.2923C35.1703 59.5703 34.5403 61.1183 34.5403 62.9543C34.5403 64.7723 35.1703 66.3203 36.4483 67.5983C37.7263 68.8583 39.3463 69.4883 41.2903 69.4883C43.1083 69.4883 44.6023 68.9303 45.7543 67.8143C46.9063 66.6983 47.4823 65.2403 47.4823 63.4403V62.4683H41.1643ZM52.7771 59.0123C53.2631 58.5263 53.2631 57.7703 52.7771 57.2843C52.3271 56.7983 51.5531 56.7983 51.0671 57.2843C50.5811 57.7703 50.5811 58.5263 51.0671 59.0123C51.5531 59.4623 52.3271 59.4623 52.7771 59.0123ZM56.1971 59.0123C56.6831 58.5263 56.6831 57.7703 56.1971 57.2843C55.7471 56.7983 54.9731 56.7983 54.4871 57.2843C54.0011 57.7703 54.0011 58.5263 54.4871 59.0123C54.9731 59.4623 55.7471 59.4623 56.1971 59.0123ZM55.9811 61.2983C55.2791 60.4163 54.3071 59.9843 53.0471 59.9843C51.8411 59.9843 50.8151 60.4523 49.9511 61.3703C49.1051 62.2883 48.6731 63.4043 48.6731 64.7363C48.6731 66.0683 49.1051 67.2023 49.9511 68.1203C50.8151 69.0383 51.8411 69.4883 53.0471 69.4883C54.3071 69.4883 55.2791 69.0563 55.9811 68.1743V69.2363H58.3031V60.2363H55.9811V61.2983ZM51.6971 66.5723C51.2291 66.0863 50.9951 65.4743 50.9951 64.7363C50.9951 63.9983 51.2291 63.3863 51.6971 62.9183C52.1651 62.4323 52.7591 62.1983 53.4791 62.1983C54.1991 62.1983 54.7931 62.4323 55.2611 62.9183C55.7471 63.3863 55.9811 63.9983 55.9811 64.7363C55.9811 65.4743 55.7471 66.0863 55.2611 66.5723C54.7931 67.0403 54.1991 67.2743 53.4791 67.2743C52.7591 67.2743 52.1651 67.0403 51.6971 66.5723ZM62.4804 62.7923C62.4804 62.3423 62.9304 62.0543 63.5244 62.0543C64.1904 62.0543 64.6764 62.3603 64.9644 62.9723L66.9444 61.8923C66.2424 60.6683 64.9824 59.9843 63.5244 59.9843C62.5524 59.9843 61.7424 60.2363 61.0764 60.7583C60.4284 61.2623 60.1044 61.9643 60.1044 62.8463C60.1044 64.7183 61.7784 65.2763 63.1104 65.6183C64.0284 65.8523 64.7484 66.1223 64.7484 66.6083C64.7484 67.1303 64.3344 67.3823 63.5064 67.3823C62.5884 67.3823 62.0124 66.9863 61.7424 66.2123L59.7264 67.3463C60.3924 68.7683 61.6524 69.4883 63.5064 69.4883C64.5324 69.4883 65.3964 69.2363 66.0804 68.7503C66.7824 68.2463 67.1244 67.5263 67.1244 66.6083C67.1424 64.6823 65.4324 64.0523 64.1184 63.7823C63.2004 63.5483 62.4804 63.2783 62.4804 62.7923ZM70.2851 62.7923C70.2851 62.3423 70.7351 62.0543 71.3291 62.0543C71.9951 62.0543 72.4811 62.3603 72.7691 62.9723L74.7491 61.8923C74.0471 60.6683 72.7871 59.9843 71.3291 59.9843C70.3571 59.9843 69.5471 60.2363 68.8811 60.7583C68.2331 61.2623 67.9091 61.9643 67.9091 62.8463C67.9091 64.7183 69.5831 65.2763 70.9151 65.6183C71.8331 65.8523 72.5531 66.1223 72.5531 66.6083C72.5531 67.1303 72.1391 67.3823 71.3111 67.3823C70.3931 67.3823 69.8171 66.9863 69.5471 66.2123L67.5311 67.3463C68.1971 68.7683 69.4571 69.4883 71.3111 69.4883C72.3371 69.4883 73.2011 69.2363 73.8851 68.7503C74.5871 68.2463 74.9291 67.5263 74.9291 66.6083C74.9471 64.6823 73.2371 64.0523 71.9231 63.7823C71.0051 63.5483 70.2851 63.2783 70.2851 62.7923ZM78.7444 69.2363V56.0963H76.4224V69.2363H78.7444ZM82.0216 59.1563C82.8136 59.1563 83.4616 58.5083 83.4616 57.7343C83.4616 56.9603 82.8136 56.2943 82.0216 56.2943C81.2476 56.2943 80.5996 56.9603 80.5996 57.7343C80.5996 58.5083 81.2476 59.1563 82.0216 59.1563ZM83.1916 69.2363V60.2363H80.8696V69.2363H83.1916ZM92.1569 61.2983C91.4549 60.4163 90.4829 59.9843 89.2229 59.9843C88.0169 59.9843 86.9909 60.4523 86.1269 61.3703C85.2809 62.2883 84.8489 63.4043 84.8489 64.7363C84.8489 66.0683 85.2809 67.2023 86.1269 68.1203C86.9909 69.0383 88.0169 69.4883 89.2229 69.4883C90.4829 69.4883 91.4549 69.0563 92.1569 68.1743V69.2363H94.4789V60.2363H92.1569V61.2983ZM87.8729 66.5723C87.4049 66.0863 87.1709 65.4743 87.1709 64.7363C87.1709 63.9983 87.4049 63.3863 87.8729 62.9183C88.3409 62.4323 88.9349 62.1983 89.6549 62.1983C90.3749 62.1983 90.9689 62.4323 91.4369 62.9183C91.9229 63.3863 92.1569 63.9983 92.1569 64.7363C92.1569 65.4743 91.9229 66.0863 91.4369 66.5723C90.9689 67.0403 90.3749 67.2743 89.6549 67.2743C88.9349 67.2743 88.3409 67.0403 87.8729 66.5723ZM100.868 69.4883C102.614 69.4883 104.144 68.5703 104.936 67.1483L102.92 65.9963C102.56 66.7343 101.786 67.1843 100.85 67.1843C100.148 67.1843 99.5725 66.9503 99.1225 66.5003C98.6725 66.0323 98.4385 65.4383 98.4385 64.7363C98.4385 63.2963 99.4645 62.2703 100.85 62.2703C101.768 62.2703 102.542 62.7383 102.902 63.4763L104.9 62.3063C104.162 60.8843 102.614 59.9843 100.868 59.9843C99.5185 59.9843 98.3845 60.4343 97.4665 61.3523C96.5665 62.2703 96.1165 63.3863 96.1165 64.7363C96.1165 66.0863 96.5665 67.2023 97.4665 68.1203C98.3845 69.0383 99.5185 69.4883 100.868 69.4883ZM110.737 64.6823L114.355 60.2363H111.583L108.487 64.1963V56.6363H106.165V69.2363H108.487V65.1503L111.763 69.2363H114.463L110.737 64.6823ZM123.719 65.6903C123.773 65.3483 123.809 65.0423 123.809 64.7363C123.809 63.3863 123.377 62.2703 122.513 61.3523C121.667 60.4343 120.569 59.9843 119.255 59.9843C117.869 59.9843 116.717 60.4343 115.835 61.3523C114.953 62.2523 114.503 63.3863 114.503 64.7363C114.503 66.1043 114.953 67.2383 115.853 68.1383C116.753 69.0383 117.941 69.4883 119.435 69.4883C121.163 69.4883 122.477 68.8403 123.359 67.5623L121.487 66.4823C121.037 67.0763 120.353 67.3823 119.471 67.3823C118.085 67.3823 117.239 66.8243 116.933 65.6903H123.719ZM116.897 63.8903C117.167 62.7383 118.013 62.0723 119.255 62.0723C120.317 62.0723 121.217 62.6663 121.487 63.8903H116.897ZM127.752 60.2363H125.43V69.2363H127.752V64.9343C127.752 64.0703 128.022 63.4583 128.58 63.0803C129.138 62.7023 129.786 62.5583 130.488 62.6483V60.0563C129.264 60.0563 128.184 60.6323 127.752 61.7843V60.2363ZM135.482 57.8063L136.094 59.9303L138.47 59.2643V69.2363H140.954V56.6363H138.794L135.482 57.8063ZM150.957 58.6883V56.6363H143.037V58.9583H147.969L145.485 62.1983L146.439 63.6383H146.979C148.257 63.6383 148.995 64.3223 148.995 65.3483C148.995 66.4103 148.257 67.0583 146.979 67.0583C145.827 67.0583 145.089 66.5723 144.783 65.6003L142.659 66.8243C143.361 68.5703 145.017 69.4883 146.979 69.4883C148.239 69.4883 149.301 69.1283 150.165 68.3903C151.047 67.6523 151.479 66.6443 151.479 65.3483C151.479 63.5663 150.309 62.2523 148.599 61.7483L150.957 58.6883ZM44.8409 86.7903V83.8023H42.3389V86.7903H39.0629L43.2389 78.6363H40.5749L36.3809 86.7903V89.0943H42.3389V91.2363H44.8409V89.0943H46.1909V86.7903H44.8409ZM55.4581 86.7903V83.8023H52.9561V86.7903H49.6801L53.8561 78.6363H51.1921L46.9981 86.7903V89.0943H52.9561V91.2363H55.4581V89.0943H56.8081V86.7903H55.4581ZM66.25 82.7583C66.25 81.4623 65.818 80.4183 64.972 79.6083C64.126 78.7983 63.028 78.3843 61.678 78.3843C60.328 78.3843 59.23 78.7983 58.384 79.6083C57.538 80.4183 57.124 81.4803 57.124 82.7583C57.124 84.0363 57.538 85.0803 58.348 85.8903C59.176 86.7003 60.238 87.1143 61.552 87.1323L58.744 91.2363H61.588L65.512 85.3143H65.494C65.998 84.5763 66.25 83.7303 66.25 82.7583ZM59.59 82.7583C59.59 81.5343 60.508 80.7243 61.678 80.7243C62.902 80.7243 63.784 81.5163 63.784 82.7583C63.784 84.0003 62.902 84.8103 61.678 84.8103C60.508 84.8103 59.59 84.0003 59.59 82.7583ZM75.2879 91.2363V88.8423H70.5539L73.0199 86.3763C74.4059 84.9903 75.0899 83.6583 75.0899 82.3443C75.0899 81.1383 74.6759 80.1663 73.8659 79.4643C73.0559 78.7443 72.0659 78.3843 70.9319 78.3843C69.1499 78.3843 67.5659 79.3203 66.7739 81.0483L68.8619 82.2723C69.3119 81.2823 70.0139 80.7963 70.9679 80.7963C71.9219 80.7963 72.6059 81.4443 72.6059 82.4343C72.6059 83.1003 72.1199 83.9463 71.1659 84.9543L66.8639 89.3823V91.2363H75.2879ZM80.6744 78.6363V81.0123H84.0584V91.2363H86.5424V81.0123H89.9444V78.6363H80.6744ZM98.3364 87.6903C98.3904 87.3483 98.4264 87.0423 98.4264 86.7363C98.4264 85.3863 97.9944 84.2703 97.1304 83.3523C96.2844 82.4343 95.1864 81.9843 93.8724 81.9843C92.4864 81.9843 91.3344 82.4343 90.4524 83.3523C89.5704 84.2523 89.1204 85.3863 89.1204 86.7363C89.1204 88.1043 89.5704 89.2383 90.4704 90.1383C91.3704 91.0383 92.5584 91.4883 94.0524 91.4883C95.7804 91.4883 97.0944 90.8403 97.9764 89.5623L96.1044 88.4823C95.6544 89.0763 94.9704 89.3823 94.0884 89.3823C92.7024 89.3823 91.8564 88.8243 91.5504 87.6903H98.3364ZM91.5144 85.8903C91.7844 84.7383 92.6304 84.0723 93.8724 84.0723C94.9344 84.0723 95.8344 84.6663 96.1044 85.8903H91.5144ZM104.261 91.4883C106.007 91.4883 107.537 90.5703 108.329 89.1483L106.313 87.9963C105.953 88.7343 105.179 89.1843 104.243 89.1843C103.541 89.1843 102.965 88.9503 102.515 88.5003C102.065 88.0323 101.831 87.4383 101.831 86.7363C101.831 85.2963 102.857 84.2703 104.243 84.2703C105.161 84.2703 105.935 84.7383 106.295 85.4763L108.293 84.3063C107.555 82.8843 106.007 81.9843 104.261 81.9843C102.911 81.9843 101.777 82.4343 100.859 83.3523C99.959 84.2703 99.509 85.3863 99.509 86.7363C99.509 88.0863 99.959 89.2023 100.859 90.1203C101.777 91.0383 102.911 91.4883 104.261 91.4883ZM114.129 86.6823L117.747 82.2363H114.975L111.879 86.1963V78.6363H109.557V91.2363H111.879V87.1503L115.155 91.2363H117.855L114.129 86.6823ZM124.018 81.9843C122.794 81.9843 121.894 82.3983 121.336 83.2443V82.2363H119.014V91.2363H121.336V86.3763C121.336 84.8823 122.11 84.1443 123.316 84.1443C124.396 84.1443 125.098 84.7923 125.098 85.9983V91.2363H127.42V85.7103C127.42 84.5403 127.096 83.6403 126.448 82.9743C125.818 82.3083 125.008 81.9843 124.018 81.9843ZM136.243 83.2983C135.541 82.4163 134.569 81.9843 133.309 81.9843C132.103 81.9843 131.077 82.4523 130.213 83.3703C129.367 84.2883 128.935 85.4043 128.935 86.7363C128.935 88.0683 129.367 89.2023 130.213 90.1203C131.077 91.0383 132.103 91.4883 133.309 91.4883C134.569 91.4883 135.541 91.0563 136.243 90.1743V91.2363H138.565V82.2363H136.243V83.2983ZM131.959 88.5723C131.491 88.0863 131.257 87.4743 131.257 86.7363C131.257 85.9983 131.491 85.3863 131.959 84.9183C132.427 84.4323 133.021 84.1983 133.741 84.1983C134.461 84.1983 135.055 84.4323 135.523 84.9183C136.009 85.3863 136.243 85.9983 136.243 86.7363C136.243 87.4743 136.009 88.0863 135.523 88.5723C135.055 89.0403 134.461 89.2743 133.741 89.2743C133.021 89.2743 132.427 89.0403 131.959 88.5723ZM146.61 87.0963C146.61 88.5903 145.836 89.3283 144.63 89.3283C143.55 89.3283 142.848 88.6803 142.848 87.4743V82.2363H140.526V87.7623C140.526 88.9323 140.85 89.8323 141.48 90.4983C142.128 91.1643 142.938 91.4883 143.928 91.4883C145.152 91.4883 146.052 91.0743 146.61 90.2283V91.2363H148.932V82.2363H146.61V87.0963Z" fill="white"/>
<g clip-path="url(#clip0_962_1342)">
<path d="M102 26.0903C102 33.0903 93 39.0903 93 39.0903C93 39.0903 84 33.0903 84 26.0903C84 23.7034 84.9482 21.4142 86.636 19.7264C88.3239 18.0385 90.6131 17.0903 93 17.0903C95.3869 17.0903 97.6761 18.0385 99.364 19.7264C101.052 21.4142 102 23.7034 102 26.0903Z" stroke="white" stroke-width="2" stroke-linecap="round" stroke-linejoin="round"/>
<path d="M93 29.0903C94.6569 29.0903 96 27.7472 96 26.0903C96 24.4335 94.6569 23.0903 93 23.0903C91.3431 23.0903 90 24.4335 90 26.0903C90 27.7472 91.3431 29.0903 93 29.0903Z" stroke="white" stroke-width="2" stroke-linecap="round" stroke-linejoin="round"/>
</g>
<defs>
<clipPath id="clip0_962_1342">
<rect width="24" height="24" fill="white" transform="translate(81 16.0903)"/>
</clipPath>
</defs>
</svg>
