<svg width="207" height="116" viewBox="0 0 207 116" fill="none" xmlns="http://www.w3.org/2000/svg">
<path d="M0.782471 0H185.218V43L207 53.5L185.218 64.5V106.5H0.782471V0Z" fill="#C4AA79"/>
<path d="M44.3818 59.232V61.428H48.1978C47.7478 62.922 46.4518 63.822 44.5258 63.822C43.2298 63.822 42.1858 63.444 41.3938 62.67C40.6198 61.896 40.2238 60.906 40.2238 59.718C40.2238 58.512 40.6018 57.522 41.3758 56.748C42.1498 55.956 43.1398 55.56 44.3458 55.56C45.8398 55.56 47.1358 56.28 47.7298 57.306L49.8538 56.082C48.7738 54.3 46.7218 53.148 44.3638 53.148C42.4918 53.148 40.9258 53.778 39.6478 55.056C38.3878 56.334 37.7578 57.882 37.7578 59.718C37.7578 61.536 38.3878 63.084 39.6658 64.362C40.9438 65.622 42.5638 66.252 44.5078 66.252C46.3258 66.252 47.8198 65.694 48.9718 64.578C50.1238 63.462 50.6998 62.004 50.6998 60.204V59.232H44.3818ZM55.9946 55.776C56.4806 55.29 56.4806 54.534 55.9946 54.048C55.5446 53.562 54.7706 53.562 54.2846 54.048C53.7986 54.534 53.7986 55.29 54.2846 55.776C54.7706 56.226 55.5446 56.226 55.9946 55.776ZM59.4146 55.776C59.9006 55.29 59.9006 54.534 59.4146 54.048C58.9646 53.562 58.1906 53.562 57.7046 54.048C57.2186 54.534 57.2186 55.29 57.7046 55.776C58.1906 56.226 58.9646 56.226 59.4146 55.776ZM59.1986 58.062C58.4966 57.18 57.5246 56.748 56.2646 56.748C55.0586 56.748 54.0326 57.216 53.1686 58.134C52.3226 59.052 51.8906 60.168 51.8906 61.5C51.8906 62.832 52.3226 63.966 53.1686 64.884C54.0326 65.802 55.0586 66.252 56.2646 66.252C57.5246 66.252 58.4966 65.82 59.1986 64.938V66H61.5206V57H59.1986V58.062ZM54.9146 63.336C54.4466 62.85 54.2126 62.238 54.2126 61.5C54.2126 60.762 54.4466 60.15 54.9146 59.682C55.3826 59.196 55.9766 58.962 56.6966 58.962C57.4166 58.962 58.0106 59.196 58.4786 59.682C58.9646 60.15 59.1986 60.762 59.1986 61.5C59.1986 62.238 58.9646 62.85 58.4786 63.336C58.0106 63.804 57.4166 64.038 56.6966 64.038C55.9766 64.038 55.3826 63.804 54.9146 63.336ZM65.6979 59.556C65.6979 59.106 66.1479 58.818 66.7419 58.818C67.4079 58.818 67.8939 59.124 68.1819 59.736L70.1619 58.656C69.4599 57.432 68.1999 56.748 66.7419 56.748C65.7699 56.748 64.9599 57 64.2939 57.522C63.6459 58.026 63.3219 58.728 63.3219 59.61C63.3219 61.482 64.9959 62.04 66.3279 62.382C67.2459 62.616 67.9659 62.886 67.9659 63.372C67.9659 63.894 67.5519 64.146 66.7239 64.146C65.8059 64.146 65.2299 63.75 64.9599 62.976L62.9439 64.11C63.6099 65.532 64.8699 66.252 66.7239 66.252C67.7499 66.252 68.6139 66 69.2979 65.514C69.9999 65.01 70.3419 64.29 70.3419 63.372C70.3599 61.446 68.6499 60.816 67.3359 60.546C66.4179 60.312 65.6979 60.042 65.6979 59.556ZM73.5026 59.556C73.5026 59.106 73.9526 58.818 74.5466 58.818C75.2126 58.818 75.6986 59.124 75.9866 59.736L77.9666 58.656C77.2646 57.432 76.0046 56.748 74.5466 56.748C73.5746 56.748 72.7646 57 72.0986 57.522C71.4506 58.026 71.1266 58.728 71.1266 59.61C71.1266 61.482 72.8006 62.04 74.1326 62.382C75.0506 62.616 75.7706 62.886 75.7706 63.372C75.7706 63.894 75.3566 64.146 74.5286 64.146C73.6106 64.146 73.0346 63.75 72.7646 62.976L70.7486 64.11C71.4146 65.532 72.6746 66.252 74.5286 66.252C75.5546 66.252 76.4186 66 77.1026 65.514C77.8046 65.01 78.1466 64.29 78.1466 63.372C78.1646 61.446 76.4546 60.816 75.1406 60.546C74.2226 60.312 73.5026 60.042 73.5026 59.556ZM81.9619 66V52.86H79.6399V66H81.9619ZM85.2392 55.92C86.0312 55.92 86.6792 55.272 86.6792 54.498C86.6792 53.724 86.0312 53.058 85.2392 53.058C84.4652 53.058 83.8172 53.724 83.8172 54.498C83.8172 55.272 84.4652 55.92 85.2392 55.92ZM86.4092 66V57H84.0872V66H86.4092ZM95.3744 58.062C94.6724 57.18 93.7004 56.748 92.4404 56.748C91.2344 56.748 90.2084 57.216 89.3444 58.134C88.4984 59.052 88.0664 60.168 88.0664 61.5C88.0664 62.832 88.4984 63.966 89.3444 64.884C90.2084 65.802 91.2344 66.252 92.4404 66.252C93.7004 66.252 94.6724 65.82 95.3744 64.938V66H97.6964V57H95.3744V58.062ZM91.0904 63.336C90.6224 62.85 90.3884 62.238 90.3884 61.5C90.3884 60.762 90.6224 60.15 91.0904 59.682C91.5584 59.196 92.1524 58.962 92.8724 58.962C93.5924 58.962 94.1864 59.196 94.6544 59.682C95.1404 60.15 95.3744 60.762 95.3744 61.5C95.3744 62.238 95.1404 62.85 94.6544 63.336C94.1864 63.804 93.5924 64.038 92.8724 64.038C92.1524 64.038 91.5584 63.804 91.0904 63.336ZM104.086 66.252C105.832 66.252 107.362 65.334 108.154 63.912L106.138 62.76C105.778 63.498 105.004 63.948 104.068 63.948C103.366 63.948 102.79 63.714 102.34 63.264C101.89 62.796 101.656 62.202 101.656 61.5C101.656 60.06 102.682 59.034 104.068 59.034C104.986 59.034 105.76 59.502 106.12 60.24L108.118 59.07C107.38 57.648 105.832 56.748 104.086 56.748C102.736 56.748 101.602 57.198 100.684 58.116C99.784 59.034 99.334 60.15 99.334 61.5C99.334 62.85 99.784 63.966 100.684 64.884C101.602 65.802 102.736 66.252 104.086 66.252ZM113.954 61.446L117.572 57H114.8L111.704 60.96V53.4H109.382V66H111.704V61.914L114.98 66H117.68L113.954 61.446ZM126.937 62.454C126.991 62.112 127.027 61.806 127.027 61.5C127.027 60.15 126.595 59.034 125.731 58.116C124.885 57.198 123.787 56.748 122.473 56.748C121.087 56.748 119.935 57.198 119.053 58.116C118.171 59.016 117.721 60.15 117.721 61.5C117.721 62.868 118.171 64.002 119.071 64.902C119.971 65.802 121.159 66.252 122.653 66.252C124.381 66.252 125.695 65.604 126.577 64.326L124.705 63.246C124.255 63.84 123.571 64.146 122.689 64.146C121.303 64.146 120.457 63.588 120.151 62.454H126.937ZM120.115 60.654C120.385 59.502 121.231 58.836 122.473 58.836C123.535 58.836 124.435 59.43 124.705 60.654H120.115ZM130.97 57H128.648V66H130.97V61.698C130.97 60.834 131.24 60.222 131.798 59.844C132.356 59.466 133.004 59.322 133.706 59.412V56.82C132.482 56.82 131.402 57.396 130.97 58.548V57ZM138.7 54.57L139.312 56.694L141.688 56.028V66H144.172V53.4H142.012L138.7 54.57ZM154.175 55.452V53.4H146.255V55.722H151.187L148.703 58.962L149.657 60.402H150.197C151.475 60.402 152.213 61.086 152.213 62.112C152.213 63.174 151.475 63.822 150.197 63.822C149.045 63.822 148.307 63.336 148.001 62.364L145.877 63.588C146.579 65.334 148.235 66.252 150.197 66.252C151.457 66.252 152.519 65.892 153.383 65.154C154.265 64.416 154.697 63.408 154.697 62.112C154.697 60.33 153.527 59.016 151.817 58.512L154.175 55.452ZM48.0585 83.554V80.566H45.5565V83.554H42.2805L46.4565 75.4H43.7925L39.5985 83.554V85.858H45.5565V88H48.0585V85.858H49.4085V83.554H48.0585ZM58.6757 83.554V80.566H56.1737V83.554H52.8977L57.0737 75.4H54.4097L50.2157 83.554V85.858H56.1737V88H58.6757V85.858H60.0257V83.554H58.6757ZM69.4675 79.522C69.4675 78.226 69.0355 77.182 68.1895 76.372C67.3435 75.562 66.2455 75.148 64.8955 75.148C63.5455 75.148 62.4475 75.562 61.6015 76.372C60.7555 77.182 60.3415 78.244 60.3415 79.522C60.3415 80.8 60.7555 81.844 61.5655 82.654C62.3935 83.464 63.4555 83.878 64.7695 83.896L61.9615 88H64.8055L68.7295 82.078H68.7115C69.2155 81.34 69.4675 80.494 69.4675 79.522ZM62.8075 79.522C62.8075 78.298 63.7255 77.488 64.8955 77.488C66.1195 77.488 67.0015 78.28 67.0015 79.522C67.0015 80.764 66.1195 81.574 64.8955 81.574C63.7255 81.574 62.8075 80.764 62.8075 79.522ZM78.5055 88V85.606H73.7715L76.2375 83.14C77.6235 81.754 78.3075 80.422 78.3075 79.108C78.3075 77.902 77.8935 76.93 77.0835 76.228C76.2735 75.508 75.2835 75.148 74.1495 75.148C72.3675 75.148 70.7835 76.084 69.9915 77.812L72.0795 79.036C72.5295 78.046 73.2315 77.56 74.1855 77.56C75.1395 77.56 75.8235 78.208 75.8235 79.198C75.8235 79.864 75.3375 80.71 74.3835 81.718L70.0815 86.146V88H78.5055ZM83.892 75.4V77.776H87.276V88H89.76V77.776H93.162V75.4H83.892ZM101.554 84.454C101.608 84.112 101.644 83.806 101.644 83.5C101.644 82.15 101.212 81.034 100.348 80.116C99.5019 79.198 98.4039 78.748 97.0899 78.748C95.7039 78.748 94.5519 79.198 93.6699 80.116C92.7879 81.016 92.3379 82.15 92.3379 83.5C92.3379 84.868 92.7879 86.002 93.6879 86.902C94.5879 87.802 95.7759 88.252 97.2699 88.252C98.9979 88.252 100.312 87.604 101.194 86.326L99.3219 85.246C98.8719 85.84 98.1879 86.146 97.3059 86.146C95.9199 86.146 95.0739 85.588 94.7679 84.454H101.554ZM94.7319 82.654C95.0019 81.502 95.8479 80.836 97.0899 80.836C98.1519 80.836 99.0519 81.43 99.3219 82.654H94.7319ZM107.479 88.252C109.225 88.252 110.755 87.334 111.547 85.912L109.531 84.76C109.171 85.498 108.397 85.948 107.461 85.948C106.759 85.948 106.183 85.714 105.733 85.264C105.283 84.796 105.049 84.202 105.049 83.5C105.049 82.06 106.075 81.034 107.461 81.034C108.379 81.034 109.153 81.502 109.513 82.24L111.511 81.07C110.773 79.648 109.225 78.748 107.479 78.748C106.129 78.748 104.995 79.198 104.077 80.116C103.177 81.034 102.727 82.15 102.727 83.5C102.727 84.85 103.177 85.966 104.077 86.884C104.995 87.802 106.129 88.252 107.479 88.252ZM117.347 83.446L120.965 79H118.193L115.097 82.96V75.4H112.775V88H115.097V83.914L118.373 88H121.073L117.347 83.446ZM127.236 78.748C126.012 78.748 125.112 79.162 124.554 80.008V79H122.232V88H124.554V83.14C124.554 81.646 125.328 80.908 126.534 80.908C127.614 80.908 128.316 81.556 128.316 82.762V88H130.638V82.474C130.638 81.304 130.314 80.404 129.666 79.738C129.036 79.072 128.226 78.748 127.236 78.748ZM139.46 80.062C138.758 79.18 137.786 78.748 136.526 78.748C135.32 78.748 134.294 79.216 133.43 80.134C132.584 81.052 132.152 82.168 132.152 83.5C132.152 84.832 132.584 85.966 133.43 86.884C134.294 87.802 135.32 88.252 136.526 88.252C137.786 88.252 138.758 87.82 139.46 86.938V88H141.782V79H139.46V80.062ZM135.176 85.336C134.708 84.85 134.474 84.238 134.474 83.5C134.474 82.762 134.708 82.15 135.176 81.682C135.644 81.196 136.238 80.962 136.958 80.962C137.678 80.962 138.272 81.196 138.74 81.682C139.226 82.15 139.46 82.762 139.46 83.5C139.46 84.238 139.226 84.85 138.74 85.336C138.272 85.804 137.678 86.038 136.958 86.038C136.238 86.038 135.644 85.804 135.176 85.336ZM149.828 83.86C149.828 85.354 149.054 86.092 147.848 86.092C146.768 86.092 146.066 85.444 146.066 84.238V79H143.744V84.526C143.744 85.696 144.068 86.596 144.698 87.262C145.346 87.928 146.156 88.252 147.146 88.252C148.37 88.252 149.27 87.838 149.828 86.992V88H152.15V79H149.828V83.86Z" fill="white"/>
<g clip-path="url(#clip0_1493_1131)">
<path d="M102 26.0903C102 33.0903 93 39.0903 93 39.0903C93 39.0903 84 33.0903 84 26.0903C84 23.7034 84.9482 21.4142 86.636 19.7264C88.3239 18.0385 90.6131 17.0903 93 17.0903C95.3869 17.0903 97.6761 18.0385 99.364 19.7264C101.052 21.4142 102 23.7034 102 26.0903Z" stroke="white" stroke-width="2" stroke-linecap="round" stroke-linejoin="round"/>
<path d="M93 29.0903C94.6569 29.0903 96 27.7472 96 26.0903C96 24.4335 94.6569 23.0903 93 23.0903C91.3431 23.0903 90 24.4335 90 26.0903C90 27.7472 91.3431 29.0903 93 29.0903Z" stroke="white" stroke-width="2" stroke-linecap="round" stroke-linejoin="round"/>
</g>
<defs>
<clipPath id="clip0_1493_1131">
<rect width="24" height="24" fill="white" transform="translate(81 16.0903)"/>
</clipPath>
</defs>
</svg>
