<svg width="95" height="101" viewBox="0 0 95 101" fill="none" xmlns="http://www.w3.org/2000/svg">
<path d="M80.5504 30.7702C71.0617 27.2877 52.4239 20.2705 47.248 14.6528C42.2828 20.0742 22.6064 27.4001 13.9458 30.7702C13.9458 84.0305 47.248 91.568 47.248 91.568C47.248 91.568 80.5504 83.4469 80.5504 30.7702Z" stroke="#C4AA79" stroke-width="2" stroke-linecap="round"/>
<path d="M14.8159 39.218V38.218C14.5255 38.218 14.2494 38.3443 14.0594 38.564C13.8695 38.7838 13.7844 39.0752 13.8264 39.3626L14.8159 39.218ZM16.4652 50.503L15.4757 50.6476C15.5475 51.1388 15.9688 51.503 16.4652 51.503V50.503ZM61.3531 57.0923C60.8008 57.0923 60.3531 57.54 60.3531 58.0923C60.3531 58.6446 60.8008 59.0923 61.3531 59.0923V57.0923ZM64.2727 69.4533C65.3681 69.4533 66.4558 69.2833 67.2907 68.7071C68.1988 68.0804 68.6384 67.0966 68.6384 65.8795H66.6384C66.6384 66.5762 66.4181 66.8793 66.1547 67.0611C65.8182 67.2933 65.2231 67.4533 64.2727 67.4533V69.4533ZM68.6384 65.8795C68.6384 65.8758 68.6384 65.872 68.6384 65.8683C68.6384 65.8645 68.6384 65.8608 68.6384 65.857C68.6384 65.8532 68.6384 65.8494 68.6384 65.8456C68.6384 65.8418 68.6384 65.838 68.6384 65.8342C68.6384 65.8304 68.6384 65.8266 68.6384 65.8227C68.6384 65.8189 68.6384 65.815 68.6384 65.8112C68.6384 65.8073 68.6384 65.8035 68.6384 65.7996C68.6384 65.7957 68.6384 65.7918 68.6384 65.7879C68.6384 65.7841 68.6384 65.7802 68.6384 65.7762C68.6384 65.7723 68.6384 65.7684 68.6384 65.7645C68.6384 65.7605 68.6384 65.7566 68.6384 65.7527C68.6384 65.7487 68.6384 65.7448 68.6384 65.7408C68.6384 65.7368 68.6384 65.7328 68.6384 65.7289C68.6384 65.7249 68.6384 65.7209 68.6384 65.7169C68.6384 65.7129 68.6384 65.7089 68.6384 65.7048C68.6384 65.7008 68.6384 65.6968 68.6384 65.6927C68.6384 65.6887 68.6384 65.6846 68.6384 65.6806C68.6384 65.6765 68.6384 65.6725 68.6384 65.6684C68.6384 65.6643 68.6384 65.6602 68.6384 65.6561C68.6384 65.652 68.6384 65.6479 68.6384 65.6438C68.6384 65.6397 68.6384 65.6356 68.6384 65.6314C68.6384 65.6273 68.6384 65.6232 68.6384 65.619C68.6384 65.6149 68.6384 65.6107 68.6384 65.6065C68.6384 65.6024 68.6384 65.5982 68.6384 65.594C68.6384 65.5898 68.6384 65.5856 68.6384 65.5814C68.6384 65.5772 68.6384 65.573 68.6384 65.5688C68.6384 65.5646 68.6384 65.5603 68.6384 65.5561C68.6384 65.5519 68.6384 65.5476 68.6384 65.5434C68.6384 65.5391 68.6384 65.5349 68.6384 65.5306C68.6384 65.5263 68.6384 65.522 68.6384 65.5177C68.6384 65.5135 68.6384 65.5092 68.6384 65.5049C68.6384 65.5005 68.6384 65.4962 68.6384 65.4919C68.6384 65.4876 68.6384 65.4833 68.6384 65.4789C68.6384 65.4746 68.6384 65.4702 68.6384 65.4659C68.6384 65.4615 68.6384 65.4571 68.6384 65.4528C68.6384 65.4484 68.6384 65.444 68.6384 65.4396C68.6384 65.4352 68.6384 65.4308 68.6384 65.4264C68.6384 65.422 68.6384 65.4176 68.6384 65.4132C68.6384 65.4088 68.6384 65.4043 68.6384 65.3999C68.6384 65.3955 68.6384 65.391 68.6384 65.3866C68.6384 65.3821 68.6384 65.3776 68.6384 65.3732C68.6384 65.3687 68.6384 65.3642 68.6384 65.3597C68.6384 65.3552 68.6384 65.3507 68.6384 65.3462C68.6384 65.3417 68.6384 65.3372 68.6384 65.3327C68.6384 65.3282 68.6384 65.3237 68.6384 65.3191C68.6384 65.3146 68.6384 65.31 68.6384 65.3055C68.6384 65.3009 68.6384 65.2964 68.6384 65.2918C68.6384 65.2872 68.6384 65.2827 68.6384 65.2781C68.6384 65.2735 68.6384 65.2689 68.6384 65.2643C68.6384 65.2597 68.6384 65.2551 68.6384 65.2505C68.6384 65.2459 68.6384 65.2413 68.6384 65.2366C68.6384 65.232 68.6384 65.2274 68.6384 65.2227C68.6384 65.2181 68.6384 65.2134 68.6384 65.2088C68.6384 65.2041 68.6384 65.1994 68.6384 65.1948C68.6384 65.1901 68.6384 65.1854 68.6384 65.1807C68.6384 65.176 68.6384 65.1713 68.6384 65.1666C68.6384 65.1619 68.6384 65.1572 68.6384 65.1525C68.6384 65.1478 68.6384 65.143 68.6384 65.1383C68.6384 65.1336 68.6384 65.1288 68.6384 65.1241C68.6384 65.1193 68.6384 65.1146 68.6384 65.1098C68.6384 65.105 68.6384 65.1003 68.6384 65.0955C68.6384 65.0907 68.6384 65.0859 68.6384 65.0811C68.6384 65.0763 68.6384 65.0715 68.6384 65.0667C68.6384 65.0619 68.6384 65.0571 68.6384 65.0523C68.6384 65.0475 68.6384 65.0426 68.6384 65.0378C68.6384 65.033 68.6384 65.0281 68.6384 65.0233C68.6384 65.0184 68.6384 65.0136 68.6384 65.0087C68.6384 65.0038 68.6384 64.999 68.6384 64.9941C68.6384 64.9892 68.6384 64.9843 68.6384 64.9794C68.6384 64.9745 68.6384 64.9697 68.6384 64.9647C68.6384 64.9598 68.6384 64.9549 68.6384 64.95C68.6384 64.9451 68.6384 64.9402 68.6384 64.9352C68.6384 64.9303 68.6384 64.9254 68.6384 64.9204C68.6384 64.9155 68.6384 64.9105 68.6384 64.9056C68.6384 64.9006 68.6384 64.8956 68.6384 64.8907C68.6384 64.8857 68.6384 64.8807 68.6384 64.8757C68.6384 64.8707 68.6384 64.8657 68.6384 64.8607C68.6384 64.8557 68.6384 64.8507 68.6384 64.8457C68.6384 64.8407 68.6384 64.8357 68.6384 64.8307C68.6384 64.8256 68.6384 64.8206 68.6384 64.8156C68.6384 64.8105 68.6384 64.8055 68.6384 64.8004C68.6384 64.7954 68.6384 64.7903 68.6384 64.7853C68.6384 64.7802 68.6384 64.7751 68.6384 64.7701C68.6384 64.765 68.6384 64.7599 68.6384 64.7548C68.6384 64.7497 68.6384 64.7446 68.6384 64.7395C68.6384 64.7344 68.6384 64.7293 68.6384 64.7242C68.6384 64.7191 68.6384 64.714 68.6384 64.7088C68.6384 64.7037 68.6384 64.6986 68.6384 64.6934C68.6384 64.6883 68.6384 64.6832 68.6384 64.678C68.6384 64.6729 68.6384 64.6677 68.6384 64.6625C68.6384 64.6574 68.6384 64.6522 68.6384 64.647C68.6384 64.6419 68.6384 64.6367 68.6384 64.6315C68.6384 64.6263 68.6384 64.6211 68.6384 64.6159C68.6384 64.6107 68.6384 64.6055 68.6384 64.6003C68.6384 64.5951 68.6384 64.5899 68.6384 64.5847C68.6384 64.5794 68.6384 64.5742 68.6384 64.569C68.6384 64.5637 68.6384 64.5585 68.6384 64.5533C68.6384 64.548 68.6384 64.5428 68.6384 64.5375C68.6384 64.5322 68.6384 64.527 68.6384 64.5217C68.6384 64.5165 68.6384 64.5112 68.6384 64.5059C68.6384 64.5006 68.6384 64.4953 68.6384 64.49C68.6384 64.4848 68.6384 64.4795 68.6384 64.4742C68.6384 64.4689 68.6384 64.4636 68.6384 64.4582C68.6384 64.4529 68.6384 64.4476 68.6384 64.4423C68.6384 64.437 68.6384 64.4316 68.6384 64.4263C68.6384 64.421 68.6384 64.4156 68.6384 64.4103C68.6384 64.4049 68.6384 64.3996 68.6384 64.3942C68.6384 64.3889 68.6384 64.3835 68.6384 64.3782C68.6384 64.3728 68.6384 64.3674 68.6384 64.362C68.6384 64.3567 68.6384 64.3513 68.6384 64.3459C68.6384 64.3405 68.6384 64.3351 68.6384 64.3297C68.6384 64.3243 68.6384 64.3189 68.6384 64.3135C68.6384 64.3081 68.6384 64.3027 68.6384 64.2973C68.6384 64.2919 68.6384 64.2865 68.6384 64.281C68.6384 64.2756 68.6384 64.2702 68.6384 64.2647C68.6384 64.2593 68.6384 64.2539 68.6384 64.2484C68.6384 64.243 68.6384 64.2375 68.6384 64.2321C68.6384 64.2266 68.6384 64.2211 68.6384 64.2157C68.6384 64.2102 68.6384 64.2047 68.6384 64.1993C68.6384 64.1938 68.6384 64.1883 68.6384 64.1828C68.6384 64.1773 68.6384 64.1718 68.6384 64.1663C68.6384 64.1608 68.6384 64.1553 68.6384 64.1498C68.6384 64.1443 68.6384 64.1388 68.6384 64.1333C68.6384 64.1278 68.6384 64.1223 68.6384 64.1168C68.6384 64.1112 68.6384 64.1057 68.6384 64.1002C68.6384 64.0947 68.6384 64.0891 68.6384 64.0836C68.6384 64.078 68.6384 64.0725 68.6384 64.0669C68.6384 64.0614 68.6384 64.0558 68.6384 64.0503C68.6384 64.0447 68.6384 64.0392 68.6384 64.0336C68.6384 64.028 68.6384 64.0224 68.6384 64.0169C68.6384 64.0113 68.6384 64.0057 68.6384 64.0001C68.6384 63.9945 68.6384 63.989 68.6384 63.9834C68.6384 63.9778 68.6384 63.9722 68.6384 63.9666C68.6384 63.961 68.6384 63.9554 68.6384 63.9498C68.6384 63.9441 68.6384 63.9385 68.6384 63.9329C68.6384 63.9273 68.6384 63.9217 68.6384 63.916C68.6384 63.9104 68.6384 63.9048 68.6384 63.8992C68.6384 63.8935 68.6384 63.8879 68.6384 63.8822C68.6384 63.8766 68.6384 63.871 68.6384 63.8653C68.6384 63.8597 68.6384 63.854 68.6384 63.8483C68.6384 63.8427 68.6384 63.837 68.6384 63.8314C68.6384 63.8257 68.6384 63.82 68.6384 63.8143C68.6384 63.8087 68.6384 63.803 68.6384 63.7973C68.6384 63.7916 68.6384 63.7859 68.6384 63.7803C68.6384 63.7746 68.6384 63.7689 68.6384 63.7632C68.6384 63.7575 68.6384 63.7518 68.6384 63.7461C68.6384 63.7404 68.6384 63.7347 68.6384 63.729C68.6384 63.7232 68.6384 63.7175 68.6384 63.7118C68.6384 63.7061 68.6384 63.7004 68.6384 63.6947C68.6384 63.6889 68.6384 63.6832 68.6384 63.6775C68.6384 63.6717 68.6384 63.666 68.6384 63.6603C68.6384 63.6545 68.6384 63.6488 68.6384 63.643C68.6384 63.6373 68.6384 63.6315 68.6384 63.6258C68.6384 63.62 68.6384 63.6143 68.6384 63.6085C68.6384 63.6028 68.6384 63.597 68.6384 63.5912C68.6384 63.5855 68.6384 63.5797 68.6384 63.5739C68.6384 63.5682 68.6384 63.5624 68.6384 63.5566C68.6384 63.5508 68.6384 63.545 68.6384 63.5393C68.6384 63.5335 68.6384 63.5277 68.6384 63.5219C68.6384 63.5161 68.6384 63.5103 68.6384 63.5045C68.6384 63.4987 68.6384 63.4929 68.6384 63.4871C68.6384 63.4813 68.6384 63.4755 68.6384 63.4697C68.6384 63.4639 68.6384 63.4581 68.6384 63.4523C68.6384 63.4464 68.6384 63.4406 68.6384 63.4348C68.6384 63.429 68.6384 63.4232 68.6384 63.4173C68.6384 63.4115 68.6384 63.4057 68.6384 63.3998C68.6384 63.394 68.6384 63.3882 68.6384 63.3823C68.6384 63.3765 68.6384 63.3707 68.6384 63.3648C68.6384 63.359 68.6384 63.3531 68.6384 63.3473C68.6384 63.3414 68.6384 63.3356 68.6384 63.3297C68.6384 63.3239 68.6384 63.318 68.6384 63.3122C68.6384 63.3063 68.6384 63.3004 68.6384 63.2946C68.6384 63.2887 68.6384 63.2828 68.6384 63.277C68.6384 63.2711 68.6384 63.2652 68.6384 63.2593C68.6384 63.2535 68.6384 63.2476 68.6384 63.2417C68.6384 63.2358 68.6384 63.23 68.6384 63.2241C68.6384 63.2182 68.6384 63.2123 68.6384 63.2064C68.6384 63.2005 68.6384 63.1946 68.6384 63.1887C68.6384 63.1828 68.6384 63.177 68.6384 63.1711C68.6384 63.1652 68.6384 63.1593 68.6384 63.1534C68.6384 63.1475 68.6384 63.1415 68.6384 63.1356C68.6384 63.1297 68.6384 63.1238 68.6384 63.1179C68.6384 63.112 68.6384 63.1061 68.6384 63.1002C68.6384 63.0943 68.6384 63.0883 68.6384 63.0824C68.6384 63.0765 68.6384 63.0706 68.6384 63.0647C68.6384 63.0587 68.6384 63.0528 68.6384 63.0469C68.6384 63.041 68.6384 63.035 68.6384 63.0291C68.6384 63.0232 68.6384 63.0172 68.6384 63.0113C68.6384 63.0054 68.6384 62.9994 68.6384 62.9935C68.6384 62.9875 68.6384 62.9816 68.6384 62.9757C68.6384 62.9697 68.6384 62.9638 68.6384 62.9578C68.6384 62.9519 68.6384 62.9459 68.6384 62.94C68.6384 62.934 68.6384 62.9281 68.6384 62.9221C68.6384 62.9162 68.6384 62.9102 68.6384 62.9043C68.6384 62.8983 68.6384 62.8924 68.6384 62.8864C68.6384 62.8804 68.6384 62.8745 68.6384 62.8685C68.6384 62.8626 68.6384 62.8566 68.6384 62.8506C68.6384 62.8447 68.6384 62.8387 68.6384 62.8327C68.6384 62.8268 68.6384 62.8208 68.6384 62.8148C68.6384 62.8088 68.6384 62.8029 68.6384 62.7969C68.6384 62.7909 68.6384 62.785 68.6384 62.779C68.6384 62.773 68.6384 62.767 68.6384 62.761C68.6384 62.7551 68.6384 62.7491 68.6384 62.7431C68.6384 62.7371 68.6384 62.7311 68.6384 62.7252C68.6384 62.7192 68.6384 62.7132 68.6384 62.7072C68.6384 62.7012 68.6384 62.6952 68.6384 62.6892C68.6384 62.6833 68.6384 62.6773 68.6384 62.6713C68.6384 62.6653 68.6384 62.6593 68.6384 62.6533C68.6384 62.6473 68.6384 62.6413 68.6384 62.6353C68.6384 62.6293 68.6384 62.6233 68.6384 62.6173C68.6384 62.6113 68.6384 62.6053 68.6384 62.5993C68.6384 62.5933 68.6384 62.5873 68.6384 62.5813C68.6384 62.5753 68.6384 62.5693 68.6384 62.5633C68.6384 62.5573 68.6384 62.5513 68.6384 62.5453C68.6384 62.5393 68.6384 62.5333 68.6384 62.5273C68.6384 62.5213 68.6384 62.5153 68.6384 62.5093C68.6384 62.5033 68.6384 62.4973 68.6384 62.4913C68.6384 62.4853 68.6384 62.4793 68.6384 62.4732C68.6384 62.4672 68.6384 62.4612 68.6384 62.4552C68.6384 62.4492 68.6384 62.4432 68.6384 62.4372C68.6384 62.4312 68.6384 62.4252 68.6384 62.4191C68.6384 62.4131 68.6384 62.4071 68.6384 62.4011C68.6384 62.3951 68.6384 62.3891 68.6384 62.3831C68.6384 62.3771 68.6384 62.371 68.6384 62.365C68.6384 62.359 68.6384 62.353 68.6384 62.347C68.6384 62.341 68.6384 62.335 68.6384 62.3289C68.6384 62.3229 68.6384 62.3169 68.6384 62.3109C68.6384 62.3049 68.6384 62.2989 68.6384 62.2928C68.6384 62.2868 68.6384 62.2808 68.6384 62.2748C68.6384 62.2688 68.6384 62.2628 68.6384 62.2567C68.6384 62.2507 68.6384 62.2447 68.6384 62.2387C68.6384 62.2327 68.6384 62.2266 68.6384 62.2206C68.6384 62.2146 68.6384 62.2086 68.6384 62.2026C68.6384 62.1966 68.6384 62.1905 68.6384 62.1845C68.6384 62.1785 68.6384 62.1725 68.6384 62.1665C68.6384 62.1605 68.6384 62.1544 68.6384 62.1484C68.6384 62.1424 68.6384 62.1364 68.6384 62.1304C68.6384 62.1244 68.6384 62.1183 68.6384 62.1123C68.6384 62.1063 68.6384 62.1003 68.6384 62.0943C68.6384 62.0883 68.6384 62.0822 68.6384 62.0762C68.6384 62.0702 68.6384 62.0642 68.6384 62.0582C68.6384 62.0522 68.6384 62.0462 68.6384 62.0401C68.6384 62.0341 68.6384 62.0281 68.6384 62.0221C68.6384 62.0161 68.6384 62.0101 68.6384 62.0041C68.6384 61.9981 68.6384 61.992 68.6384 61.986C68.6384 61.98 68.6384 61.974 68.6384 61.968C68.6384 61.962 68.6384 61.956 68.6384 61.95C68.6384 61.944 68.6384 61.938 68.6384 61.932C68.6384 61.9259 68.6384 61.9199 68.6384 61.9139C68.6384 61.9079 68.6384 61.9019 68.6384 61.8959C68.6384 61.8899 68.6384 61.8839 68.6384 61.8779C68.6384 61.8719 68.6384 61.8659 68.6384 61.8599C68.6384 61.8539 68.6384 61.8479 68.6384 61.8419C68.6384 61.8359 68.6384 61.8299 68.6384 61.8239C68.6384 61.8179 68.6384 61.8119 68.6384 61.8059C68.6384 61.7999 68.6384 61.7939 68.6384 61.7879C68.6384 61.7819 68.6384 61.776 68.6384 61.77C68.6384 61.764 68.6384 61.758 68.6384 61.752C68.6384 61.746 68.6384 61.74 68.6384 61.734C68.6384 61.728 68.6384 61.7221 68.6384 61.7161C68.6384 61.7101 68.6384 61.7041 68.6384 61.6981C68.6384 61.6921 68.6384 61.6862 68.6384 61.6802C68.6384 61.6742 68.6384 61.6682 68.6384 61.6622C68.6384 61.6563 68.6384 61.6503 68.6384 61.6443C68.6384 61.6383 68.6384 61.6324 68.6384 61.6264C68.6384 61.6204 68.6384 61.6144 68.6384 61.6085C68.6384 61.6025 68.6384 61.5965 68.6384 61.5906C68.6384 61.5846 68.6384 61.5786 68.6384 61.5727C68.6384 61.5667 68.6384 61.5608 68.6384 61.5548C68.6384 61.5488 68.6384 61.5429 68.6384 61.5369C68.6384 61.531 68.6384 61.525 68.6384 61.5191C68.6384 61.5131 68.6384 61.5071 68.6384 61.5012C68.6384 61.4952 68.6384 61.4893 68.6384 61.4833C68.6384 61.4774 68.6384 61.4715 68.6384 61.4655C68.6384 61.4596 68.6384 61.4536 68.6384 61.4477C68.6384 61.4417 68.6384 61.4358 68.6384 61.4299C68.6384 61.4239 68.6384 61.418 68.6384 61.4121C68.6384 61.4061 68.6384 61.4002 68.6384 61.3943C68.6384 61.3883 68.6384 61.3824 68.6384 61.3765C68.6384 61.3706 68.6384 61.3646 68.6384 61.3587C68.6384 61.3528 68.6384 61.3469 68.6384 61.341C68.6384 61.3351 68.6384 61.3291 68.6384 61.3232C68.6384 61.3173 68.6384 61.3114 68.6384 61.3055C68.6384 61.2996 68.6384 61.2937 68.6384 61.2878C68.6384 61.2819 68.6384 61.276 68.6384 61.2701C68.6384 61.2642 68.6384 61.2583 68.6384 61.2524C68.6384 61.2465 68.6384 61.2406 68.6384 61.2347C68.6384 61.2288 68.6384 61.2229 68.6384 61.217C68.6384 61.2112 68.6384 61.2053 68.6384 61.1994C68.6384 61.1935 68.6384 61.1876 68.6384 61.1818C68.6384 61.1759 68.6384 61.17 68.6384 61.1641C68.6384 61.1583 68.6384 61.1524 68.6384 61.1465C68.6384 61.1407 68.6384 61.1348 68.6384 61.1289C68.6384 61.1231 68.6384 61.1172 68.6384 61.1114C68.6384 61.1055 68.6384 61.0996 68.6384 61.0938C68.6384 61.0879 68.6384 61.0821 68.6384 61.0763C68.6384 61.0704 68.6384 61.0646 68.6384 61.0587C68.6384 61.0529 68.6384 61.047 68.6384 61.0412C68.6384 61.0354 68.6384 61.0295 68.6384 61.0237C68.6384 61.0179 68.6384 61.0121 68.6384 61.0062C68.6384 61.0004 68.6384 60.9946 68.6384 60.9888C68.6384 60.983 68.6384 60.9771 68.6384 60.9713C68.6384 60.9655 68.6384 60.9597 68.6384 60.9539C68.6384 60.9481 68.6384 60.9423 68.6384 60.9365C68.6384 60.9307 68.6384 60.9249 68.6384 60.9191C68.6384 60.9133 68.6384 60.9075 68.6384 60.9017C68.6384 60.896 68.6384 60.8902 68.6384 60.8844C68.6384 60.8786 68.6384 60.8728 68.6384 60.8671C68.6384 60.8613 68.6384 60.8555 68.6384 60.8497C68.6384 60.844 68.6384 60.8382 68.6384 60.8325C68.6384 60.8267 68.6384 60.8209 68.6384 60.8152C68.6384 60.8094 68.6384 60.8037 68.6384 60.7979C68.6384 60.7922 68.6384 60.7864 68.6384 60.7807C68.6384 60.7749 68.6384 60.7692 68.6384 60.7635C68.6384 60.7577 68.6384 60.752 68.6384 60.7463C68.6384 60.7406 68.6384 60.7348 68.6384 60.7291C68.6384 60.7234 68.6384 60.7177 68.6384 60.712C68.6384 60.7062 68.6384 60.7005 68.6384 60.6948C68.6384 60.6891 68.6384 60.6834 68.6384 60.6777C68.6384 60.672 68.6384 60.6663 68.6384 60.6606C68.6384 60.6549 68.6384 60.6493 68.6384 60.6436C68.6384 60.6379 68.6384 60.6322 68.6384 60.6265C68.6384 60.6209 68.6384 60.6152 68.6384 60.6095C68.6384 60.6038 68.6384 60.5982 68.6384 60.5925C68.6384 60.5869 68.6384 60.5812 68.6384 60.5755C68.6384 60.5699 68.6384 60.5642 68.6384 60.5586C68.6384 60.553 68.6384 60.5473 68.6384 60.5417C68.6384 60.536 68.6384 60.5304 68.6384 60.5248C68.6384 60.5191 68.6384 60.5135 68.6384 60.5079C68.6384 60.5023 68.6384 60.4967 68.6384 60.491C68.6384 60.4854 68.6384 60.4798 68.6384 60.4742C68.6384 60.4686 68.6384 60.463 68.6384 60.4574C68.6384 60.4518 68.6384 60.4462 68.6384 60.4406C68.6384 60.4351 68.6384 60.4295 68.6384 60.4239C68.6384 60.4183 68.6384 60.4127 68.6384 60.4072C68.6384 60.4016 68.6384 60.396 68.6384 60.3905C68.6384 60.3849 68.6384 60.3794 68.6384 60.3738C68.6384 60.3682 68.6384 60.3627 68.6384 60.3572C68.6384 60.3516 68.6384 60.3461 68.6384 60.3405C68.6384 60.335 68.6384 60.3295 68.6384 60.3239C68.6384 60.3184 68.6384 60.3129 68.6384 60.3074C68.6384 60.3019 68.6384 60.2963 68.6384 60.2908C68.6384 60.2853 68.6384 60.2798 68.6384 60.2743C68.6384 60.2688 68.6384 60.2633 68.6384 60.2579C68.6384 60.2524 68.6384 60.2469 68.6384 60.2414C68.6384 60.2359 68.6384 60.2304 68.6384 60.225C68.6384 60.2195 68.6384 60.214 68.6384 60.2086C68.6384 60.2031 68.6384 60.1977 68.6384 60.1922C68.6384 60.1868 68.6384 60.1813 68.6384 60.1759C68.6384 60.1704 68.6384 60.165 68.6384 60.1596C68.6384 60.1541 68.6384 60.1487 68.6384 60.1433C68.6384 60.1379 68.6384 60.1325 68.6384 60.127C68.6384 60.1216 68.6384 60.1162 68.6384 60.1108C68.6384 60.1054 68.6384 60.1 68.6384 60.0946C68.6384 60.0893 68.6384 60.0839 68.6384 60.0785C68.6384 60.0731 68.6384 60.0677 68.6384 60.0624C68.6384 60.057 68.6384 60.0516 68.6384 60.0463C68.6384 60.0409 68.6384 60.0356 68.6384 60.0302C68.6384 60.0249 68.6384 60.0195 68.6384 60.0142C68.6384 60.0088 68.6384 60.0035 68.6384 59.9982C68.6384 59.9929 68.6384 59.9875 68.6384 59.9822C68.6384 59.9769 68.6384 59.9716 68.6384 59.9663C68.6384 59.961 68.6384 59.9557 68.6384 59.9504C68.6384 59.9451 68.6384 59.9398 68.6384 59.9345C68.6384 59.9292 68.6384 59.924 68.6384 59.9187C68.6384 59.9134 68.6384 59.9082 68.6384 59.9029C68.6384 59.8976 68.6384 59.8924 68.6384 59.8871C68.6384 59.8819 68.6384 59.8766 68.6384 59.8714C68.6384 59.8662 68.6384 59.8609 68.6384 59.8557C68.6384 59.8505 68.6384 59.8453 68.6384 59.84C68.6384 59.8348 68.6384 59.8296 68.6384 59.8244C68.6384 59.8192 68.6384 59.814 68.6384 59.8088C68.6384 59.8036 68.6384 59.7985 68.6384 59.7933C68.6384 59.7881 68.6384 59.7829 68.6384 59.7778C68.6384 59.7726 68.6384 59.7674 68.6384 59.7623C68.6384 59.7571 68.6384 59.752 68.6384 59.7468C68.6384 59.7417 68.6384 59.7365 68.6384 59.7314C68.6384 59.7263 68.6384 59.7212 68.6384 59.716C68.6384 59.7109 68.6384 59.7058 68.6384 59.7007C68.6384 59.6956 68.6384 59.6905 68.6384 59.6854C68.6384 59.6803 68.6384 59.6752 68.6384 59.6701C68.6384 59.6651 68.6384 59.66 68.6384 59.6549C68.6384 59.6499 68.6384 59.6448 68.6384 59.6397C68.6384 59.6347 68.6384 59.6296 68.6384 59.6246C68.6384 59.6195 68.6384 59.6145 68.6384 59.6095C68.6384 59.6044 68.6384 59.5994 68.6384 59.5944C68.6384 59.5894 68.6384 59.5844 68.6384 59.5794C68.6384 59.5744 68.6384 59.5694 68.6384 59.5644C68.6384 59.5594 68.6384 59.5544 68.6384 59.5494C68.6384 59.5445 68.6384 59.5395 68.6384 59.5345C68.6384 59.5296 68.6384 59.5246 68.6384 59.5196C68.6384 59.5147 68.6384 59.5097 68.6384 59.5048C68.6384 59.4999 68.6384 59.4949 68.6384 59.49C68.6384 59.4851 68.6384 59.4802 68.6384 59.4753C68.6384 59.4704 68.6384 59.4655 68.6384 59.4606C68.6384 59.4557 68.6384 59.4508 68.6384 59.4459C68.6384 59.441 68.6384 59.4361 68.6384 59.4313C68.6384 59.4264 68.6384 59.4215 68.6384 59.4167C68.6384 59.4118 68.6384 59.407 68.6384 59.4021C68.6384 59.3973 68.6384 59.3925 68.6384 59.3876C68.6384 59.3828 68.6384 59.378 68.6384 59.3732C68.6384 59.3684 68.6384 59.3636 68.6384 59.3588C68.6384 59.354 68.6384 59.3492 68.6384 59.3444C68.6384 59.3396 68.6384 59.3348 68.6384 59.33C68.6384 59.3253 68.6384 59.3205 68.6384 59.3158C68.6384 59.311 68.6384 59.3063 68.6384 59.3015C68.6384 59.2968 68.6384 59.292 68.6384 59.2873C68.6384 59.2826 68.6384 59.2779 68.6384 59.2732C68.6384 59.2685 68.6384 59.2638 68.6384 59.2591C68.6384 59.2544 68.6384 59.2497 68.6384 59.245C68.6384 59.2403 68.6384 59.2356 68.6384 59.231C68.6384 59.2263 68.6384 59.2217 68.6384 59.217C68.6384 59.2124 68.6384 59.2077 68.6384 59.2031C68.6384 59.1984 68.6384 59.1938 68.6384 59.1892C68.6384 59.1846 68.6384 59.18 68.6384 59.1754C68.6384 59.1708 68.6384 59.1662 68.6384 59.1616C68.6384 59.157 68.6384 59.1524 68.6384 59.1478C68.6384 59.1433 68.6384 59.1387 68.6384 59.1341C68.6384 59.1296 68.6384 59.125 68.6384 59.1205C68.6384 59.1159 68.6384 59.1114 68.6384 59.1069C68.6384 59.1024 68.6384 59.0978 68.6384 59.0933C68.6384 59.0888 68.6384 59.0843 68.6384 59.0798C68.6384 59.0753 68.6384 59.0708 68.6384 59.0664C68.6384 59.0619 68.6384 59.0574 68.6384 59.0529C68.6384 59.0485 68.6384 59.044 68.6384 59.0396C68.6384 59.0351 68.6384 59.0307 68.6384 59.0263C68.6384 59.0218 68.6384 59.0174 68.6384 59.013C68.6384 59.0086 68.6384 59.0042 68.6384 58.9998C68.6384 58.9954 68.6384 58.991 68.6384 58.9866C68.6384 58.9823 68.6384 58.9779 68.6384 58.9735C68.6384 58.9692 68.6384 58.9648 68.6384 58.9605C68.6384 58.9561 68.6384 58.9518 68.6384 58.9474C68.6384 58.9431 68.6384 58.9388 68.6384 58.9345C68.6384 58.9302 68.6384 58.9259 68.6384 58.9216C68.6384 58.9173 68.6384 58.913 68.6384 58.9087C68.6384 58.9044 68.6384 58.9002 68.6384 58.8959C68.6384 58.8916 68.6384 58.8874 68.6384 58.8831C68.6384 58.8789 68.6384 58.8747 68.6384 58.8704C68.6384 58.8662 68.6384 58.862 68.6384 58.8578C68.6384 58.8536 68.6384 58.8494 68.6384 58.8452C68.6384 58.841 68.6384 58.8368 68.6384 58.8326C68.6384 58.8285 68.6384 58.8243 68.6384 58.8201C68.6384 58.816 68.6384 58.8118 68.6384 58.8077C68.6384 58.8036 68.6384 58.7994 68.6384 58.7953C68.6384 58.7912 68.6384 58.7871 68.6384 58.783C68.6384 58.7789 68.6384 58.7748 68.6384 58.7707C68.6384 58.7666 68.6384 58.7625 68.6384 58.7585C68.6384 58.7544 68.6384 58.7504 68.6384 58.7463C68.6384 58.7423 68.6384 58.7382 68.6384 58.7342C68.6384 58.7302 68.6384 58.7261 68.6384 58.7221C68.6384 58.7181 68.6384 58.7141 68.6384 58.7101C68.6384 58.7061 68.6384 58.7021 68.6384 58.6982C68.6384 58.6942 68.6384 58.6902 68.6384 58.6863C68.6384 58.6823 68.6384 58.6784 68.6384 58.6744C68.6384 58.6705 68.6384 58.6666 68.6384 58.6626C68.6384 58.6587 68.6384 58.6548 68.6384 58.6509C68.6384 58.647 68.6384 58.6431 68.6384 58.6393C68.6384 58.6354 68.6384 58.6315 68.6384 58.6276C68.6384 58.6238 68.6384 58.6199 68.6384 58.6161C68.6384 58.6122 68.6384 58.6084 68.6384 58.6046C68.6384 58.6008 68.6384 58.597 68.6384 58.5931C68.6384 58.5893 68.6384 58.5856 68.6384 58.5818C68.6384 58.578 68.6384 58.5742 68.6384 58.5704C68.6384 58.5667 68.6384 58.5629 68.6384 58.5592C68.6384 58.5554 68.6384 58.5517 68.6384 58.548C68.6384 58.5442 68.6384 58.5405 68.6384 58.5368C68.6384 58.5331 68.6384 58.5294 68.6384 58.5257C68.6384 58.522 68.6384 58.5184 68.6384 58.5147C68.6384 58.511 68.6384 58.5074 68.6384 58.5037C68.6384 58.5001 68.6384 58.4965 68.6384 58.4928C68.6384 58.4892 68.6384 58.4856 68.6384 58.482C68.6384 58.4784 68.6384 58.4748 68.6384 58.4712C68.6384 58.4676 68.6384 58.464 68.6384 58.4605C68.6384 58.4569 68.6384 58.4533 68.6384 58.4498C68.6384 58.4463 68.6384 58.4427 68.6384 58.4392C68.6384 58.4357 68.6384 58.4322 68.6384 58.4287C68.6384 58.4252 68.6384 58.4217 68.6384 58.4182C68.6384 58.4147 68.6384 58.4112 68.6384 58.4078C68.6384 58.4043 68.6384 58.4008 68.6384 58.3974C68.6384 58.394 68.6384 58.3905 68.6384 58.3871C68.6384 58.3837 68.6384 58.3803 68.6384 58.3769C68.6384 58.3735 68.6384 58.3701 68.6384 58.3667C68.6384 58.3633 68.6384 58.36 68.6384 58.3566C68.6384 58.3532 68.6384 58.3499 68.6384 58.3466C68.6384 58.3432 68.6384 58.3399 68.6384 58.3366C68.6384 58.3333 68.6384 58.33 68.6384 58.3267C68.6384 58.3234 68.6384 58.3201 68.6384 58.3168C68.6384 58.3136 68.6384 58.3103 68.6384 58.307C68.6384 58.3038 68.6384 58.3006 68.6384 58.2973C68.6384 58.2941 68.6384 58.2909 68.6384 58.2877C68.6384 58.2845 68.6384 58.2813 68.6384 58.2781C68.6384 58.2749 68.6384 58.2717 68.6384 58.2686C68.6384 58.2654 68.6384 58.2622 68.6384 58.2591C68.6384 58.256 68.6384 58.2528 68.6384 58.2497C68.6384 58.2466 68.6384 58.2435 68.6384 58.2404C68.6384 58.2373 68.6384 58.2342 68.6384 58.2311C68.6384 58.2281 68.6384 58.225 68.6384 58.2219C68.6384 58.2189 68.6384 58.2159 68.6384 58.2128C68.6384 58.2098 68.6384 58.2068 68.6384 58.2038C68.6384 58.2008 68.6384 58.1978 68.6384 58.1948C68.6384 58.1918 68.6384 58.1888 68.6384 58.1859C68.6384 58.1829 68.6384 58.1799 68.6384 58.177C68.6384 58.1741 68.6384 58.1711 68.6384 58.1682C68.6384 58.1653 68.6384 58.1624 68.6384 58.1595C68.6384 58.1566 68.6384 58.1537 68.6384 58.1509C68.6384 58.148 68.6384 58.1451 68.6384 58.1423C68.6384 58.1394 68.6384 58.1366 68.6384 58.1338C68.6384 58.131 68.6384 58.1281 68.6384 58.1253C68.6384 58.1225 68.6384 58.1198 68.6384 58.117C68.6384 58.1142 68.6384 58.1114 68.6384 58.1087C68.6384 58.1059 68.6384 58.1032 68.6384 58.1005C68.6384 58.0977 68.6384 58.095 68.6384 58.0923H66.6384C66.6384 58.095 66.6384 58.0977 66.6384 58.1005C66.6384 58.1032 66.6384 58.1059 66.6384 58.1087C66.6384 58.1114 66.6384 58.1142 66.6384 58.117C66.6384 58.1198 66.6384 58.1225 66.6384 58.1253C66.6384 58.1281 66.6384 58.131 66.6384 58.1338C66.6384 58.1366 66.6384 58.1394 66.6384 58.1423C66.6384 58.1451 66.6384 58.148 66.6384 58.1509C66.6384 58.1537 66.6384 58.1566 66.6384 58.1595C66.6384 58.1624 66.6384 58.1653 66.6384 58.1682C66.6384 58.1711 66.6384 58.1741 66.6384 58.177C66.6384 58.1799 66.6384 58.1829 66.6384 58.1859C66.6384 58.1888 66.6384 58.1918 66.6384 58.1948C66.6384 58.1978 66.6384 58.2008 66.6384 58.2038C66.6384 58.2068 66.6384 58.2098 66.6384 58.2128C66.6384 58.2159 66.6384 58.2189 66.6384 58.2219C66.6384 58.225 66.6384 58.2281 66.6384 58.2311C66.6384 58.2342 66.6384 58.2373 66.6384 58.2404C66.6384 58.2435 66.6384 58.2466 66.6384 58.2497C66.6384 58.2528 66.6384 58.256 66.6384 58.2591C66.6384 58.2622 66.6384 58.2654 66.6384 58.2686C66.6384 58.2717 66.6384 58.2749 66.6384 58.2781C66.6384 58.2813 66.6384 58.2845 66.6384 58.2877C66.6384 58.2909 66.6384 58.2941 66.6384 58.2973C66.6384 58.3006 66.6384 58.3038 66.6384 58.307C66.6384 58.3103 66.6384 58.3136 66.6384 58.3168C66.6384 58.3201 66.6384 58.3234 66.6384 58.3267C66.6384 58.33 66.6384 58.3333 66.6384 58.3366C66.6384 58.3399 66.6384 58.3432 66.6384 58.3466C66.6384 58.3499 66.6384 58.3532 66.6384 58.3566C66.6384 58.36 66.6384 58.3633 66.6384 58.3667C66.6384 58.3701 66.6384 58.3735 66.6384 58.3769C66.6384 58.3803 66.6384 58.3837 66.6384 58.3871C66.6384 58.3905 66.6384 58.394 66.6384 58.3974C66.6384 58.4008 66.6384 58.4043 66.6384 58.4078C66.6384 58.4112 66.6384 58.4147 66.6384 58.4182C66.6384 58.4217 66.6384 58.4252 66.6384 58.4287C66.6384 58.4322 66.6384 58.4357 66.6384 58.4392C66.6384 58.4427 66.6384 58.4463 66.6384 58.4498C66.6384 58.4533 66.6384 58.4569 66.6384 58.4605C66.6384 58.464 66.6384 58.4676 66.6384 58.4712C66.6384 58.4748 66.6384 58.4784 66.6384 58.482C66.6384 58.4856 66.6384 58.4892 66.6384 58.4928C66.6384 58.4965 66.6384 58.5001 66.6384 58.5037C66.6384 58.5074 66.6384 58.511 66.6384 58.5147C66.6384 58.5184 66.6384 58.522 66.6384 58.5257C66.6384 58.5294 66.6384 58.5331 66.6384 58.5368C66.6384 58.5405 66.6384 58.5442 66.6384 58.548C66.6384 58.5517 66.6384 58.5554 66.6384 58.5592C66.6384 58.5629 66.6384 58.5667 66.6384 58.5704C66.6384 58.5742 66.6384 58.578 66.6384 58.5818C66.6384 58.5856 66.6384 58.5893 66.6384 58.5931C66.6384 58.597 66.6384 58.6008 66.6384 58.6046C66.6384 58.6084 66.6384 58.6122 66.6384 58.6161C66.6384 58.6199 66.6384 58.6238 66.6384 58.6276C66.6384 58.6315 66.6384 58.6354 66.6384 58.6393C66.6384 58.6431 66.6384 58.647 66.6384 58.6509C66.6384 58.6548 66.6384 58.6587 66.6384 58.6626C66.6384 58.6666 66.6384 58.6705 66.6384 58.6744C66.6384 58.6784 66.6384 58.6823 66.6384 58.6863C66.6384 58.6902 66.6384 58.6942 66.6384 58.6982C66.6384 58.7021 66.6384 58.7061 66.6384 58.7101C66.6384 58.7141 66.6384 58.7181 66.6384 58.7221C66.6384 58.7261 66.6384 58.7302 66.6384 58.7342C66.6384 58.7382 66.6384 58.7423 66.6384 58.7463C66.6384 58.7504 66.6384 58.7544 66.6384 58.7585C66.6384 58.7625 66.6384 58.7666 66.6384 58.7707C66.6384 58.7748 66.6384 58.7789 66.6384 58.783C66.6384 58.7871 66.6384 58.7912 66.6384 58.7953C66.6384 58.7994 66.6384 58.8036 66.6384 58.8077C66.6384 58.8118 66.6384 58.816 66.6384 58.8201C66.6384 58.8243 66.6384 58.8285 66.6384 58.8326C66.6384 58.8368 66.6384 58.841 66.6384 58.8452C66.6384 58.8494 66.6384 58.8536 66.6384 58.8578C66.6384 58.862 66.6384 58.8662 66.6384 58.8704C66.6384 58.8747 66.6384 58.8789 66.6384 58.8831C66.6384 58.8874 66.6384 58.8916 66.6384 58.8959C66.6384 58.9002 66.6384 58.9044 66.6384 58.9087C66.6384 58.913 66.6384 58.9173 66.6384 58.9216C66.6384 58.9259 66.6384 58.9302 66.6384 58.9345C66.6384 58.9388 66.6384 58.9431 66.6384 58.9474C66.6384 58.9518 66.6384 58.9561 66.6384 58.9605C66.6384 58.9648 66.6384 58.9692 66.6384 58.9735C66.6384 58.9779 66.6384 58.9823 66.6384 58.9866C66.6384 58.991 66.6384 58.9954 66.6384 58.9998C66.6384 59.0042 66.6384 59.0086 66.6384 59.013C66.6384 59.0174 66.6384 59.0218 66.6384 59.0263C66.6384 59.0307 66.6384 59.0351 66.6384 59.0396C66.6384 59.044 66.6384 59.0485 66.6384 59.0529C66.6384 59.0574 66.6384 59.0619 66.6384 59.0664C66.6384 59.0708 66.6384 59.0753 66.6384 59.0798C66.6384 59.0843 66.6384 59.0888 66.6384 59.0933C66.6384 59.0978 66.6384 59.1024 66.6384 59.1069C66.6384 59.1114 66.6384 59.1159 66.6384 59.1205C66.6384 59.125 66.6384 59.1296 66.6384 59.1341C66.6384 59.1387 66.6384 59.1433 66.6384 59.1478C66.6384 59.1524 66.6384 59.157 66.6384 59.1616C66.6384 59.1662 66.6384 59.1708 66.6384 59.1754C66.6384 59.18 66.6384 59.1846 66.6384 59.1892C66.6384 59.1938 66.6384 59.1984 66.6384 59.2031C66.6384 59.2077 66.6384 59.2124 66.6384 59.217C66.6384 59.2217 66.6384 59.2263 66.6384 59.231C66.6384 59.2356 66.6384 59.2403 66.6384 59.245C66.6384 59.2497 66.6384 59.2544 66.6384 59.2591C66.6384 59.2638 66.6384 59.2685 66.6384 59.2732C66.6384 59.2779 66.6384 59.2826 66.6384 59.2873C66.6384 59.292 66.6384 59.2968 66.6384 59.3015C66.6384 59.3063 66.6384 59.311 66.6384 59.3158C66.6384 59.3205 66.6384 59.3253 66.6384 59.33C66.6384 59.3348 66.6384 59.3396 66.6384 59.3444C66.6384 59.3492 66.6384 59.354 66.6384 59.3588C66.6384 59.3636 66.6384 59.3684 66.6384 59.3732C66.6384 59.378 66.6384 59.3828 66.6384 59.3876C66.6384 59.3925 66.6384 59.3973 66.6384 59.4021C66.6384 59.407 66.6384 59.4118 66.6384 59.4167C66.6384 59.4215 66.6384 59.4264 66.6384 59.4313C66.6384 59.4361 66.6384 59.441 66.6384 59.4459C66.6384 59.4508 66.6384 59.4557 66.6384 59.4606C66.6384 59.4655 66.6384 59.4704 66.6384 59.4753C66.6384 59.4802 66.6384 59.4851 66.6384 59.49C66.6384 59.4949 66.6384 59.4999 66.6384 59.5048C66.6384 59.5097 66.6384 59.5147 66.6384 59.5196C66.6384 59.5246 66.6384 59.5296 66.6384 59.5345C66.6384 59.5395 66.6384 59.5445 66.6384 59.5494C66.6384 59.5544 66.6384 59.5594 66.6384 59.5644C66.6384 59.5694 66.6384 59.5744 66.6384 59.5794C66.6384 59.5844 66.6384 59.5894 66.6384 59.5944C66.6384 59.5994 66.6384 59.6044 66.6384 59.6095C66.6384 59.6145 66.6384 59.6195 66.6384 59.6246C66.6384 59.6296 66.6384 59.6347 66.6384 59.6397C66.6384 59.6448 66.6384 59.6499 66.6384 59.6549C66.6384 59.66 66.6384 59.6651 66.6384 59.6701C66.6384 59.6752 66.6384 59.6803 66.6384 59.6854C66.6384 59.6905 66.6384 59.6956 66.6384 59.7007C66.6384 59.7058 66.6384 59.7109 66.6384 59.716C66.6384 59.7212 66.6384 59.7263 66.6384 59.7314C66.6384 59.7365 66.6384 59.7417 66.6384 59.7468C66.6384 59.752 66.6384 59.7571 66.6384 59.7623C66.6384 59.7674 66.6384 59.7726 66.6384 59.7778C66.6384 59.7829 66.6384 59.7881 66.6384 59.7933C66.6384 59.7985 66.6384 59.8036 66.6384 59.8088C66.6384 59.814 66.6384 59.8192 66.6384 59.8244C66.6384 59.8296 66.6384 59.8348 66.6384 59.84C66.6384 59.8453 66.6384 59.8505 66.6384 59.8557C66.6384 59.8609 66.6384 59.8662 66.6384 59.8714C66.6384 59.8766 66.6384 59.8819 66.6384 59.8871C66.6384 59.8924 66.6384 59.8976 66.6384 59.9029C66.6384 59.9082 66.6384 59.9134 66.6384 59.9187C66.6384 59.924 66.6384 59.9292 66.6384 59.9345C66.6384 59.9398 66.6384 59.9451 66.6384 59.9504C66.6384 59.9557 66.6384 59.961 66.6384 59.9663C66.6384 59.9716 66.6384 59.9769 66.6384 59.9822C66.6384 59.9875 66.6384 59.9929 66.6384 59.9982C66.6384 60.0035 66.6384 60.0088 66.6384 60.0142C66.6384 60.0195 66.6384 60.0249 66.6384 60.0302C66.6384 60.0356 66.6384 60.0409 66.6384 60.0463C66.6384 60.0516 66.6384 60.057 66.6384 60.0624C66.6384 60.0677 66.6384 60.0731 66.6384 60.0785C66.6384 60.0839 66.6384 60.0893 66.6384 60.0946C66.6384 60.1 66.6384 60.1054 66.6384 60.1108C66.6384 60.1162 66.6384 60.1216 66.6384 60.127C66.6384 60.1325 66.6384 60.1379 66.6384 60.1433C66.6384 60.1487 66.6384 60.1541 66.6384 60.1596C66.6384 60.165 66.6384 60.1704 66.6384 60.1759C66.6384 60.1813 66.6384 60.1868 66.6384 60.1922C66.6384 60.1977 66.6384 60.2031 66.6384 60.2086C66.6384 60.214 66.6384 60.2195 66.6384 60.225C66.6384 60.2304 66.6384 60.2359 66.6384 60.2414C66.6384 60.2469 66.6384 60.2524 66.6384 60.2579C66.6384 60.2633 66.6384 60.2688 66.6384 60.2743C66.6384 60.2798 66.6384 60.2853 66.6384 60.2908C66.6384 60.2963 66.6384 60.3019 66.6384 60.3074C66.6384 60.3129 66.6384 60.3184 66.6384 60.3239C66.6384 60.3295 66.6384 60.335 66.6384 60.3405C66.6384 60.3461 66.6384 60.3516 66.6384 60.3572C66.6384 60.3627 66.6384 60.3682 66.6384 60.3738C66.6384 60.3794 66.6384 60.3849 66.6384 60.3905C66.6384 60.396 66.6384 60.4016 66.6384 60.4072C66.6384 60.4127 66.6384 60.4183 66.6384 60.4239C66.6384 60.4295 66.6384 60.4351 66.6384 60.4406C66.6384 60.4462 66.6384 60.4518 66.6384 60.4574C66.6384 60.463 66.6384 60.4686 66.6384 60.4742C66.6384 60.4798 66.6384 60.4854 66.6384 60.491C66.6384 60.4967 66.6384 60.5023 66.6384 60.5079C66.6384 60.5135 66.6384 60.5191 66.6384 60.5248C66.6384 60.5304 66.6384 60.536 66.6384 60.5417C66.6384 60.5473 66.6384 60.553 66.6384 60.5586C66.6384 60.5642 66.6384 60.5699 66.6384 60.5755C66.6384 60.5812 66.6384 60.5869 66.6384 60.5925C66.6384 60.5982 66.6384 60.6038 66.6384 60.6095C66.6384 60.6152 66.6384 60.6209 66.6384 60.6265C66.6384 60.6322 66.6384 60.6379 66.6384 60.6436C66.6384 60.6493 66.6384 60.6549 66.6384 60.6606C66.6384 60.6663 66.6384 60.672 66.6384 60.6777C66.6384 60.6834 66.6384 60.6891 66.6384 60.6948C66.6384 60.7005 66.6384 60.7062 66.6384 60.712C66.6384 60.7177 66.6384 60.7234 66.6384 60.7291C66.6384 60.7348 66.6384 60.7406 66.6384 60.7463C66.6384 60.752 66.6384 60.7577 66.6384 60.7635C66.6384 60.7692 66.6384 60.7749 66.6384 60.7807C66.6384 60.7864 66.6384 60.7922 66.6384 60.7979C66.6384 60.8037 66.6384 60.8094 66.6384 60.8152C66.6384 60.8209 66.6384 60.8267 66.6384 60.8325C66.6384 60.8382 66.6384 60.844 66.6384 60.8497C66.6384 60.8555 66.6384 60.8613 66.6384 60.8671C66.6384 60.8728 66.6384 60.8786 66.6384 60.8844C66.6384 60.8902 66.6384 60.896 66.6384 60.9017C66.6384 60.9075 66.6384 60.9133 66.6384 60.9191C66.6384 60.9249 66.6384 60.9307 66.6384 60.9365C66.6384 60.9423 66.6384 60.9481 66.6384 60.9539C66.6384 60.9597 66.6384 60.9655 66.6384 60.9713C66.6384 60.9771 66.6384 60.983 66.6384 60.9888C66.6384 60.9946 66.6384 61.0004 66.6384 61.0062C66.6384 61.0121 66.6384 61.0179 66.6384 61.0237C66.6384 61.0295 66.6384 61.0354 66.6384 61.0412C66.6384 61.047 66.6384 61.0529 66.6384 61.0587C66.6384 61.0646 66.6384 61.0704 66.6384 61.0763C66.6384 61.0821 66.6384 61.0879 66.6384 61.0938C66.6384 61.0996 66.6384 61.1055 66.6384 61.1114C66.6384 61.1172 66.6384 61.1231 66.6384 61.1289C66.6384 61.1348 66.6384 61.1407 66.6384 61.1465C66.6384 61.1524 66.6384 61.1583 66.6384 61.1641C66.6384 61.17 66.6384 61.1759 66.6384 61.1818C66.6384 61.1876 66.6384 61.1935 66.6384 61.1994C66.6384 61.2053 66.6384 61.2112 66.6384 61.217C66.6384 61.2229 66.6384 61.2288 66.6384 61.2347C66.6384 61.2406 66.6384 61.2465 66.6384 61.2524C66.6384 61.2583 66.6384 61.2642 66.6384 61.2701C66.6384 61.276 66.6384 61.2819 66.6384 61.2878C66.6384 61.2937 66.6384 61.2996 66.6384 61.3055C66.6384 61.3114 66.6384 61.3173 66.6384 61.3232C66.6384 61.3291 66.6384 61.3351 66.6384 61.341C66.6384 61.3469 66.6384 61.3528 66.6384 61.3587C66.6384 61.3646 66.6384 61.3706 66.6384 61.3765C66.6384 61.3824 66.6384 61.3883 66.6384 61.3943C66.6384 61.4002 66.6384 61.4061 66.6384 61.4121C66.6384 61.418 66.6384 61.4239 66.6384 61.4299C66.6384 61.4358 66.6384 61.4417 66.6384 61.4477C66.6384 61.4536 66.6384 61.4596 66.6384 61.4655C66.6384 61.4715 66.6384 61.4774 66.6384 61.4833C66.6384 61.4893 66.6384 61.4952 66.6384 61.5012C66.6384 61.5071 66.6384 61.5131 66.6384 61.5191C66.6384 61.525 66.6384 61.531 66.6384 61.5369C66.6384 61.5429 66.6384 61.5488 66.6384 61.5548C66.6384 61.5608 66.6384 61.5667 66.6384 61.5727C66.6384 61.5786 66.6384 61.5846 66.6384 61.5906C66.6384 61.5965 66.6384 61.6025 66.6384 61.6085C66.6384 61.6144 66.6384 61.6204 66.6384 61.6264C66.6384 61.6324 66.6384 61.6383 66.6384 61.6443C66.6384 61.6503 66.6384 61.6563 66.6384 61.6622C66.6384 61.6682 66.6384 61.6742 66.6384 61.6802C66.6384 61.6862 66.6384 61.6921 66.6384 61.6981C66.6384 61.7041 66.6384 61.7101 66.6384 61.7161C66.6384 61.7221 66.6384 61.728 66.6384 61.734C66.6384 61.74 66.6384 61.746 66.6384 61.752C66.6384 61.758 66.6384 61.764 66.6384 61.77C66.6384 61.776 66.6384 61.7819 66.6384 61.7879C66.6384 61.7939 66.6384 61.7999 66.6384 61.8059C66.6384 61.8119 66.6384 61.8179 66.6384 61.8239C66.6384 61.8299 66.6384 61.8359 66.6384 61.8419C66.6384 61.8479 66.6384 61.8539 66.6384 61.8599C66.6384 61.8659 66.6384 61.8719 66.6384 61.8779C66.6384 61.8839 66.6384 61.8899 66.6384 61.8959C66.6384 61.9019 66.6384 61.9079 66.6384 61.9139C66.6384 61.9199 66.6384 61.9259 66.6384 61.932C66.6384 61.938 66.6384 61.944 66.6384 61.95C66.6384 61.956 66.6384 61.962 66.6384 61.968C66.6384 61.974 66.6384 61.98 66.6384 61.986C66.6384 61.992 66.6384 61.9981 66.6384 62.0041C66.6384 62.0101 66.6384 62.0161 66.6384 62.0221C66.6384 62.0281 66.6384 62.0341 66.6384 62.0401C66.6384 62.0462 66.6384 62.0522 66.6384 62.0582C66.6384 62.0642 66.6384 62.0702 66.6384 62.0762C66.6384 62.0822 66.6384 62.0883 66.6384 62.0943C66.6384 62.1003 66.6384 62.1063 66.6384 62.1123C66.6384 62.1183 66.6384 62.1244 66.6384 62.1304C66.6384 62.1364 66.6384 62.1424 66.6384 62.1484C66.6384 62.1544 66.6384 62.1605 66.6384 62.1665C66.6384 62.1725 66.6384 62.1785 66.6384 62.1845C66.6384 62.1905 66.6384 62.1966 66.6384 62.2026C66.6384 62.2086 66.6384 62.2146 66.6384 62.2206C66.6384 62.2266 66.6384 62.2327 66.6384 62.2387C66.6384 62.2447 66.6384 62.2507 66.6384 62.2567C66.6384 62.2628 66.6384 62.2688 66.6384 62.2748C66.6384 62.2808 66.6384 62.2868 66.6384 62.2928C66.6384 62.2989 66.6384 62.3049 66.6384 62.3109C66.6384 62.3169 66.6384 62.3229 66.6384 62.3289C66.6384 62.335 66.6384 62.341 66.6384 62.347C66.6384 62.353 66.6384 62.359 66.6384 62.365C66.6384 62.371 66.6384 62.3771 66.6384 62.3831C66.6384 62.3891 66.6384 62.3951 66.6384 62.4011C66.6384 62.4071 66.6384 62.4131 66.6384 62.4191C66.6384 62.4252 66.6384 62.4312 66.6384 62.4372C66.6384 62.4432 66.6384 62.4492 66.6384 62.4552C66.6384 62.4612 66.6384 62.4672 66.6384 62.4732C66.6384 62.4793 66.6384 62.4853 66.6384 62.4913C66.6384 62.4973 66.6384 62.5033 66.6384 62.5093C66.6384 62.5153 66.6384 62.5213 66.6384 62.5273C66.6384 62.5333 66.6384 62.5393 66.6384 62.5453C66.6384 62.5513 66.6384 62.5573 66.6384 62.5633C66.6384 62.5693 66.6384 62.5753 66.6384 62.5813C66.6384 62.5873 66.6384 62.5933 66.6384 62.5993C66.6384 62.6053 66.6384 62.6113 66.6384 62.6173C66.6384 62.6233 66.6384 62.6293 66.6384 62.6353C66.6384 62.6413 66.6384 62.6473 66.6384 62.6533C66.6384 62.6593 66.6384 62.6653 66.6384 62.6713C66.6384 62.6773 66.6384 62.6833 66.6384 62.6892C66.6384 62.6952 66.6384 62.7012 66.6384 62.7072C66.6384 62.7132 66.6384 62.7192 66.6384 62.7252C66.6384 62.7311 66.6384 62.7371 66.6384 62.7431C66.6384 62.7491 66.6384 62.7551 66.6384 62.761C66.6384 62.767 66.6384 62.773 66.6384 62.779C66.6384 62.785 66.6384 62.7909 66.6384 62.7969C66.6384 62.8029 66.6384 62.8088 66.6384 62.8148C66.6384 62.8208 66.6384 62.8268 66.6384 62.8327C66.6384 62.8387 66.6384 62.8447 66.6384 62.8506C66.6384 62.8566 66.6384 62.8626 66.6384 62.8685C66.6384 62.8745 66.6384 62.8804 66.6384 62.8864C66.6384 62.8924 66.6384 62.8983 66.6384 62.9043C66.6384 62.9102 66.6384 62.9162 66.6384 62.9221C66.6384 62.9281 66.6384 62.934 66.6384 62.94C66.6384 62.9459 66.6384 62.9519 66.6384 62.9578C66.6384 62.9638 66.6384 62.9697 66.6384 62.9757C66.6384 62.9816 66.6384 62.9875 66.6384 62.9935C66.6384 62.9994 66.6384 63.0054 66.6384 63.0113C66.6384 63.0172 66.6384 63.0232 66.6384 63.0291C66.6384 63.035 66.6384 63.041 66.6384 63.0469C66.6384 63.0528 66.6384 63.0587 66.6384 63.0647C66.6384 63.0706 66.6384 63.0765 66.6384 63.0824C66.6384 63.0883 66.6384 63.0943 66.6384 63.1002C66.6384 63.1061 66.6384 63.112 66.6384 63.1179C66.6384 63.1238 66.6384 63.1297 66.6384 63.1356C66.6384 63.1415 66.6384 63.1475 66.6384 63.1534C66.6384 63.1593 66.6384 63.1652 66.6384 63.1711C66.6384 63.177 66.6384 63.1828 66.6384 63.1887C66.6384 63.1946 66.6384 63.2005 66.6384 63.2064C66.6384 63.2123 66.6384 63.2182 66.6384 63.2241C66.6384 63.23 66.6384 63.2358 66.6384 63.2417C66.6384 63.2476 66.6384 63.2535 66.6384 63.2593C66.6384 63.2652 66.6384 63.2711 66.6384 63.277C66.6384 63.2828 66.6384 63.2887 66.6384 63.2946C66.6384 63.3004 66.6384 63.3063 66.6384 63.3122C66.6384 63.318 66.6384 63.3239 66.6384 63.3297C66.6384 63.3356 66.6384 63.3414 66.6384 63.3473C66.6384 63.3531 66.6384 63.359 66.6384 63.3648C66.6384 63.3707 66.6384 63.3765 66.6384 63.3823C66.6384 63.3882 66.6384 63.394 66.6384 63.3998C66.6384 63.4057 66.6384 63.4115 66.6384 63.4173C66.6384 63.4232 66.6384 63.429 66.6384 63.4348C66.6384 63.4406 66.6384 63.4464 66.6384 63.4523C66.6384 63.4581 66.6384 63.4639 66.6384 63.4697C66.6384 63.4755 66.6384 63.4813 66.6384 63.4871C66.6384 63.4929 66.6384 63.4987 66.6384 63.5045C66.6384 63.5103 66.6384 63.5161 66.6384 63.5219C66.6384 63.5277 66.6384 63.5335 66.6384 63.5393C66.6384 63.545 66.6384 63.5508 66.6384 63.5566C66.6384 63.5624 66.6384 63.5682 66.6384 63.5739C66.6384 63.5797 66.6384 63.5855 66.6384 63.5912C66.6384 63.597 66.6384 63.6028 66.6384 63.6085C66.6384 63.6143 66.6384 63.62 66.6384 63.6258C66.6384 63.6315 66.6384 63.6373 66.6384 63.643C66.6384 63.6488 66.6384 63.6545 66.6384 63.6603C66.6384 63.666 66.6384 63.6717 66.6384 63.6775C66.6384 63.6832 66.6384 63.6889 66.6384 63.6947C66.6384 63.7004 66.6384 63.7061 66.6384 63.7118C66.6384 63.7175 66.6384 63.7232 66.6384 63.729C66.6384 63.7347 66.6384 63.7404 66.6384 63.7461C66.6384 63.7518 66.6384 63.7575 66.6384 63.7632C66.6384 63.7689 66.6384 63.7746 66.6384 63.7803C66.6384 63.7859 66.6384 63.7916 66.6384 63.7973C66.6384 63.803 66.6384 63.8087 66.6384 63.8143C66.6384 63.82 66.6384 63.8257 66.6384 63.8314C66.6384 63.837 66.6384 63.8427 66.6384 63.8483C66.6384 63.854 66.6384 63.8597 66.6384 63.8653C66.6384 63.871 66.6384 63.8766 66.6384 63.8822C66.6384 63.8879 66.6384 63.8935 66.6384 63.8992C66.6384 63.9048 66.6384 63.9104 66.6384 63.916C66.6384 63.9217 66.6384 63.9273 66.6384 63.9329C66.6384 63.9385 66.6384 63.9441 66.6384 63.9498C66.6384 63.9554 66.6384 63.961 66.6384 63.9666C66.6384 63.9722 66.6384 63.9778 66.6384 63.9834C66.6384 63.989 66.6384 63.9945 66.6384 64.0001C66.6384 64.0057 66.6384 64.0113 66.6384 64.0169C66.6384 64.0224 66.6384 64.028 66.6384 64.0336C66.6384 64.0392 66.6384 64.0447 66.6384 64.0503C66.6384 64.0558 66.6384 64.0614 66.6384 64.0669C66.6384 64.0725 66.6384 64.078 66.6384 64.0836C66.6384 64.0891 66.6384 64.0947 66.6384 64.1002C66.6384 64.1057 66.6384 64.1112 66.6384 64.1168C66.6384 64.1223 66.6384 64.1278 66.6384 64.1333C66.6384 64.1388 66.6384 64.1443 66.6384 64.1498C66.6384 64.1553 66.6384 64.1608 66.6384 64.1663C66.6384 64.1718 66.6384 64.1773 66.6384 64.1828C66.6384 64.1883 66.6384 64.1938 66.6384 64.1993C66.6384 64.2047 66.6384 64.2102 66.6384 64.2157C66.6384 64.2211 66.6384 64.2266 66.6384 64.2321C66.6384 64.2375 66.6384 64.243 66.6384 64.2484C66.6384 64.2539 66.6384 64.2593 66.6384 64.2647C66.6384 64.2702 66.6384 64.2756 66.6384 64.281C66.6384 64.2865 66.6384 64.2919 66.6384 64.2973C66.6384 64.3027 66.6384 64.3081 66.6384 64.3135C66.6384 64.3189 66.6384 64.3243 66.6384 64.3297C66.6384 64.3351 66.6384 64.3405 66.6384 64.3459C66.6384 64.3513 66.6384 64.3567 66.6384 64.362C66.6384 64.3674 66.6384 64.3728 66.6384 64.3782C66.6384 64.3835 66.6384 64.3889 66.6384 64.3942C66.6384 64.3996 66.6384 64.4049 66.6384 64.4103C66.6384 64.4156 66.6384 64.421 66.6384 64.4263C66.6384 64.4316 66.6384 64.437 66.6384 64.4423C66.6384 64.4476 66.6384 64.4529 66.6384 64.4582C66.6384 64.4636 66.6384 64.4689 66.6384 64.4742C66.6384 64.4795 66.6384 64.4848 66.6384 64.49C66.6384 64.4953 66.6384 64.5006 66.6384 64.5059C66.6384 64.5112 66.6384 64.5165 66.6384 64.5217C66.6384 64.527 66.6384 64.5322 66.6384 64.5375C66.6384 64.5428 66.6384 64.548 66.6384 64.5533C66.6384 64.5585 66.6384 64.5637 66.6384 64.569C66.6384 64.5742 66.6384 64.5794 66.6384 64.5847C66.6384 64.5899 66.6384 64.5951 66.6384 64.6003C66.6384 64.6055 66.6384 64.6107 66.6384 64.6159C66.6384 64.6211 66.6384 64.6263 66.6384 64.6315C66.6384 64.6367 66.6384 64.6419 66.6384 64.647C66.6384 64.6522 66.6384 64.6574 66.6384 64.6625C66.6384 64.6677 66.6384 64.6729 66.6384 64.678C66.6384 64.6832 66.6384 64.6883 66.6384 64.6934C66.6384 64.6986 66.6384 64.7037 66.6384 64.7088C66.6384 64.714 66.6384 64.7191 66.6384 64.7242C66.6384 64.7293 66.6384 64.7344 66.6384 64.7395C66.6384 64.7446 66.6384 64.7497 66.6384 64.7548C66.6384 64.7599 66.6384 64.765 66.6384 64.7701C66.6384 64.7751 66.6384 64.7802 66.6384 64.7853C66.6384 64.7903 66.6384 64.7954 66.6384 64.8004C66.6384 64.8055 66.6384 64.8105 66.6384 64.8156C66.6384 64.8206 66.6384 64.8256 66.6384 64.8307C66.6384 64.8357 66.6384 64.8407 66.6384 64.8457C66.6384 64.8507 66.6384 64.8557 66.6384 64.8607C66.6384 64.8657 66.6384 64.8707 66.6384 64.8757C66.6384 64.8807 66.6384 64.8857 66.6384 64.8907C66.6384 64.8956 66.6384 64.9006 66.6384 64.9056C66.6384 64.9105 66.6384 64.9155 66.6384 64.9204C66.6384 64.9254 66.6384 64.9303 66.6384 64.9352C66.6384 64.9402 66.6384 64.9451 66.6384 64.95C66.6384 64.9549 66.6384 64.9598 66.6384 64.9647C66.6384 64.9697 66.6384 64.9745 66.6384 64.9794C66.6384 64.9843 66.6384 64.9892 66.6384 64.9941C66.6384 64.999 66.6384 65.0038 66.6384 65.0087C66.6384 65.0136 66.6384 65.0184 66.6384 65.0233C66.6384 65.0281 66.6384 65.033 66.6384 65.0378C66.6384 65.0426 66.6384 65.0475 66.6384 65.0523C66.6384 65.0571 66.6384 65.0619 66.6384 65.0667C66.6384 65.0715 66.6384 65.0763 66.6384 65.0811C66.6384 65.0859 66.6384 65.0907 66.6384 65.0955C66.6384 65.1003 66.6384 65.105 66.6384 65.1098C66.6384 65.1146 66.6384 65.1193 66.6384 65.1241C66.6384 65.1288 66.6384 65.1336 66.6384 65.1383C66.6384 65.143 66.6384 65.1478 66.6384 65.1525C66.6384 65.1572 66.6384 65.1619 66.6384 65.1666C66.6384 65.1713 66.6384 65.176 66.6384 65.1807C66.6384 65.1854 66.6384 65.1901 66.6384 65.1948C66.6384 65.1994 66.6384 65.2041 66.6384 65.2088C66.6384 65.2134 66.6384 65.2181 66.6384 65.2227C66.6384 65.2274 66.6384 65.232 66.6384 65.2366C66.6384 65.2413 66.6384 65.2459 66.6384 65.2505C66.6384 65.2551 66.6384 65.2597 66.6384 65.2643C66.6384 65.2689 66.6384 65.2735 66.6384 65.2781C66.6384 65.2827 66.6384 65.2872 66.6384 65.2918C66.6384 65.2964 66.6384 65.3009 66.6384 65.3055C66.6384 65.31 66.6384 65.3146 66.6384 65.3191C66.6384 65.3237 66.6384 65.3282 66.6384 65.3327C66.6384 65.3372 66.6384 65.3417 66.6384 65.3462C66.6384 65.3507 66.6384 65.3552 66.6384 65.3597C66.6384 65.3642 66.6384 65.3687 66.6384 65.3732C66.6384 65.3776 66.6384 65.3821 66.6384 65.3866C66.6384 65.391 66.6384 65.3955 66.6384 65.3999C66.6384 65.4043 66.6384 65.4088 66.6384 65.4132C66.6384 65.4176 66.6384 65.422 66.6384 65.4264C66.6384 65.4308 66.6384 65.4352 66.6384 65.4396C66.6384 65.444 66.6384 65.4484 66.6384 65.4528C66.6384 65.4571 66.6384 65.4615 66.6384 65.4659C66.6384 65.4702 66.6384 65.4746 66.6384 65.4789C66.6384 65.4833 66.6384 65.4876 66.6384 65.4919C66.6384 65.4962 66.6384 65.5005 66.6384 65.5049C66.6384 65.5092 66.6384 65.5135 66.6384 65.5177C66.6384 65.522 66.6384 65.5263 66.6384 65.5306C66.6384 65.5349 66.6384 65.5391 66.6384 65.5434C66.6384 65.5476 66.6384 65.5519 66.6384 65.5561C66.6384 65.5603 66.6384 65.5646 66.6384 65.5688C66.6384 65.573 66.6384 65.5772 66.6384 65.5814C66.6384 65.5856 66.6384 65.5898 66.6384 65.594C66.6384 65.5982 66.6384 65.6024 66.6384 65.6065C66.6384 65.6107 66.6384 65.6149 66.6384 65.619C66.6384 65.6232 66.6384 65.6273 66.6384 65.6314C66.6384 65.6356 66.6384 65.6397 66.6384 65.6438C66.6384 65.6479 66.6384 65.652 66.6384 65.6561C66.6384 65.6602 66.6384 65.6643 66.6384 65.6684C66.6384 65.6725 66.6384 65.6765 66.6384 65.6806C66.6384 65.6846 66.6384 65.6887 66.6384 65.6927C66.6384 65.6968 66.6384 65.7008 66.6384 65.7048C66.6384 65.7089 66.6384 65.7129 66.6384 65.7169C66.6384 65.7209 66.6384 65.7249 66.6384 65.7289C66.6384 65.7328 66.6384 65.7368 66.6384 65.7408C66.6384 65.7448 66.6384 65.7487 66.6384 65.7527C66.6384 65.7566 66.6384 65.7605 66.6384 65.7645C66.6384 65.7684 66.6384 65.7723 66.6384 65.7762C66.6384 65.7802 66.6384 65.7841 66.6384 65.7879C66.6384 65.7918 66.6384 65.7957 66.6384 65.7996C66.6384 65.8035 66.6384 65.8073 66.6384 65.8112C66.6384 65.815 66.6384 65.8189 66.6384 65.8227C66.6384 65.8266 66.6384 65.8304 66.6384 65.8342C66.6384 65.838 66.6384 65.8418 66.6384 65.8456C66.6384 65.8494 66.6384 65.8532 66.6384 65.857C66.6384 65.8608 66.6384 65.8645 66.6384 65.8683C66.6384 65.872 66.6384 65.8758 66.6384 65.8795H68.6384ZM68.6384 58.0923C68.6384 56.1985 67.4321 54.3846 64.6811 53.1538L63.8643 54.9795C66.1287 55.9925 66.6384 57.2143 66.6384 58.0923H68.6384ZM64.6811 53.1538C63.3461 52.5566 60.7031 51.7311 57.993 51.0205C55.2783 50.3088 52.3743 49.6802 50.5062 49.5072L50.3218 51.4987C52.0174 51.6557 54.7889 52.248 57.4857 52.9551C60.1871 53.6634 62.6916 54.4548 63.8643 54.9795L64.6811 53.1538ZM50.5062 49.5072C49.592 49.4226 48.6164 49.3798 47.6612 49.3252C46.6926 49.2698 45.7213 49.2015 44.7523 49.067C42.8185 48.7987 40.9395 48.2723 39.2318 47.1039L38.1025 48.7545C40.1565 50.1599 42.369 50.7554 44.4774 51.048C45.5295 51.194 46.5668 51.2659 47.5471 51.3219C48.5408 51.3787 49.4542 51.4184 50.3218 51.4987L50.5062 49.5072ZM39.2318 47.1039C35.5954 44.6158 28.0981 38.218 18.2751 38.218V40.218C27.3263 40.218 34.2156 46.0951 38.1025 48.7545L39.2318 47.1039ZM21.1978 69.4533H44.0916V67.4533H21.1978V69.4533ZM18.2751 38.218C18.2721 38.218 18.2692 38.218 18.2662 38.218C18.2633 38.218 18.2603 38.218 18.2574 38.218C18.2544 38.218 18.2515 38.218 18.2485 38.218C18.2456 38.218 18.2426 38.218 18.2397 38.218C18.2367 38.218 18.2338 38.218 18.2309 38.218C18.2279 38.218 18.225 38.218 18.2221 38.218C18.2191 38.218 18.2162 38.218 18.2133 38.218C18.2104 38.218 18.2074 38.218 18.2045 38.218C18.2016 38.218 18.1987 38.218 18.1958 38.218C18.1928 38.218 18.1899 38.218 18.187 38.218C18.1841 38.218 18.1812 38.218 18.1783 38.218C18.1754 38.218 18.1725 38.218 18.1696 38.218C18.1667 38.218 18.1638 38.218 18.1609 38.218C18.158 38.218 18.1551 38.218 18.1522 38.218C18.1493 38.218 18.1464 38.218 18.1435 38.218C18.1406 38.218 18.1378 38.218 18.1349 38.218C18.132 38.218 18.1291 38.218 18.1262 38.218C18.1234 38.218 18.1205 38.218 18.1176 38.218C18.1148 38.218 18.1119 38.218 18.109 38.218C18.1062 38.218 18.1033 38.218 18.1004 38.218C18.0976 38.218 18.0947 38.218 18.0918 38.218C18.089 38.218 18.0861 38.218 18.0833 38.218C18.0804 38.218 18.0776 38.218 18.0747 38.218C18.0719 38.218 18.069 38.218 18.0662 38.218C18.0634 38.218 18.0605 38.218 18.0577 38.218C18.0548 38.218 18.052 38.218 18.0492 38.218C18.0463 38.218 18.0435 38.218 18.0407 38.218C18.0378 38.218 18.035 38.218 18.0322 38.218C18.0294 38.218 18.0266 38.218 18.0237 38.218C18.0209 38.218 18.0181 38.218 18.0153 38.218C18.0125 38.218 18.0097 38.218 18.0068 38.218C18.004 38.218 18.0012 38.218 17.9984 38.218C17.9956 38.218 17.9928 38.218 17.99 38.218C17.9872 38.218 17.9844 38.218 17.9816 38.218C17.9788 38.218 17.976 38.218 17.9732 38.218C17.9705 38.218 17.9677 38.218 17.9649 38.218C17.9621 38.218 17.9593 38.218 17.9565 38.218C17.9537 38.218 17.951 38.218 17.9482 38.218C17.9454 38.218 17.9426 38.218 17.9399 38.218C17.9371 38.218 17.9343 38.218 17.9315 38.218C17.9288 38.218 17.926 38.218 17.9233 38.218C17.9205 38.218 17.9177 38.218 17.915 38.218C17.9122 38.218 17.9095 38.218 17.9067 38.218C17.9039 38.218 17.9012 38.218 17.8984 38.218C17.8957 38.218 17.8929 38.218 17.8902 38.218C17.8875 38.218 17.8847 38.218 17.882 38.218C17.8792 38.218 17.8765 38.218 17.8737 38.218C17.871 38.218 17.8683 38.218 17.8655 38.218C17.8628 38.218 17.8601 38.218 17.8574 38.218C17.8546 38.218 17.8519 38.218 17.8492 38.218C17.8465 38.218 17.8437 38.218 17.841 38.218C17.8383 38.218 17.8356 38.218 17.8329 38.218C17.8302 38.218 17.8274 38.218 17.8247 38.218C17.822 38.218 17.8193 38.218 17.8166 38.218C17.8139 38.218 17.8112 38.218 17.8085 38.218C17.8058 38.218 17.8031 38.218 17.8004 38.218C17.7977 38.218 17.795 38.218 17.7923 38.218C17.7896 38.218 17.7869 38.218 17.7842 38.218C17.7815 38.218 17.7789 38.218 17.7762 38.218C17.7735 38.218 17.7708 38.218 17.7681 38.218C17.7655 38.218 17.7628 38.218 17.7601 38.218C17.7574 38.218 17.7548 38.218 17.7521 38.218C17.7494 38.218 17.7467 38.218 17.7441 38.218C17.7414 38.218 17.7387 38.218 17.7361 38.218C17.7334 38.218 17.7308 38.218 17.7281 38.218C17.7254 38.218 17.7228 38.218 17.7201 38.218C17.7175 38.218 17.7148 38.218 17.7122 38.218C17.7095 38.218 17.7069 38.218 17.7042 38.218C17.7016 38.218 17.6989 38.218 17.6963 38.218C17.6936 38.218 17.691 38.218 17.6884 38.218C17.6857 38.218 17.6831 38.218 17.6805 38.218C17.6778 38.218 17.6752 38.218 17.6726 38.218C17.6699 38.218 17.6673 38.218 17.6647 38.218C17.6621 38.218 17.6594 38.218 17.6568 38.218C17.6542 38.218 17.6516 38.218 17.649 38.218C17.6463 38.218 17.6437 38.218 17.6411 38.218C17.6385 38.218 17.6359 38.218 17.6333 38.218C17.6307 38.218 17.6281 38.218 17.6255 38.218C17.6229 38.218 17.6202 38.218 17.6176 38.218C17.615 38.218 17.6124 38.218 17.6098 38.218C17.6073 38.218 17.6047 38.218 17.6021 38.218C17.5995 38.218 17.5969 38.218 17.5943 38.218C17.5917 38.218 17.5891 38.218 17.5865 38.218C17.5839 38.218 17.5814 38.218 17.5788 38.218C17.5762 38.218 17.5736 38.218 17.571 38.218C17.5685 38.218 17.5659 38.218 17.5633 38.218C17.5607 38.218 17.5582 38.218 17.5556 38.218C17.553 38.218 17.5505 38.218 17.5479 38.218C17.5453 38.218 17.5428 38.218 17.5402 38.218C17.5376 38.218 17.5351 38.218 17.5325 38.218C17.53 38.218 17.5274 38.218 17.5249 38.218C17.5223 38.218 17.5198 38.218 17.5172 38.218C17.5147 38.218 17.5121 38.218 17.5096 38.218C17.507 38.218 17.5045 38.218 17.5019 38.218C17.4994 38.218 17.4968 38.218 17.4943 38.218C17.4918 38.218 17.4892 38.218 17.4867 38.218C17.4842 38.218 17.4816 38.218 17.4791 38.218C17.4766 38.218 17.474 38.218 17.4715 38.218C17.469 38.218 17.4665 38.218 17.4639 38.218C17.4614 38.218 17.4589 38.218 17.4564 38.218C17.4539 38.218 17.4513 38.218 17.4488 38.218C17.4463 38.218 17.4438 38.218 17.4413 38.218C17.4388 38.218 17.4363 38.218 17.4337 38.218C17.4312 38.218 17.4287 38.218 17.4262 38.218C17.4237 38.218 17.4212 38.218 17.4187 38.218C17.4162 38.218 17.4137 38.218 17.4112 38.218C17.4087 38.218 17.4062 38.218 17.4037 38.218C17.4012 38.218 17.3987 38.218 17.3963 38.218C17.3938 38.218 17.3913 38.218 17.3888 38.218C17.3863 38.218 17.3838 38.218 17.3813 38.218C17.3789 38.218 17.3764 38.218 17.3739 38.218C17.3714 38.218 17.3689 38.218 17.3665 38.218C17.364 38.218 17.3615 38.218 17.359 38.218C17.3566 38.218 17.3541 38.218 17.3516 38.218C17.3492 38.218 17.3467 38.218 17.3442 38.218C17.3418 38.218 17.3393 38.218 17.3368 38.218C17.3344 38.218 17.3319 38.218 17.3295 38.218C17.327 38.218 17.3245 38.218 17.3221 38.218C17.3196 38.218 17.3172 38.218 17.3147 38.218C17.3123 38.218 17.3098 38.218 17.3074 38.218C17.3049 38.218 17.3025 38.218 17.3 38.218C17.2976 38.218 17.2951 38.218 17.2927 38.218C17.2903 38.218 17.2878 38.218 17.2854 38.218C17.283 38.218 17.2805 38.218 17.2781 38.218C17.2756 38.218 17.2732 38.218 17.2708 38.218C17.2684 38.218 17.2659 38.218 17.2635 38.218C17.2611 38.218 17.2586 38.218 17.2562 38.218C17.2538 38.218 17.2514 38.218 17.249 38.218C17.2465 38.218 17.2441 38.218 17.2417 38.218C17.2393 38.218 17.2369 38.218 17.2345 38.218C17.232 38.218 17.2296 38.218 17.2272 38.218C17.2248 38.218 17.2224 38.218 17.22 38.218C17.2176 38.218 17.2152 38.218 17.2128 38.218C17.2104 38.218 17.208 38.218 17.2056 38.218C17.2032 38.218 17.2008 38.218 17.1984 38.218C17.196 38.218 17.1936 38.218 17.1912 38.218C17.1888 38.218 17.1864 38.218 17.184 38.218C17.1816 38.218 17.1792 38.218 17.1768 38.218C17.1744 38.218 17.1721 38.218 17.1697 38.218C17.1673 38.218 17.1649 38.218 17.1625 38.218C17.1601 38.218 17.1578 38.218 17.1554 38.218C17.153 38.218 17.1506 38.218 17.1483 38.218C17.1459 38.218 17.1435 38.218 17.1411 38.218C17.1388 38.218 17.1364 38.218 17.134 38.218C17.1317 38.218 17.1293 38.218 17.1269 38.218C17.1246 38.218 17.1222 38.218 17.1198 38.218C17.1175 38.218 17.1151 38.218 17.1128 38.218C17.1104 38.218 17.108 38.218 17.1057 38.218C17.1033 38.218 17.101 38.218 17.0986 38.218C17.0963 38.218 17.0939 38.218 17.0916 38.218C17.0892 38.218 17.0869 38.218 17.0845 38.218C17.0822 38.218 17.0798 38.218 17.0775 38.218C17.0751 38.218 17.0728 38.218 17.0705 38.218C17.0681 38.218 17.0658 38.218 17.0634 38.218C17.0611 38.218 17.0588 38.218 17.0564 38.218C17.0541 38.218 17.0518 38.218 17.0494 38.218C17.0471 38.218 17.0448 38.218 17.0424 38.218C17.0401 38.218 17.0378 38.218 17.0354 38.218C17.0331 38.218 17.0308 38.218 17.0285 38.218C17.0261 38.218 17.0238 38.218 17.0215 38.218C17.0192 38.218 17.0169 38.218 17.0146 38.218C17.0122 38.218 17.0099 38.218 17.0076 38.218C17.0053 38.218 17.003 38.218 17.0007 38.218C16.9984 38.218 16.996 38.218 16.9937 38.218C16.9914 38.218 16.9891 38.218 16.9868 38.218C16.9845 38.218 16.9822 38.218 16.9799 38.218C16.9776 38.218 16.9753 38.218 16.973 38.218C16.9707 38.218 16.9684 38.218 16.9661 38.218C16.9638 38.218 16.9615 38.218 16.9592 38.218C16.9569 38.218 16.9546 38.218 16.9523 38.218C16.95 38.218 16.9477 38.218 16.9455 38.218C16.9432 38.218 16.9409 38.218 16.9386 38.218C16.9363 38.218 16.934 38.218 16.9317 38.218C16.9295 38.218 16.9272 38.218 16.9249 38.218C16.9226 38.218 16.9203 38.218 16.9181 38.218C16.9158 38.218 16.9135 38.218 16.9112 38.218C16.9089 38.218 16.9067 38.218 16.9044 38.218C16.9021 38.218 16.8999 38.218 16.8976 38.218C16.8953 38.218 16.893 38.218 16.8908 38.218C16.8885 38.218 16.8862 38.218 16.884 38.218C16.8817 38.218 16.8795 38.218 16.8772 38.218C16.8749 38.218 16.8727 38.218 16.8704 38.218C16.8682 38.218 16.8659 38.218 16.8636 38.218C16.8614 38.218 16.8591 38.218 16.8569 38.218C16.8546 38.218 16.8524 38.218 16.8501 38.218C16.8479 38.218 16.8456 38.218 16.8434 38.218C16.8411 38.218 16.8389 38.218 16.8366 38.218C16.8344 38.218 16.8321 38.218 16.8299 38.218C16.8276 38.218 16.8254 38.218 16.8232 38.218C16.8209 38.218 16.8187 38.218 16.8164 38.218C16.8142 38.218 16.812 38.218 16.8097 38.218C16.8075 38.218 16.8052 38.218 16.803 38.218C16.8008 38.218 16.7985 38.218 16.7963 38.218C16.7941 38.218 16.7919 38.218 16.7896 38.218C16.7874 38.218 16.7852 38.218 16.7829 38.218C16.7807 38.218 16.7785 38.218 16.7763 38.218C16.774 38.218 16.7718 38.218 16.7696 38.218C16.7674 38.218 16.7652 38.218 16.7629 38.218C16.7607 38.218 16.7585 38.218 16.7563 38.218C16.7541 38.218 16.7518 38.218 16.7496 38.218C16.7474 38.218 16.7452 38.218 16.743 38.218C16.7408 38.218 16.7386 38.218 16.7364 38.218C16.7341 38.218 16.7319 38.218 16.7297 38.218C16.7275 38.218 16.7253 38.218 16.7231 38.218C16.7209 38.218 16.7187 38.218 16.7165 38.218C16.7143 38.218 16.7121 38.218 16.7099 38.218C16.7077 38.218 16.7055 38.218 16.7033 38.218C16.7011 38.218 16.6989 38.218 16.6967 38.218C16.6945 38.218 16.6923 38.218 16.6901 38.218C16.6879 38.218 16.6857 38.218 16.6835 38.218C16.6814 38.218 16.6792 38.218 16.677 38.218C16.6748 38.218 16.6726 38.218 16.6704 38.218C16.6682 38.218 16.666 38.218 16.6638 38.218C16.6617 38.218 16.6595 38.218 16.6573 38.218C16.6551 38.218 16.6529 38.218 16.6508 38.218C16.6486 38.218 16.6464 38.218 16.6442 38.218C16.642 38.218 16.6399 38.218 16.6377 38.218C16.6355 38.218 16.6333 38.218 16.6312 38.218C16.629 38.218 16.6268 38.218 16.6246 38.218C16.6225 38.218 16.6203 38.218 16.6181 38.218C16.616 38.218 16.6138 38.218 16.6116 38.218C16.6094 38.218 16.6073 38.218 16.6051 38.218C16.603 38.218 16.6008 38.218 16.5986 38.218C16.5965 38.218 16.5943 38.218 16.5921 38.218C16.59 38.218 16.5878 38.218 16.5857 38.218C16.5835 38.218 16.5813 38.218 16.5792 38.218C16.577 38.218 16.5749 38.218 16.5727 38.218C16.5706 38.218 16.5684 38.218 16.5662 38.218C16.5641 38.218 16.5619 38.218 16.5598 38.218C16.5576 38.218 16.5555 38.218 16.5533 38.218C16.5512 38.218 16.549 38.218 16.5469 38.218C16.5447 38.218 16.5426 38.218 16.5404 38.218C16.5383 38.218 16.5362 38.218 16.534 38.218C16.5319 38.218 16.5297 38.218 16.5276 38.218C16.5254 38.218 16.5233 38.218 16.5212 38.218C16.519 38.218 16.5169 38.218 16.5147 38.218C16.5126 38.218 16.5105 38.218 16.5083 38.218C16.5062 38.218 16.5041 38.218 16.5019 38.218C16.4998 38.218 16.4977 38.218 16.4955 38.218C16.4934 38.218 16.4913 38.218 16.4891 38.218C16.487 38.218 16.4849 38.218 16.4827 38.218C16.4806 38.218 16.4785 38.218 16.4764 38.218C16.4742 38.218 16.4721 38.218 16.47 38.218C16.4679 38.218 16.4657 38.218 16.4636 38.218C16.4615 38.218 16.4594 38.218 16.4572 38.218C16.4551 38.218 16.453 38.218 16.4509 38.218C16.4488 38.218 16.4466 38.218 16.4445 38.218C16.4424 38.218 16.4403 38.218 16.4382 38.218C16.4361 38.218 16.4339 38.218 16.4318 38.218C16.4297 38.218 16.4276 38.218 16.4255 38.218C16.4234 38.218 16.4213 38.218 16.4191 38.218C16.417 38.218 16.4149 38.218 16.4128 38.218C16.4107 38.218 16.4086 38.218 16.4065 38.218C16.4044 38.218 16.4023 38.218 16.4002 38.218C16.3981 38.218 16.3959 38.218 16.3938 38.218C16.3917 38.218 16.3896 38.218 16.3875 38.218C16.3854 38.218 16.3833 38.218 16.3812 38.218C16.3791 38.218 16.377 38.218 16.3749 38.218C16.3728 38.218 16.3707 38.218 16.3686 38.218C16.3665 38.218 16.3644 38.218 16.3623 38.218C16.3602 38.218 16.3581 38.218 16.356 38.218C16.3539 38.218 16.3519 38.218 16.3498 38.218C16.3477 38.218 16.3456 38.218 16.3435 38.218C16.3414 38.218 16.3393 38.218 16.3372 38.218C16.3351 38.218 16.333 38.218 16.3309 38.218C16.3288 38.218 16.3268 38.218 16.3247 38.218C16.3226 38.218 16.3205 38.218 16.3184 38.218C16.3163 38.218 16.3142 38.218 16.3121 38.218C16.3101 38.218 16.308 38.218 16.3059 38.218C16.3038 38.218 16.3017 38.218 16.2996 38.218C16.2976 38.218 16.2955 38.218 16.2934 38.218C16.2913 38.218 16.2892 38.218 16.2872 38.218C16.2851 38.218 16.283 38.218 16.2809 38.218C16.2789 38.218 16.2768 38.218 16.2747 38.218C16.2726 38.218 16.2705 38.218 16.2685 38.218C16.2664 38.218 16.2643 38.218 16.2622 38.218C16.2602 38.218 16.2581 38.218 16.256 38.218C16.254 38.218 16.2519 38.218 16.2498 38.218C16.2477 38.218 16.2457 38.218 16.2436 38.218C16.2415 38.218 16.2395 38.218 16.2374 38.218C16.2353 38.218 16.2333 38.218 16.2312 38.218C16.2291 38.218 16.2271 38.218 16.225 38.218C16.2229 38.218 16.2209 38.218 16.2188 38.218C16.2167 38.218 16.2147 38.218 16.2126 38.218C16.2105 38.218 16.2085 38.218 16.2064 38.218C16.2043 38.218 16.2023 38.218 16.2002 38.218C16.1982 38.218 16.1961 38.218 16.194 38.218C16.192 38.218 16.1899 38.218 16.1879 38.218C16.1858 38.218 16.1837 38.218 16.1817 38.218C16.1796 38.218 16.1776 38.218 16.1755 38.218C16.1735 38.218 16.1714 38.218 16.1694 38.218C16.1673 38.218 16.1652 38.218 16.1632 38.218C16.1611 38.218 16.1591 38.218 16.157 38.218C16.155 38.218 16.1529 38.218 16.1509 38.218C16.1488 38.218 16.1468 38.218 16.1447 38.218C16.1427 38.218 16.1406 38.218 16.1386 38.218C16.1365 38.218 16.1345 38.218 16.1324 38.218C16.1304 38.218 16.1283 38.218 16.1263 38.218C16.1242 38.218 16.1222 38.218 16.1201 38.218C16.1181 38.218 16.116 38.218 16.114 38.218C16.1119 38.218 16.1099 38.218 16.1079 38.218C16.1058 38.218 16.1038 38.218 16.1017 38.218C16.0997 38.218 16.0976 38.218 16.0956 38.218C16.0935 38.218 16.0915 38.218 16.0895 38.218C16.0874 38.218 16.0854 38.218 16.0833 38.218C16.0813 38.218 16.0793 38.218 16.0772 38.218C16.0752 38.218 16.0731 38.218 16.0711 38.218C16.0691 38.218 16.067 38.218 16.065 38.218C16.0629 38.218 16.0609 38.218 16.0589 38.218C16.0568 38.218 16.0548 38.218 16.0528 38.218C16.0507 38.218 16.0487 38.218 16.0467 38.218C16.0446 38.218 16.0426 38.218 16.0405 38.218C16.0385 38.218 16.0365 38.218 16.0344 38.218C16.0324 38.218 16.0304 38.218 16.0283 38.218C16.0263 38.218 16.0243 38.218 16.0222 38.218C16.0202 38.218 16.0182 38.218 16.0162 38.218C16.0141 38.218 16.0121 38.218 16.0101 38.218C16.008 38.218 16.006 38.218 16.004 38.218C16.0019 38.218 15.9999 38.218 15.9979 38.218C15.9959 38.218 15.9938 38.218 15.9918 38.218C15.9898 38.218 15.9877 38.218 15.9857 38.218C15.9837 38.218 15.9817 38.218 15.9796 38.218C15.9776 38.218 15.9756 38.218 15.9736 38.218C15.9715 38.218 15.9695 38.218 15.9675 38.218C15.9654 38.218 15.9634 38.218 15.9614 38.218C15.9594 38.218 15.9573 38.218 15.9553 38.218C15.9533 38.218 15.9513 38.218 15.9493 38.218C15.9472 38.218 15.9452 38.218 15.9432 38.218C15.9412 38.218 15.9391 38.218 15.9371 38.218C15.9351 38.218 15.9331 38.218 15.9311 38.218C15.929 38.218 15.927 38.218 15.925 38.218C15.923 38.218 15.9209 38.218 15.9189 38.218C15.9169 38.218 15.9149 38.218 15.9129 38.218C15.9108 38.218 15.9088 38.218 15.9068 38.218C15.9048 38.218 15.9028 38.218 15.9007 38.218C15.8987 38.218 15.8967 38.218 15.8947 38.218C15.8927 38.218 15.8907 38.218 15.8886 38.218C15.8866 38.218 15.8846 38.218 15.8826 38.218C15.8806 38.218 15.8786 38.218 15.8765 38.218C15.8745 38.218 15.8725 38.218 15.8705 38.218C15.8685 38.218 15.8665 38.218 15.8644 38.218C15.8624 38.218 15.8604 38.218 15.8584 38.218C15.8564 38.218 15.8544 38.218 15.8523 38.218C15.8503 38.218 15.8483 38.218 15.8463 38.218C15.8443 38.218 15.8423 38.218 15.8403 38.218C15.8382 38.218 15.8362 38.218 15.8342 38.218C15.8322 38.218 15.8302 38.218 15.8282 38.218C15.8262 38.218 15.8241 38.218 15.8221 38.218C15.8201 38.218 15.8181 38.218 15.8161 38.218C15.8141 38.218 15.8121 38.218 15.8101 38.218C15.808 38.218 15.806 38.218 15.804 38.218C15.802 38.218 15.8 38.218 15.798 38.218C15.796 38.218 15.794 38.218 15.7919 38.218C15.7899 38.218 15.7879 38.218 15.7859 38.218C15.7839 38.218 15.7819 38.218 15.7799 38.218C15.7779 38.218 15.7759 38.218 15.7739 38.218C15.7718 38.218 15.7698 38.218 15.7678 38.218C15.7658 38.218 15.7638 38.218 15.7618 38.218C15.7598 38.218 15.7578 38.218 15.7558 38.218C15.7537 38.218 15.7517 38.218 15.7497 38.218C15.7477 38.218 15.7457 38.218 15.7437 38.218C15.7417 38.218 15.7397 38.218 15.7377 38.218C15.7357 38.218 15.7337 38.218 15.7316 38.218C15.7296 38.218 15.7276 38.218 15.7256 38.218C15.7236 38.218 15.7216 38.218 15.7196 38.218C15.7176 38.218 15.7156 38.218 15.7136 38.218C15.7116 38.218 15.7095 38.218 15.7075 38.218C15.7055 38.218 15.7035 38.218 15.7015 38.218C15.6995 38.218 15.6975 38.218 15.6955 38.218C15.6935 38.218 15.6915 38.218 15.6895 38.218C15.6874 38.218 15.6854 38.218 15.6834 38.218C15.6814 38.218 15.6794 38.218 15.6774 38.218C15.6754 38.218 15.6734 38.218 15.6714 38.218C15.6694 38.218 15.6674 38.218 15.6654 38.218C15.6633 38.218 15.6613 38.218 15.6593 38.218C15.6573 38.218 15.6553 38.218 15.6533 38.218C15.6513 38.218 15.6493 38.218 15.6473 38.218C15.6453 38.218 15.6433 38.218 15.6413 38.218C15.6392 38.218 15.6372 38.218 15.6352 38.218C15.6332 38.218 15.6312 38.218 15.6292 38.218C15.6272 38.218 15.6252 38.218 15.6232 38.218C15.6212 38.218 15.6192 38.218 15.6171 38.218C15.6151 38.218 15.6131 38.218 15.6111 38.218C15.6091 38.218 15.6071 38.218 15.6051 38.218C15.6031 38.218 15.6011 38.218 15.5991 38.218C15.5971 38.218 15.595 38.218 15.593 38.218C15.591 38.218 15.589 38.218 15.587 38.218C15.585 38.218 15.583 38.218 15.581 38.218C15.579 38.218 15.577 38.218 15.5749 38.218C15.5729 38.218 15.5709 38.218 15.5689 38.218C15.5669 38.218 15.5649 38.218 15.5629 38.218C15.5609 38.218 15.5589 38.218 15.5569 38.218C15.5548 38.218 15.5528 38.218 15.5508 38.218C15.5488 38.218 15.5468 38.218 15.5448 38.218C15.5428 38.218 15.5408 38.218 15.5388 38.218C15.5367 38.218 15.5347 38.218 15.5327 38.218C15.5307 38.218 15.5287 38.218 15.5267 38.218C15.5247 38.218 15.5227 38.218 15.5206 38.218C15.5186 38.218 15.5166 38.218 15.5146 38.218C15.5126 38.218 15.5106 38.218 15.5086 38.218C15.5066 38.218 15.5045 38.218 15.5025 38.218C15.5005 38.218 15.4985 38.218 15.4965 38.218C15.4945 38.218 15.4925 38.218 15.4904 38.218C15.4884 38.218 15.4864 38.218 15.4844 38.218C15.4824 38.218 15.4804 38.218 15.4784 38.218C15.4763 38.218 15.4743 38.218 15.4723 38.218C15.4703 38.218 15.4683 38.218 15.4663 38.218C15.4643 38.218 15.4622 38.218 15.4602 38.218C15.4582 38.218 15.4562 38.218 15.4542 38.218C15.4522 38.218 15.4501 38.218 15.4481 38.218C15.4461 38.218 15.4441 38.218 15.4421 38.218C15.44 38.218 15.438 38.218 15.436 38.218C15.434 38.218 15.432 38.218 15.43 38.218C15.4279 38.218 15.4259 38.218 15.4239 38.218C15.4219 38.218 15.4199 38.218 15.4178 38.218C15.4158 38.218 15.4138 38.218 15.4118 38.218C15.4098 38.218 15.4077 38.218 15.4057 38.218C15.4037 38.218 15.4017 38.218 15.3997 38.218C15.3976 38.218 15.3956 38.218 15.3936 38.218C15.3916 38.218 15.3895 38.218 15.3875 38.218C15.3855 38.218 15.3835 38.218 15.3814 38.218C15.3794 38.218 15.3774 38.218 15.3754 38.218C15.3734 38.218 15.3713 38.218 15.3693 38.218C15.3673 38.218 15.3653 38.218 15.3632 38.218C15.3612 38.218 15.3592 38.218 15.3571 38.218C15.3551 38.218 15.3531 38.218 15.3511 38.218C15.349 38.218 15.347 38.218 15.345 38.218C15.343 38.218 15.3409 38.218 15.3389 38.218C15.3369 38.218 15.3348 38.218 15.3328 38.218C15.3308 38.218 15.3288 38.218 15.3267 38.218C15.3247 38.218 15.3227 38.218 15.3206 38.218C15.3186 38.218 15.3166 38.218 15.3145 38.218C15.3125 38.218 15.3105 38.218 15.3084 38.218C15.3064 38.218 15.3044 38.218 15.3024 38.218C15.3003 38.218 15.2983 38.218 15.2963 38.218C15.2942 38.218 15.2922 38.218 15.2901 38.218C15.2881 38.218 15.2861 38.218 15.284 38.218C15.282 38.218 15.28 38.218 15.2779 38.218C15.2759 38.218 15.2739 38.218 15.2718 38.218C15.2698 38.218 15.2677 38.218 15.2657 38.218C15.2637 38.218 15.2616 38.218 15.2596 38.218C15.2576 38.218 15.2555 38.218 15.2535 38.218C15.2514 38.218 15.2494 38.218 15.2474 38.218C15.2453 38.218 15.2433 38.218 15.2412 38.218C15.2392 38.218 15.2371 38.218 15.2351 38.218C15.2331 38.218 15.231 38.218 15.229 38.218C15.2269 38.218 15.2249 38.218 15.2228 38.218C15.2208 38.218 15.2188 38.218 15.2167 38.218C15.2147 38.218 15.2126 38.218 15.2106 38.218C15.2085 38.218 15.2065 38.218 15.2044 38.218C15.2024 38.218 15.2003 38.218 15.1983 38.218C15.1962 38.218 15.1942 38.218 15.1921 38.218C15.1901 38.218 15.188 38.218 15.186 38.218C15.1839 38.218 15.1819 38.218 15.1798 38.218C15.1778 38.218 15.1757 38.218 15.1737 38.218C15.1716 38.218 15.1696 38.218 15.1675 38.218C15.1654 38.218 15.1634 38.218 15.1613 38.218C15.1593 38.218 15.1572 38.218 15.1552 38.218C15.1531 38.218 15.1511 38.218 15.149 38.218C15.1469 38.218 15.1449 38.218 15.1428 38.218C15.1408 38.218 15.1387 38.218 15.1366 38.218C15.1346 38.218 15.1325 38.218 15.1305 38.218C15.1284 38.218 15.1263 38.218 15.1243 38.218C15.1222 38.218 15.1202 38.218 15.1181 38.218C15.116 38.218 15.114 38.218 15.1119 38.218C15.1098 38.218 15.1078 38.218 15.1057 38.218C15.1036 38.218 15.1016 38.218 15.0995 38.218C15.0974 38.218 15.0954 38.218 15.0933 38.218C15.0912 38.218 15.0892 38.218 15.0871 38.218C15.085 38.218 15.0829 38.218 15.0809 38.218C15.0788 38.218 15.0767 38.218 15.0747 38.218C15.0726 38.218 15.0705 38.218 15.0684 38.218C15.0664 38.218 15.0643 38.218 15.0622 38.218C15.0601 38.218 15.0581 38.218 15.056 38.218C15.0539 38.218 15.0518 38.218 15.0498 38.218C15.0477 38.218 15.0456 38.218 15.0435 38.218C15.0414 38.218 15.0394 38.218 15.0373 38.218C15.0352 38.218 15.0331 38.218 15.031 38.218C15.029 38.218 15.0269 38.218 15.0248 38.218C15.0227 38.218 15.0206 38.218 15.0185 38.218C15.0164 38.218 15.0144 38.218 15.0123 38.218C15.0102 38.218 15.0081 38.218 15.006 38.218C15.0039 38.218 15.0018 38.218 14.9997 38.218C14.9977 38.218 14.9956 38.218 14.9935 38.218C14.9914 38.218 14.9893 38.218 14.9872 38.218C14.9851 38.218 14.983 38.218 14.9809 38.218C14.9788 38.218 14.9767 38.218 14.9746 38.218C14.9725 38.218 14.9704 38.218 14.9683 38.218C14.9662 38.218 14.9642 38.218 14.9621 38.218C14.96 38.218 14.9579 38.218 14.9558 38.218C14.9537 38.218 14.9516 38.218 14.9495 38.218C14.9473 38.218 14.9452 38.218 14.9431 38.218C14.941 38.218 14.9389 38.218 14.9368 38.218C14.9347 38.218 14.9326 38.218 14.9305 38.218C14.9284 38.218 14.9263 38.218 14.9242 38.218C14.9221 38.218 14.92 38.218 14.9179 38.218C14.9158 38.218 14.9136 38.218 14.9115 38.218C14.9094 38.218 14.9073 38.218 14.9052 38.218C14.9031 38.218 14.901 38.218 14.8989 38.218C14.8967 38.218 14.8946 38.218 14.8925 38.218C14.8904 38.218 14.8883 38.218 14.8862 38.218C14.884 38.218 14.8819 38.218 14.8798 38.218C14.8777 38.218 14.8756 38.218 14.8734 38.218C14.8713 38.218 14.8692 38.218 14.8671 38.218C14.8649 38.218 14.8628 38.218 14.8607 38.218C14.8586 38.218 14.8564 38.218 14.8543 38.218C14.8522 38.218 14.8501 38.218 14.8479 38.218C14.8458 38.218 14.8437 38.218 14.8415 38.218C14.8394 38.218 14.8373 38.218 14.8351 38.218C14.833 38.218 14.8309 38.218 14.8287 38.218C14.8266 38.218 14.8245 38.218 14.8223 38.218C14.8202 38.218 14.8181 38.218 14.8159 38.218V40.218C14.8181 40.218 14.8202 40.218 14.8223 40.218C14.8245 40.218 14.8266 40.218 14.8287 40.218C14.8309 40.218 14.833 40.218 14.8351 40.218C14.8373 40.218 14.8394 40.218 14.8415 40.218C14.8437 40.218 14.8458 40.218 14.8479 40.218C14.8501 40.218 14.8522 40.218 14.8543 40.218C14.8564 40.218 14.8586 40.218 14.8607 40.218C14.8628 40.218 14.8649 40.218 14.8671 40.218C14.8692 40.218 14.8713 40.218 14.8734 40.218C14.8756 40.218 14.8777 40.218 14.8798 40.218C14.8819 40.218 14.884 40.218 14.8862 40.218C14.8883 40.218 14.8904 40.218 14.8925 40.218C14.8946 40.218 14.8967 40.218 14.8989 40.218C14.901 40.218 14.9031 40.218 14.9052 40.218C14.9073 40.218 14.9094 40.218 14.9115 40.218C14.9136 40.218 14.9158 40.218 14.9179 40.218C14.92 40.218 14.9221 40.218 14.9242 40.218C14.9263 40.218 14.9284 40.218 14.9305 40.218C14.9326 40.218 14.9347 40.218 14.9368 40.218C14.9389 40.218 14.941 40.218 14.9431 40.218C14.9452 40.218 14.9473 40.218 14.9495 40.218C14.9516 40.218 14.9537 40.218 14.9558 40.218C14.9579 40.218 14.96 40.218 14.9621 40.218C14.9642 40.218 14.9662 40.218 14.9683 40.218C14.9704 40.218 14.9725 40.218 14.9746 40.218C14.9767 40.218 14.9788 40.218 14.9809 40.218C14.983 40.218 14.9851 40.218 14.9872 40.218C14.9893 40.218 14.9914 40.218 14.9935 40.218C14.9956 40.218 14.9977 40.218 14.9997 40.218C15.0018 40.218 15.0039 40.218 15.006 40.218C15.0081 40.218 15.0102 40.218 15.0123 40.218C15.0144 40.218 15.0164 40.218 15.0185 40.218C15.0206 40.218 15.0227 40.218 15.0248 40.218C15.0269 40.218 15.029 40.218 15.031 40.218C15.0331 40.218 15.0352 40.218 15.0373 40.218C15.0394 40.218 15.0414 40.218 15.0435 40.218C15.0456 40.218 15.0477 40.218 15.0498 40.218C15.0518 40.218 15.0539 40.218 15.056 40.218C15.0581 40.218 15.0601 40.218 15.0622 40.218C15.0643 40.218 15.0664 40.218 15.0684 40.218C15.0705 40.218 15.0726 40.218 15.0747 40.218C15.0767 40.218 15.0788 40.218 15.0809 40.218C15.0829 40.218 15.085 40.218 15.0871 40.218C15.0892 40.218 15.0912 40.218 15.0933 40.218C15.0954 40.218 15.0974 40.218 15.0995 40.218C15.1016 40.218 15.1036 40.218 15.1057 40.218C15.1078 40.218 15.1098 40.218 15.1119 40.218C15.114 40.218 15.116 40.218 15.1181 40.218C15.1202 40.218 15.1222 40.218 15.1243 40.218C15.1263 40.218 15.1284 40.218 15.1305 40.218C15.1325 40.218 15.1346 40.218 15.1366 40.218C15.1387 40.218 15.1408 40.218 15.1428 40.218C15.1449 40.218 15.1469 40.218 15.149 40.218C15.1511 40.218 15.1531 40.218 15.1552 40.218C15.1572 40.218 15.1593 40.218 15.1613 40.218C15.1634 40.218 15.1654 40.218 15.1675 40.218C15.1696 40.218 15.1716 40.218 15.1737 40.218C15.1757 40.218 15.1778 40.218 15.1798 40.218C15.1819 40.218 15.1839 40.218 15.186 40.218C15.188 40.218 15.1901 40.218 15.1921 40.218C15.1942 40.218 15.1962 40.218 15.1983 40.218C15.2003 40.218 15.2024 40.218 15.2044 40.218C15.2065 40.218 15.2085 40.218 15.2106 40.218C15.2126 40.218 15.2147 40.218 15.2167 40.218C15.2188 40.218 15.2208 40.218 15.2228 40.218C15.2249 40.218 15.2269 40.218 15.229 40.218C15.231 40.218 15.2331 40.218 15.2351 40.218C15.2371 40.218 15.2392 40.218 15.2412 40.218C15.2433 40.218 15.2453 40.218 15.2474 40.218C15.2494 40.218 15.2514 40.218 15.2535 40.218C15.2555 40.218 15.2576 40.218 15.2596 40.218C15.2616 40.218 15.2637 40.218 15.2657 40.218C15.2677 40.218 15.2698 40.218 15.2718 40.218C15.2739 40.218 15.2759 40.218 15.2779 40.218C15.28 40.218 15.282 40.218 15.284 40.218C15.2861 40.218 15.2881 40.218 15.2901 40.218C15.2922 40.218 15.2942 40.218 15.2963 40.218C15.2983 40.218 15.3003 40.218 15.3024 40.218C15.3044 40.218 15.3064 40.218 15.3084 40.218C15.3105 40.218 15.3125 40.218 15.3145 40.218C15.3166 40.218 15.3186 40.218 15.3206 40.218C15.3227 40.218 15.3247 40.218 15.3267 40.218C15.3288 40.218 15.3308 40.218 15.3328 40.218C15.3348 40.218 15.3369 40.218 15.3389 40.218C15.3409 40.218 15.343 40.218 15.345 40.218C15.347 40.218 15.349 40.218 15.3511 40.218C15.3531 40.218 15.3551 40.218 15.3571 40.218C15.3592 40.218 15.3612 40.218 15.3632 40.218C15.3653 40.218 15.3673 40.218 15.3693 40.218C15.3713 40.218 15.3734 40.218 15.3754 40.218C15.3774 40.218 15.3794 40.218 15.3814 40.218C15.3835 40.218 15.3855 40.218 15.3875 40.218C15.3895 40.218 15.3916 40.218 15.3936 40.218C15.3956 40.218 15.3976 40.218 15.3997 40.218C15.4017 40.218 15.4037 40.218 15.4057 40.218C15.4077 40.218 15.4098 40.218 15.4118 40.218C15.4138 40.218 15.4158 40.218 15.4178 40.218C15.4199 40.218 15.4219 40.218 15.4239 40.218C15.4259 40.218 15.4279 40.218 15.43 40.218C15.432 40.218 15.434 40.218 15.436 40.218C15.438 40.218 15.44 40.218 15.4421 40.218C15.4441 40.218 15.4461 40.218 15.4481 40.218C15.4501 40.218 15.4522 40.218 15.4542 40.218C15.4562 40.218 15.4582 40.218 15.4602 40.218C15.4622 40.218 15.4643 40.218 15.4663 40.218C15.4683 40.218 15.4703 40.218 15.4723 40.218C15.4743 40.218 15.4763 40.218 15.4784 40.218C15.4804 40.218 15.4824 40.218 15.4844 40.218C15.4864 40.218 15.4884 40.218 15.4904 40.218C15.4925 40.218 15.4945 40.218 15.4965 40.218C15.4985 40.218 15.5005 40.218 15.5025 40.218C15.5045 40.218 15.5066 40.218 15.5086 40.218C15.5106 40.218 15.5126 40.218 15.5146 40.218C15.5166 40.218 15.5186 40.218 15.5206 40.218C15.5227 40.218 15.5247 40.218 15.5267 40.218C15.5287 40.218 15.5307 40.218 15.5327 40.218C15.5347 40.218 15.5367 40.218 15.5388 40.218C15.5408 40.218 15.5428 40.218 15.5448 40.218C15.5468 40.218 15.5488 40.218 15.5508 40.218C15.5528 40.218 15.5548 40.218 15.5569 40.218C15.5589 40.218 15.5609 40.218 15.5629 40.218C15.5649 40.218 15.5669 40.218 15.5689 40.218C15.5709 40.218 15.5729 40.218 15.5749 40.218C15.577 40.218 15.579 40.218 15.581 40.218C15.583 40.218 15.585 40.218 15.587 40.218C15.589 40.218 15.591 40.218 15.593 40.218C15.595 40.218 15.5971 40.218 15.5991 40.218C15.6011 40.218 15.6031 40.218 15.6051 40.218C15.6071 40.218 15.6091 40.218 15.6111 40.218C15.6131 40.218 15.6151 40.218 15.6171 40.218C15.6192 40.218 15.6212 40.218 15.6232 40.218C15.6252 40.218 15.6272 40.218 15.6292 40.218C15.6312 40.218 15.6332 40.218 15.6352 40.218C15.6372 40.218 15.6392 40.218 15.6413 40.218C15.6433 40.218 15.6453 40.218 15.6473 40.218C15.6493 40.218 15.6513 40.218 15.6533 40.218C15.6553 40.218 15.6573 40.218 15.6593 40.218C15.6613 40.218 15.6633 40.218 15.6654 40.218C15.6674 40.218 15.6694 40.218 15.6714 40.218C15.6734 40.218 15.6754 40.218 15.6774 40.218C15.6794 40.218 15.6814 40.218 15.6834 40.218C15.6854 40.218 15.6874 40.218 15.6895 40.218C15.6915 40.218 15.6935 40.218 15.6955 40.218C15.6975 40.218 15.6995 40.218 15.7015 40.218C15.7035 40.218 15.7055 40.218 15.7075 40.218C15.7095 40.218 15.7116 40.218 15.7136 40.218C15.7156 40.218 15.7176 40.218 15.7196 40.218C15.7216 40.218 15.7236 40.218 15.7256 40.218C15.7276 40.218 15.7296 40.218 15.7316 40.218C15.7337 40.218 15.7357 40.218 15.7377 40.218C15.7397 40.218 15.7417 40.218 15.7437 40.218C15.7457 40.218 15.7477 40.218 15.7497 40.218C15.7517 40.218 15.7537 40.218 15.7558 40.218C15.7578 40.218 15.7598 40.218 15.7618 40.218C15.7638 40.218 15.7658 40.218 15.7678 40.218C15.7698 40.218 15.7718 40.218 15.7739 40.218C15.7759 40.218 15.7779 40.218 15.7799 40.218C15.7819 40.218 15.7839 40.218 15.7859 40.218C15.7879 40.218 15.7899 40.218 15.7919 40.218C15.794 40.218 15.796 40.218 15.798 40.218C15.8 40.218 15.802 40.218 15.804 40.218C15.806 40.218 15.808 40.218 15.8101 40.218C15.8121 40.218 15.8141 40.218 15.8161 40.218C15.8181 40.218 15.8201 40.218 15.8221 40.218C15.8241 40.218 15.8262 40.218 15.8282 40.218C15.8302 40.218 15.8322 40.218 15.8342 40.218C15.8362 40.218 15.8382 40.218 15.8403 40.218C15.8423 40.218 15.8443 40.218 15.8463 40.218C15.8483 40.218 15.8503 40.218 15.8523 40.218C15.8544 40.218 15.8564 40.218 15.8584 40.218C15.8604 40.218 15.8624 40.218 15.8644 40.218C15.8665 40.218 15.8685 40.218 15.8705 40.218C15.8725 40.218 15.8745 40.218 15.8765 40.218C15.8786 40.218 15.8806 40.218 15.8826 40.218C15.8846 40.218 15.8866 40.218 15.8886 40.218C15.8907 40.218 15.8927 40.218 15.8947 40.218C15.8967 40.218 15.8987 40.218 15.9007 40.218C15.9028 40.218 15.9048 40.218 15.9068 40.218C15.9088 40.218 15.9108 40.218 15.9129 40.218C15.9149 40.218 15.9169 40.218 15.9189 40.218C15.9209 40.218 15.923 40.218 15.925 40.218C15.927 40.218 15.929 40.218 15.9311 40.218C15.9331 40.218 15.9351 40.218 15.9371 40.218C15.9391 40.218 15.9412 40.218 15.9432 40.218C15.9452 40.218 15.9472 40.218 15.9493 40.218C15.9513 40.218 15.9533 40.218 15.9553 40.218C15.9573 40.218 15.9594 40.218 15.9614 40.218C15.9634 40.218 15.9654 40.218 15.9675 40.218C15.9695 40.218 15.9715 40.218 15.9736 40.218C15.9756 40.218 15.9776 40.218 15.9796 40.218C15.9817 40.218 15.9837 40.218 15.9857 40.218C15.9877 40.218 15.9898 40.218 15.9918 40.218C15.9938 40.218 15.9959 40.218 15.9979 40.218C15.9999 40.218 16.0019 40.218 16.004 40.218C16.006 40.218 16.008 40.218 16.0101 40.218C16.0121 40.218 16.0141 40.218 16.0162 40.218C16.0182 40.218 16.0202 40.218 16.0222 40.218C16.0243 40.218 16.0263 40.218 16.0283 40.218C16.0304 40.218 16.0324 40.218 16.0344 40.218C16.0365 40.218 16.0385 40.218 16.0405 40.218C16.0426 40.218 16.0446 40.218 16.0467 40.218C16.0487 40.218 16.0507 40.218 16.0528 40.218C16.0548 40.218 16.0568 40.218 16.0589 40.218C16.0609 40.218 16.0629 40.218 16.065 40.218C16.067 40.218 16.0691 40.218 16.0711 40.218C16.0731 40.218 16.0752 40.218 16.0772 40.218C16.0793 40.218 16.0813 40.218 16.0833 40.218C16.0854 40.218 16.0874 40.218 16.0895 40.218C16.0915 40.218 16.0935 40.218 16.0956 40.218C16.0976 40.218 16.0997 40.218 16.1017 40.218C16.1038 40.218 16.1058 40.218 16.1079 40.218C16.1099 40.218 16.1119 40.218 16.114 40.218C16.116 40.218 16.1181 40.218 16.1201 40.218C16.1222 40.218 16.1242 40.218 16.1263 40.218C16.1283 40.218 16.1304 40.218 16.1324 40.218C16.1345 40.218 16.1365 40.218 16.1386 40.218C16.1406 40.218 16.1427 40.218 16.1447 40.218C16.1468 40.218 16.1488 40.218 16.1509 40.218C16.1529 40.218 16.155 40.218 16.157 40.218C16.1591 40.218 16.1611 40.218 16.1632 40.218C16.1652 40.218 16.1673 40.218 16.1694 40.218C16.1714 40.218 16.1735 40.218 16.1755 40.218C16.1776 40.218 16.1796 40.218 16.1817 40.218C16.1837 40.218 16.1858 40.218 16.1879 40.218C16.1899 40.218 16.192 40.218 16.194 40.218C16.1961 40.218 16.1982 40.218 16.2002 40.218C16.2023 40.218 16.2043 40.218 16.2064 40.218C16.2085 40.218 16.2105 40.218 16.2126 40.218C16.2147 40.218 16.2167 40.218 16.2188 40.218C16.2209 40.218 16.2229 40.218 16.225 40.218C16.2271 40.218 16.2291 40.218 16.2312 40.218C16.2333 40.218 16.2353 40.218 16.2374 40.218C16.2395 40.218 16.2415 40.218 16.2436 40.218C16.2457 40.218 16.2477 40.218 16.2498 40.218C16.2519 40.218 16.254 40.218 16.256 40.218C16.2581 40.218 16.2602 40.218 16.2622 40.218C16.2643 40.218 16.2664 40.218 16.2685 40.218C16.2705 40.218 16.2726 40.218 16.2747 40.218C16.2768 40.218 16.2789 40.218 16.2809 40.218C16.283 40.218 16.2851 40.218 16.2872 40.218C16.2892 40.218 16.2913 40.218 16.2934 40.218C16.2955 40.218 16.2976 40.218 16.2996 40.218C16.3017 40.218 16.3038 40.218 16.3059 40.218C16.308 40.218 16.3101 40.218 16.3121 40.218C16.3142 40.218 16.3163 40.218 16.3184 40.218C16.3205 40.218 16.3226 40.218 16.3247 40.218C16.3268 40.218 16.3288 40.218 16.3309 40.218C16.333 40.218 16.3351 40.218 16.3372 40.218C16.3393 40.218 16.3414 40.218 16.3435 40.218C16.3456 40.218 16.3477 40.218 16.3498 40.218C16.3519 40.218 16.3539 40.218 16.356 40.218C16.3581 40.218 16.3602 40.218 16.3623 40.218C16.3644 40.218 16.3665 40.218 16.3686 40.218C16.3707 40.218 16.3728 40.218 16.3749 40.218C16.377 40.218 16.3791 40.218 16.3812 40.218C16.3833 40.218 16.3854 40.218 16.3875 40.218C16.3896 40.218 16.3917 40.218 16.3938 40.218C16.3959 40.218 16.3981 40.218 16.4002 40.218C16.4023 40.218 16.4044 40.218 16.4065 40.218C16.4086 40.218 16.4107 40.218 16.4128 40.218C16.4149 40.218 16.417 40.218 16.4191 40.218C16.4213 40.218 16.4234 40.218 16.4255 40.218C16.4276 40.218 16.4297 40.218 16.4318 40.218C16.4339 40.218 16.4361 40.218 16.4382 40.218C16.4403 40.218 16.4424 40.218 16.4445 40.218C16.4466 40.218 16.4488 40.218 16.4509 40.218C16.453 40.218 16.4551 40.218 16.4572 40.218C16.4594 40.218 16.4615 40.218 16.4636 40.218C16.4657 40.218 16.4679 40.218 16.47 40.218C16.4721 40.218 16.4742 40.218 16.4764 40.218C16.4785 40.218 16.4806 40.218 16.4827 40.218C16.4849 40.218 16.487 40.218 16.4891 40.218C16.4913 40.218 16.4934 40.218 16.4955 40.218C16.4977 40.218 16.4998 40.218 16.5019 40.218C16.5041 40.218 16.5062 40.218 16.5083 40.218C16.5105 40.218 16.5126 40.218 16.5147 40.218C16.5169 40.218 16.519 40.218 16.5212 40.218C16.5233 40.218 16.5254 40.218 16.5276 40.218C16.5297 40.218 16.5319 40.218 16.534 40.218C16.5362 40.218 16.5383 40.218 16.5404 40.218C16.5426 40.218 16.5447 40.218 16.5469 40.218C16.549 40.218 16.5512 40.218 16.5533 40.218C16.5555 40.218 16.5576 40.218 16.5598 40.218C16.5619 40.218 16.5641 40.218 16.5662 40.218C16.5684 40.218 16.5706 40.218 16.5727 40.218C16.5749 40.218 16.577 40.218 16.5792 40.218C16.5813 40.218 16.5835 40.218 16.5857 40.218C16.5878 40.218 16.59 40.218 16.5921 40.218C16.5943 40.218 16.5965 40.218 16.5986 40.218C16.6008 40.218 16.603 40.218 16.6051 40.218C16.6073 40.218 16.6094 40.218 16.6116 40.218C16.6138 40.218 16.616 40.218 16.6181 40.218C16.6203 40.218 16.6225 40.218 16.6246 40.218C16.6268 40.218 16.629 40.218 16.6312 40.218C16.6333 40.218 16.6355 40.218 16.6377 40.218C16.6399 40.218 16.642 40.218 16.6442 40.218C16.6464 40.218 16.6486 40.218 16.6508 40.218C16.6529 40.218 16.6551 40.218 16.6573 40.218C16.6595 40.218 16.6617 40.218 16.6638 40.218C16.666 40.218 16.6682 40.218 16.6704 40.218C16.6726 40.218 16.6748 40.218 16.677 40.218C16.6792 40.218 16.6814 40.218 16.6835 40.218C16.6857 40.218 16.6879 40.218 16.6901 40.218C16.6923 40.218 16.6945 40.218 16.6967 40.218C16.6989 40.218 16.7011 40.218 16.7033 40.218C16.7055 40.218 16.7077 40.218 16.7099 40.218C16.7121 40.218 16.7143 40.218 16.7165 40.218C16.7187 40.218 16.7209 40.218 16.7231 40.218C16.7253 40.218 16.7275 40.218 16.7297 40.218C16.7319 40.218 16.7341 40.218 16.7364 40.218C16.7386 40.218 16.7408 40.218 16.743 40.218C16.7452 40.218 16.7474 40.218 16.7496 40.218C16.7518 40.218 16.7541 40.218 16.7563 40.218C16.7585 40.218 16.7607 40.218 16.7629 40.218C16.7652 40.218 16.7674 40.218 16.7696 40.218C16.7718 40.218 16.774 40.218 16.7763 40.218C16.7785 40.218 16.7807 40.218 16.7829 40.218C16.7852 40.218 16.7874 40.218 16.7896 40.218C16.7919 40.218 16.7941 40.218 16.7963 40.218C16.7985 40.218 16.8008 40.218 16.803 40.218C16.8052 40.218 16.8075 40.218 16.8097 40.218C16.812 40.218 16.8142 40.218 16.8164 40.218C16.8187 40.218 16.8209 40.218 16.8232 40.218C16.8254 40.218 16.8276 40.218 16.8299 40.218C16.8321 40.218 16.8344 40.218 16.8366 40.218C16.8389 40.218 16.8411 40.218 16.8434 40.218C16.8456 40.218 16.8479 40.218 16.8501 40.218C16.8524 40.218 16.8546 40.218 16.8569 40.218C16.8591 40.218 16.8614 40.218 16.8636 40.218C16.8659 40.218 16.8682 40.218 16.8704 40.218C16.8727 40.218 16.8749 40.218 16.8772 40.218C16.8795 40.218 16.8817 40.218 16.884 40.218C16.8862 40.218 16.8885 40.218 16.8908 40.218C16.893 40.218 16.8953 40.218 16.8976 40.218C16.8999 40.218 16.9021 40.218 16.9044 40.218C16.9067 40.218 16.9089 40.218 16.9112 40.218C16.9135 40.218 16.9158 40.218 16.9181 40.218C16.9203 40.218 16.9226 40.218 16.9249 40.218C16.9272 40.218 16.9295 40.218 16.9317 40.218C16.934 40.218 16.9363 40.218 16.9386 40.218C16.9409 40.218 16.9432 40.218 16.9455 40.218C16.9477 40.218 16.95 40.218 16.9523 40.218C16.9546 40.218 16.9569 40.218 16.9592 40.218C16.9615 40.218 16.9638 40.218 16.9661 40.218C16.9684 40.218 16.9707 40.218 16.973 40.218C16.9753 40.218 16.9776 40.218 16.9799 40.218C16.9822 40.218 16.9845 40.218 16.9868 40.218C16.9891 40.218 16.9914 40.218 16.9937 40.218C16.996 40.218 16.9984 40.218 17.0007 40.218C17.003 40.218 17.0053 40.218 17.0076 40.218C17.0099 40.218 17.0122 40.218 17.0146 40.218C17.0169 40.218 17.0192 40.218 17.0215 40.218C17.0238 40.218 17.0261 40.218 17.0285 40.218C17.0308 40.218 17.0331 40.218 17.0354 40.218C17.0378 40.218 17.0401 40.218 17.0424 40.218C17.0448 40.218 17.0471 40.218 17.0494 40.218C17.0518 40.218 17.0541 40.218 17.0564 40.218C17.0588 40.218 17.0611 40.218 17.0634 40.218C17.0658 40.218 17.0681 40.218 17.0705 40.218C17.0728 40.218 17.0751 40.218 17.0775 40.218C17.0798 40.218 17.0822 40.218 17.0845 40.218C17.0869 40.218 17.0892 40.218 17.0916 40.218C17.0939 40.218 17.0963 40.218 17.0986 40.218C17.101 40.218 17.1033 40.218 17.1057 40.218C17.108 40.218 17.1104 40.218 17.1128 40.218C17.1151 40.218 17.1175 40.218 17.1198 40.218C17.1222 40.218 17.1246 40.218 17.1269 40.218C17.1293 40.218 17.1317 40.218 17.134 40.218C17.1364 40.218 17.1388 40.218 17.1411 40.218C17.1435 40.218 17.1459 40.218 17.1483 40.218C17.1506 40.218 17.153 40.218 17.1554 40.218C17.1578 40.218 17.1601 40.218 17.1625 40.218C17.1649 40.218 17.1673 40.218 17.1697 40.218C17.1721 40.218 17.1744 40.218 17.1768 40.218C17.1792 40.218 17.1816 40.218 17.184 40.218C17.1864 40.218 17.1888 40.218 17.1912 40.218C17.1936 40.218 17.196 40.218 17.1984 40.218C17.2008 40.218 17.2032 40.218 17.2056 40.218C17.208 40.218 17.2104 40.218 17.2128 40.218C17.2152 40.218 17.2176 40.218 17.22 40.218C17.2224 40.218 17.2248 40.218 17.2272 40.218C17.2296 40.218 17.232 40.218 17.2345 40.218C17.2369 40.218 17.2393 40.218 17.2417 40.218C17.2441 40.218 17.2465 40.218 17.249 40.218C17.2514 40.218 17.2538 40.218 17.2562 40.218C17.2586 40.218 17.2611 40.218 17.2635 40.218C17.2659 40.218 17.2684 40.218 17.2708 40.218C17.2732 40.218 17.2756 40.218 17.2781 40.218C17.2805 40.218 17.283 40.218 17.2854 40.218C17.2878 40.218 17.2903 40.218 17.2927 40.218C17.2951 40.218 17.2976 40.218 17.3 40.218C17.3025 40.218 17.3049 40.218 17.3074 40.218C17.3098 40.218 17.3123 40.218 17.3147 40.218C17.3172 40.218 17.3196 40.218 17.3221 40.218C17.3245 40.218 17.327 40.218 17.3295 40.218C17.3319 40.218 17.3344 40.218 17.3368 40.218C17.3393 40.218 17.3418 40.218 17.3442 40.218C17.3467 40.218 17.3492 40.218 17.3516 40.218C17.3541 40.218 17.3566 40.218 17.359 40.218C17.3615 40.218 17.364 40.218 17.3665 40.218C17.3689 40.218 17.3714 40.218 17.3739 40.218C17.3764 40.218 17.3789 40.218 17.3813 40.218C17.3838 40.218 17.3863 40.218 17.3888 40.218C17.3913 40.218 17.3938 40.218 17.3963 40.218C17.3987 40.218 17.4012 40.218 17.4037 40.218C17.4062 40.218 17.4087 40.218 17.4112 40.218C17.4137 40.218 17.4162 40.218 17.4187 40.218C17.4212 40.218 17.4237 40.218 17.4262 40.218C17.4287 40.218 17.4312 40.218 17.4337 40.218C17.4363 40.218 17.4388 40.218 17.4413 40.218C17.4438 40.218 17.4463 40.218 17.4488 40.218C17.4513 40.218 17.4539 40.218 17.4564 40.218C17.4589 40.218 17.4614 40.218 17.4639 40.218C17.4665 40.218 17.469 40.218 17.4715 40.218C17.474 40.218 17.4766 40.218 17.4791 40.218C17.4816 40.218 17.4842 40.218 17.4867 40.218C17.4892 40.218 17.4918 40.218 17.4943 40.218C17.4968 40.218 17.4994 40.218 17.5019 40.218C17.5045 40.218 17.507 40.218 17.5096 40.218C17.5121 40.218 17.5147 40.218 17.5172 40.218C17.5198 40.218 17.5223 40.218 17.5249 40.218C17.5274 40.218 17.53 40.218 17.5325 40.218C17.5351 40.218 17.5376 40.218 17.5402 40.218C17.5428 40.218 17.5453 40.218 17.5479 40.218C17.5505 40.218 17.553 40.218 17.5556 40.218C17.5582 40.218 17.5607 40.218 17.5633 40.218C17.5659 40.218 17.5685 40.218 17.571 40.218C17.5736 40.218 17.5762 40.218 17.5788 40.218C17.5814 40.218 17.5839 40.218 17.5865 40.218C17.5891 40.218 17.5917 40.218 17.5943 40.218C17.5969 40.218 17.5995 40.218 17.6021 40.218C17.6047 40.218 17.6073 40.218 17.6098 40.218C17.6124 40.218 17.615 40.218 17.6176 40.218C17.6202 40.218 17.6229 40.218 17.6255 40.218C17.6281 40.218 17.6307 40.218 17.6333 40.218C17.6359 40.218 17.6385 40.218 17.6411 40.218C17.6437 40.218 17.6463 40.218 17.649 40.218C17.6516 40.218 17.6542 40.218 17.6568 40.218C17.6594 40.218 17.6621 40.218 17.6647 40.218C17.6673 40.218 17.6699 40.218 17.6726 40.218C17.6752 40.218 17.6778 40.218 17.6805 40.218C17.6831 40.218 17.6857 40.218 17.6884 40.218C17.691 40.218 17.6936 40.218 17.6963 40.218C17.6989 40.218 17.7016 40.218 17.7042 40.218C17.7069 40.218 17.7095 40.218 17.7122 40.218C17.7148 40.218 17.7175 40.218 17.7201 40.218C17.7228 40.218 17.7254 40.218 17.7281 40.218C17.7308 40.218 17.7334 40.218 17.7361 40.218C17.7387 40.218 17.7414 40.218 17.7441 40.218C17.7467 40.218 17.7494 40.218 17.7521 40.218C17.7548 40.218 17.7574 40.218 17.7601 40.218C17.7628 40.218 17.7655 40.218 17.7681 40.218C17.7708 40.218 17.7735 40.218 17.7762 40.218C17.7789 40.218 17.7815 40.218 17.7842 40.218C17.7869 40.218 17.7896 40.218 17.7923 40.218C17.795 40.218 17.7977 40.218 17.8004 40.218C17.8031 40.218 17.8058 40.218 17.8085 40.218C17.8112 40.218 17.8139 40.218 17.8166 40.218C17.8193 40.218 17.822 40.218 17.8247 40.218C17.8274 40.218 17.8302 40.218 17.8329 40.218C17.8356 40.218 17.8383 40.218 17.841 40.218C17.8437 40.218 17.8465 40.218 17.8492 40.218C17.8519 40.218 17.8546 40.218 17.8574 40.218C17.8601 40.218 17.8628 40.218 17.8655 40.218C17.8683 40.218 17.871 40.218 17.8737 40.218C17.8765 40.218 17.8792 40.218 17.882 40.218C17.8847 40.218 17.8875 40.218 17.8902 40.218C17.8929 40.218 17.8957 40.218 17.8984 40.218C17.9012 40.218 17.9039 40.218 17.9067 40.218C17.9095 40.218 17.9122 40.218 17.915 40.218C17.9177 40.218 17.9205 40.218 17.9233 40.218C17.926 40.218 17.9288 40.218 17.9315 40.218C17.9343 40.218 17.9371 40.218 17.9399 40.218C17.9426 40.218 17.9454 40.218 17.9482 40.218C17.951 40.218 17.9537 40.218 17.9565 40.218C17.9593 40.218 17.9621 40.218 17.9649 40.218C17.9677 40.218 17.9705 40.218 17.9732 40.218C17.976 40.218 17.9788 40.218 17.9816 40.218C17.9844 40.218 17.9872 40.218 17.99 40.218C17.9928 40.218 17.9956 40.218 17.9984 40.218C18.0012 40.218 18.004 40.218 18.0068 40.218C18.0097 40.218 18.0125 40.218 18.0153 40.218C18.0181 40.218 18.0209 40.218 18.0237 40.218C18.0266 40.218 18.0294 40.218 18.0322 40.218C18.035 40.218 18.0378 40.218 18.0407 40.218C18.0435 40.218 18.0463 40.218 18.0492 40.218C18.052 40.218 18.0548 40.218 18.0577 40.218C18.0605 40.218 18.0634 40.218 18.0662 40.218C18.069 40.218 18.0719 40.218 18.0747 40.218C18.0776 40.218 18.0804 40.218 18.0833 40.218C18.0861 40.218 18.089 40.218 18.0918 40.218C18.0947 40.218 18.0976 40.218 18.1004 40.218C18.1033 40.218 18.1062 40.218 18.109 40.218C18.1119 40.218 18.1148 40.218 18.1176 40.218C18.1205 40.218 18.1234 40.218 18.1262 40.218C18.1291 40.218 18.132 40.218 18.1349 40.218C18.1378 40.218 18.1406 40.218 18.1435 40.218C18.1464 40.218 18.1493 40.218 18.1522 40.218C18.1551 40.218 18.158 40.218 18.1609 40.218C18.1638 40.218 18.1667 40.218 18.1696 40.218C18.1725 40.218 18.1754 40.218 18.1783 40.218C18.1812 40.218 18.1841 40.218 18.187 40.218C18.1899 40.218 18.1928 40.218 18.1958 40.218C18.1987 40.218 18.2016 40.218 18.2045 40.218C18.2074 40.218 18.2104 40.218 18.2133 40.218C18.2162 40.218 18.2191 40.218 18.2221 40.218C18.225 40.218 18.2279 40.218 18.2309 40.218C18.2338 40.218 18.2367 40.218 18.2397 40.218C18.2426 40.218 18.2456 40.218 18.2485 40.218C18.2515 40.218 18.2544 40.218 18.2574 40.218C18.2603 40.218 18.2633 40.218 18.2662 40.218C18.2692 40.218 18.2721 40.218 18.2751 40.218V38.218ZM50.414 49.503H16.4652V51.503H50.414V49.503ZM13.8264 39.3626L15.4757 50.6476L17.4547 50.3584L15.8054 39.0734L13.8264 39.3626ZM67.6384 57.0923H61.3531V59.0923H67.6384V57.0923ZM44.0916 61.1838H18.9032V63.1838H44.0916V61.1838ZM64.2727 67.4533H58.2698V69.4533H64.2727V67.4533Z" fill="#C4AA79"/>
<circle cx="50.9421" cy="65.3515" r="7.71116" stroke="#C4AA79" stroke-width="2" stroke-linejoin="round"/>
</svg>
