<svg width="95" height="101" viewBox="0 0 95 101" fill="none" xmlns="http://www.w3.org/2000/svg">
<path d="M45.6304 51.9883C58.3294 51.9883 68.624 41.7874 68.624 29.2039C68.624 16.6204 58.3294 6.41943 45.6304 6.41943C32.9313 6.41943 22.6367 16.6204 22.6367 29.2039C22.6367 41.7874 32.9313 51.9883 45.6304 51.9883Z" stroke="#C4AA79" stroke-width="2" stroke-miterlimit="10" stroke-linecap="round" stroke-linejoin="round"/>
<rect x="18.084" y="52.334" width="55.093" height="14.2375" rx="5" stroke="#C4AA79" stroke-width="2"/>
<rect x="34.1787" y="66.5718" width="55.093" height="14.2375" rx="5" stroke="#C4AA79" stroke-width="2"/>
<rect x="12.5127" y="80.8091" width="55.093" height="14.2375" rx="5" stroke="#C4AA79" stroke-width="2"/>
<path d="M36.5818 34.5074C38.4468 34.5074 40.0932 33.5749 40.9674 32.1033L39.2335 31.098C38.7527 31.9867 37.7474 32.5404 36.5818 32.5404C35.591 32.5404 34.7897 32.2344 34.1778 31.6079C33.5804 30.9814 33.2744 30.1801 33.2744 29.2039C33.2744 28.2131 33.5804 27.4118 34.1778 26.7853C34.7897 26.1587 35.591 25.8528 36.5818 25.8528C37.7474 25.8528 38.7236 26.3919 39.2335 27.3098L40.9674 26.3044C40.0932 24.8329 38.4322 23.9004 36.5818 23.9004C35.052 23.9004 33.7844 24.4103 32.779 25.4302C31.7737 26.4356 31.2783 27.7032 31.2783 29.2039C31.2783 30.7046 31.7737 31.9576 32.779 32.9775C33.7844 33.9974 35.052 34.5074 36.5818 34.5074Z" fill="#C4AA79"/>
<path d="M48.0014 28.1548H44.2132V24.1044H42.2025V34.3034H44.2132V30.0781H48.0014V34.3034H49.9975V24.1044H48.0014V28.1548Z" fill="#C4AA79"/>
<path d="M57.9824 24.1044H51.8921V34.3034H53.9028V30.3695H57.8658V28.4462H53.9028V26.0276H57.9824V24.1044Z" fill="#C4AA79"/>
</svg>
