<svg width="18" height="19" viewBox="0 0 18 19" fill="none" xmlns="http://www.w3.org/2000/svg">
<path d="M2.4507 14.371L2.89791 14.5946L3.03623 14.318L2.85046 14.0707L2.4507 14.371ZM4.06772 15.988L4.36803 15.5883L4.12075 15.4025L3.84411 15.5408L4.06772 15.988ZM0.833679 17.6051L0.386466 17.3814C0.290218 17.5739 0.327946 17.8064 0.480126 17.9586C0.632306 18.1108 0.864792 18.1485 1.05729 18.0523L0.833679 17.6051ZM5.68543 6.28431L5.38543 5.88431C5.25953 5.97873 5.18543 6.12693 5.18543 6.28431H5.68543ZM12.1544 12.7533V13.2533C12.3019 13.2533 12.4419 13.1882 12.5369 13.0754L12.1544 12.7533ZM6.18796 5.90741L5.88796 5.50741L6.18796 5.90741ZM7.47551 6.45401L6.97937 6.51603L7.47551 6.45401ZM7.65794 7.91344L8.15408 7.85142L7.65794 7.91344ZM7.42734 8.58552L7.07379 8.23197L7.42734 8.58552ZM12.5129 12.3276L12.1304 12.0056V12.0056L12.5129 12.3276ZM12.0115 11.0067L12.0839 10.5119L12.0115 11.0067ZM10.5346 10.7905L10.607 10.2958L10.5346 10.7905ZM9.84576 11.0189L10.1993 11.3724L9.84576 11.0189ZM0.333689 9.5188C0.333689 11.4514 0.972777 13.2362 2.05094 14.6713L2.85046 14.0707C1.89793 12.8028 1.33369 11.2274 1.33369 9.5188H0.333689ZM8.91994 0.932545C4.17789 0.932545 0.333689 4.77674 0.333689 9.5188H1.33369C1.33369 5.32903 4.73017 1.93254 8.91994 1.93254V0.932545ZM17.5062 9.5188C17.5062 4.77674 13.662 0.932545 8.91994 0.932545V1.93254C13.1097 1.93254 16.5062 5.32903 16.5062 9.5188H17.5062ZM8.91994 18.1051C13.662 18.1051 17.5062 14.2609 17.5062 9.5188H16.5062C16.5062 13.7086 13.1097 17.1051 8.91994 17.1051V18.1051ZM3.7674 16.3878C5.20257 17.466 6.98734 18.1051 8.91994 18.1051V17.1051C7.21134 17.1051 5.63597 16.5408 4.36803 15.5883L3.7674 16.3878ZM1.05729 18.0523L4.29132 16.4353L3.84411 15.5408L0.610072 17.1578L1.05729 18.0523ZM2.00348 14.1474L0.386466 17.3814L1.28089 17.8287L2.89791 14.5946L2.00348 14.1474ZM5.18543 6.28431V7.09293H6.18543V6.28431H5.18543ZM11.3458 13.2533H12.1544V12.2533H11.3458V13.2533ZM5.18543 7.09293C5.18543 10.4952 7.94353 13.2533 11.3458 13.2533V12.2533C8.49581 12.2533 6.18543 9.94293 6.18543 7.09293H5.18543ZM5.98543 6.68431L6.48796 6.30741L5.88796 5.50741L5.38543 5.88431L5.98543 6.68431ZM6.97937 6.51603L7.1618 7.97545L8.15408 7.85142L7.97165 6.392L6.97937 6.51603ZM7.07379 8.23197L6.1405 9.16525L6.84761 9.87236L7.7809 8.93907L7.07379 8.23197ZM7.1618 7.97545C7.17361 8.06996 7.14113 8.16462 7.07379 8.23197L7.7809 8.93907C8.06645 8.65352 8.20417 8.25213 8.15408 7.85142L7.1618 7.97545ZM6.48796 6.30741C6.67753 6.16523 6.94998 6.28089 6.97937 6.51603L7.97165 6.392C7.84702 5.39496 6.69179 4.90454 5.88796 5.50741L6.48796 6.30741ZM12.5369 13.0754L12.8954 12.6497L12.1304 12.0056L11.772 12.4312L12.5369 13.0754ZM12.0839 10.5119L10.607 10.2958L10.4622 11.2853L11.9391 11.5014L12.0839 10.5119ZM9.4922 10.6653L8.56638 11.5911L9.27349 12.2982L10.1993 11.3724L9.4922 10.6653ZM10.607 10.2958C10.1979 10.2359 9.78457 10.3729 9.4922 10.6653L10.1993 11.3724C10.2683 11.3035 10.3657 11.2711 10.4622 11.2853L10.607 10.2958ZM12.8954 12.6497C13.5559 11.8653 13.0985 10.6604 12.0839 10.5119L11.9391 11.5014C12.1784 11.5364 12.2862 11.8206 12.1304 12.0056L12.8954 12.6497Z" fill="#C4AA79"/>
</svg>
